M48
;DRILL file {KiCad 4.0.1-3.201512221402+6198~38~ubuntu15.04.1-stable} date Mon 11 Jan 2016 14:02:40 CET
;FORMAT={-:-/ absolute / inch / decimal}
FMAT,2
INCH,TZ
T1C0.030
%
G90
G05
M72
T1
X3.4646Y-3.0709
X3.4646Y-3.1496
X3.4646Y-3.2283
X3.4646Y-3.3071
X3.4646Y-4.252
X3.4646Y-4.3307
X3.4646Y-4.4094
X3.4646Y-4.4882
X3.9945Y-3.4465
X3.9945Y-3.5465
X3.9945Y-3.6465
X3.9945Y-3.7465
X3.9945Y-3.8465
X3.9945Y-3.9465
X3.9945Y-4.0465
X3.9945Y-4.1465
X4.0945Y-3.4465
X4.0945Y-3.5465
X4.0945Y-3.6465
X4.0945Y-3.7465
X4.0945Y-3.8465
X4.0945Y-3.9465
X4.0945Y-4.0465
X4.0945Y-4.1465
X4.6457Y-3.0709
X4.6457Y-3.1496
X4.6457Y-3.2283
X4.6457Y-3.3071
X4.6457Y-4.252
X4.6457Y-4.3307
X4.6457Y-4.4094
X4.6457Y-4.4882
T0
M30
