G04 #@! TF.FileFunction,Copper,L2,Bot,Signal*
%FSLAX46Y46*%
G04 Gerber Fmt 4.6, Leading zero omitted, Abs format (unit mm)*
G04 Created by KiCad (PCBNEW 4.0.1-3.201512221402+6198~38~ubuntu15.04.1-stable) date Mon 11 Jan 2016 14:02:37 CET*
%MOMM*%
G01*
G04 APERTURE LIST*
%ADD10C,0.100000*%
%ADD11C,1.524000*%
%ADD12C,0.250000*%
%ADD13C,0.254000*%
G04 APERTURE END LIST*
D10*
D11*
X88000000Y-78000000D03*
X88000000Y-80000000D03*
X88000000Y-82000000D03*
X88000000Y-84000000D03*
X88000000Y-108000000D03*
X88000000Y-110000000D03*
X88000000Y-112000000D03*
X88000000Y-114000000D03*
X118000000Y-78000000D03*
X118000000Y-80000000D03*
X118000000Y-82000000D03*
X118000000Y-84000000D03*
X118000000Y-108000000D03*
X118000000Y-110000000D03*
X118000000Y-112000000D03*
X118000000Y-114000000D03*
X101460000Y-87540000D03*
X104000000Y-87540000D03*
X101460000Y-90080000D03*
X104000000Y-90080000D03*
X101460000Y-92620000D03*
X104000000Y-92620000D03*
X101460000Y-95160000D03*
X104000000Y-95160000D03*
X101460000Y-97700000D03*
X104000000Y-97700000D03*
X101460000Y-100240000D03*
X104000000Y-100240000D03*
X101460000Y-102780000D03*
X104000000Y-102780000D03*
X101460000Y-105320000D03*
X104000000Y-105320000D03*
D12*
X88000000Y-114000000D02*
X90240000Y-114000000D01*
X90240000Y-114000000D02*
X101460000Y-102780000D01*
X118000000Y-84000000D02*
X112620000Y-84000000D01*
X112620000Y-84000000D02*
X104000000Y-92620000D01*
X104000000Y-105320000D02*
X111320000Y-105320000D01*
X111320000Y-105320000D02*
X118000000Y-112000000D01*
D13*
G36*
X120869702Y-115873000D02*
X119409144Y-115873000D01*
X119409144Y-110207698D01*
X119409144Y-80207698D01*
X119381362Y-79652632D01*
X119222397Y-79268857D01*
X118980213Y-79199392D01*
X118179605Y-80000000D01*
X118980213Y-80800608D01*
X119222397Y-80731143D01*
X119409144Y-80207698D01*
X119409144Y-110207698D01*
X119397242Y-109969903D01*
X119397242Y-107723339D01*
X119397242Y-83723339D01*
X119185010Y-83209697D01*
X118975657Y-82999978D01*
X119183629Y-82792370D01*
X119396757Y-82279100D01*
X119397242Y-81723339D01*
X119185010Y-81209697D01*
X118792370Y-80816371D01*
X118526273Y-80705878D01*
X118000000Y-80179605D01*
X117820395Y-80359209D01*
X117820395Y-80000000D01*
X117019787Y-79199392D01*
X116777603Y-79268857D01*
X116590856Y-79792302D01*
X116618638Y-80347368D01*
X116777603Y-80731143D01*
X117019787Y-80800608D01*
X117820395Y-80000000D01*
X117820395Y-80359209D01*
X117473697Y-80705907D01*
X117209697Y-80814990D01*
X116816371Y-81207630D01*
X116603243Y-81720900D01*
X116602758Y-82276661D01*
X116814990Y-82790303D01*
X117024342Y-83000021D01*
X116816371Y-83207630D01*
X116802929Y-83240000D01*
X112620000Y-83240000D01*
X112329161Y-83297852D01*
X112082599Y-83462599D01*
X105401915Y-90143282D01*
X105397242Y-90049915D01*
X105397242Y-87263339D01*
X105185010Y-86749697D01*
X104792370Y-86356371D01*
X104279100Y-86143243D01*
X103723339Y-86142758D01*
X103209697Y-86354990D01*
X102816371Y-86747630D01*
X102730050Y-86955512D01*
X102645010Y-86749697D01*
X102252370Y-86356371D01*
X101739100Y-86143243D01*
X101183339Y-86142758D01*
X100669697Y-86354990D01*
X100276371Y-86747630D01*
X100063243Y-87260900D01*
X100062758Y-87816661D01*
X100274990Y-88330303D01*
X100667630Y-88723629D01*
X100859727Y-88803394D01*
X100728857Y-88857603D01*
X100659392Y-89099787D01*
X101460000Y-89900395D01*
X102260608Y-89099787D01*
X102191143Y-88857603D01*
X102050682Y-88807491D01*
X102250303Y-88725010D01*
X102643629Y-88332370D01*
X102729949Y-88124487D01*
X102814990Y-88330303D01*
X103207630Y-88723629D01*
X103399727Y-88803394D01*
X103268857Y-88857603D01*
X103199392Y-89099787D01*
X104000000Y-89900395D01*
X104800608Y-89099787D01*
X104731143Y-88857603D01*
X104590682Y-88807491D01*
X104790303Y-88725010D01*
X105183629Y-88332370D01*
X105396757Y-87819100D01*
X105397242Y-87263339D01*
X105397242Y-90049915D01*
X105381362Y-89732632D01*
X105222397Y-89348857D01*
X104980213Y-89279392D01*
X104179605Y-90080000D01*
X104193747Y-90094142D01*
X104014142Y-90273747D01*
X104000000Y-90259605D01*
X103820395Y-90439210D01*
X103820395Y-90080000D01*
X103019787Y-89279392D01*
X102777603Y-89348857D01*
X102733547Y-89472344D01*
X102682397Y-89348857D01*
X102440213Y-89279392D01*
X101639605Y-90080000D01*
X102440213Y-90880608D01*
X102682397Y-90811143D01*
X102726452Y-90687655D01*
X102777603Y-90811143D01*
X103019787Y-90880608D01*
X103820395Y-90080000D01*
X103820395Y-90439210D01*
X103199392Y-91060213D01*
X103268857Y-91302397D01*
X103409317Y-91352508D01*
X103209697Y-91434990D01*
X102816371Y-91827630D01*
X102730050Y-92035512D01*
X102645010Y-91829697D01*
X102252370Y-91436371D01*
X102060272Y-91356605D01*
X102191143Y-91302397D01*
X102260608Y-91060213D01*
X101460000Y-90259605D01*
X101280395Y-90439210D01*
X101280395Y-90080000D01*
X100479787Y-89279392D01*
X100237603Y-89348857D01*
X100050856Y-89872302D01*
X100078638Y-90427368D01*
X100237603Y-90811143D01*
X100479787Y-90880608D01*
X101280395Y-90080000D01*
X101280395Y-90439210D01*
X100659392Y-91060213D01*
X100728857Y-91302397D01*
X100869317Y-91352508D01*
X100669697Y-91434990D01*
X100276371Y-91827630D01*
X100063243Y-92340900D01*
X100062758Y-92896661D01*
X100274990Y-93410303D01*
X100667630Y-93803629D01*
X100875512Y-93889949D01*
X100669697Y-93974990D01*
X100276371Y-94367630D01*
X100063243Y-94880900D01*
X100062758Y-95436661D01*
X100274990Y-95950303D01*
X100667630Y-96343629D01*
X100875512Y-96429949D01*
X100669697Y-96514990D01*
X100276371Y-96907630D01*
X100063243Y-97420900D01*
X100062758Y-97976661D01*
X100274990Y-98490303D01*
X100667630Y-98883629D01*
X100859727Y-98963394D01*
X100728857Y-99017603D01*
X100659392Y-99259787D01*
X101460000Y-100060395D01*
X102260608Y-99259787D01*
X102191143Y-99017603D01*
X102050682Y-98967491D01*
X102250303Y-98885010D01*
X102643629Y-98492370D01*
X102729949Y-98284487D01*
X102814990Y-98490303D01*
X103207630Y-98883629D01*
X103399727Y-98963394D01*
X103268857Y-99017603D01*
X103199392Y-99259787D01*
X104000000Y-100060395D01*
X104800608Y-99259787D01*
X104731143Y-99017603D01*
X104590682Y-98967491D01*
X104790303Y-98885010D01*
X105183629Y-98492370D01*
X105396757Y-97979100D01*
X105397242Y-97423339D01*
X105185010Y-96909697D01*
X104792370Y-96516371D01*
X104584487Y-96430050D01*
X104790303Y-96345010D01*
X105183629Y-95952370D01*
X105396757Y-95439100D01*
X105397242Y-94883339D01*
X105185010Y-94369697D01*
X104792370Y-93976371D01*
X104584487Y-93890050D01*
X104790303Y-93805010D01*
X105183629Y-93412370D01*
X105396757Y-92899100D01*
X105397242Y-92343339D01*
X105383857Y-92310944D01*
X112934802Y-84760000D01*
X116802469Y-84760000D01*
X116814990Y-84790303D01*
X117207630Y-85183629D01*
X117720900Y-85396757D01*
X118276661Y-85397242D01*
X118790303Y-85185010D01*
X119183629Y-84792370D01*
X119396757Y-84279100D01*
X119397242Y-83723339D01*
X119397242Y-107723339D01*
X119185010Y-107209697D01*
X118792370Y-106816371D01*
X118279100Y-106603243D01*
X117723339Y-106602758D01*
X117209697Y-106814990D01*
X116816371Y-107207630D01*
X116603243Y-107720900D01*
X116602758Y-108276661D01*
X116814990Y-108790303D01*
X117207630Y-109183629D01*
X117473726Y-109294121D01*
X118000000Y-109820395D01*
X118526302Y-109294092D01*
X118790303Y-109185010D01*
X119183629Y-108792370D01*
X119396757Y-108279100D01*
X119397242Y-107723339D01*
X119397242Y-109969903D01*
X119381362Y-109652632D01*
X119222397Y-109268857D01*
X118980213Y-109199392D01*
X118179605Y-110000000D01*
X118980213Y-110800608D01*
X119222397Y-110731143D01*
X119409144Y-110207698D01*
X119409144Y-115873000D01*
X119397242Y-115873000D01*
X119397242Y-113723339D01*
X119185010Y-113209697D01*
X118975657Y-112999978D01*
X119183629Y-112792370D01*
X119396757Y-112279100D01*
X119397242Y-111723339D01*
X119185010Y-111209697D01*
X118792370Y-110816371D01*
X118526273Y-110705878D01*
X118000000Y-110179605D01*
X117985857Y-110193747D01*
X117806252Y-110014142D01*
X117820395Y-110000000D01*
X117019787Y-109199392D01*
X116777603Y-109268857D01*
X116663496Y-109588694D01*
X111857401Y-104782599D01*
X111610839Y-104617852D01*
X111320000Y-104560000D01*
X105409144Y-104560000D01*
X105409144Y-100447698D01*
X105381362Y-99892632D01*
X105222397Y-99508857D01*
X104980213Y-99439392D01*
X104179605Y-100240000D01*
X104980213Y-101040608D01*
X105222397Y-100971143D01*
X105409144Y-100447698D01*
X105409144Y-104560000D01*
X105197530Y-104560000D01*
X105185010Y-104529697D01*
X104792370Y-104136371D01*
X104584487Y-104050050D01*
X104790303Y-103965010D01*
X105183629Y-103572370D01*
X105396757Y-103059100D01*
X105397242Y-102503339D01*
X105185010Y-101989697D01*
X104792370Y-101596371D01*
X104600272Y-101516605D01*
X104731143Y-101462397D01*
X104800608Y-101220213D01*
X104000000Y-100419605D01*
X103820395Y-100599210D01*
X103820395Y-100240000D01*
X103019787Y-99439392D01*
X102777603Y-99508857D01*
X102733547Y-99632344D01*
X102682397Y-99508857D01*
X102440213Y-99439392D01*
X101639605Y-100240000D01*
X102440213Y-101040608D01*
X102682397Y-100971143D01*
X102726452Y-100847655D01*
X102777603Y-100971143D01*
X103019787Y-101040608D01*
X103820395Y-100240000D01*
X103820395Y-100599210D01*
X103199392Y-101220213D01*
X103268857Y-101462397D01*
X103409317Y-101512508D01*
X103209697Y-101594990D01*
X102816371Y-101987630D01*
X102730050Y-102195512D01*
X102645010Y-101989697D01*
X102252370Y-101596371D01*
X102060272Y-101516605D01*
X102191143Y-101462397D01*
X102260608Y-101220213D01*
X101460000Y-100419605D01*
X101280395Y-100599210D01*
X101280395Y-100240000D01*
X100479787Y-99439392D01*
X100237603Y-99508857D01*
X100050856Y-100032302D01*
X100078638Y-100587368D01*
X100237603Y-100971143D01*
X100479787Y-101040608D01*
X101280395Y-100240000D01*
X101280395Y-100599210D01*
X100659392Y-101220213D01*
X100728857Y-101462397D01*
X100869317Y-101512508D01*
X100669697Y-101594990D01*
X100276371Y-101987630D01*
X100063243Y-102500900D01*
X100062758Y-103056661D01*
X100076142Y-103089055D01*
X89925198Y-113240000D01*
X89409144Y-113240000D01*
X89409144Y-110207698D01*
X89409144Y-80207698D01*
X89381362Y-79652632D01*
X89222397Y-79268857D01*
X88980213Y-79199392D01*
X88179605Y-80000000D01*
X88980213Y-80800608D01*
X89222397Y-80731143D01*
X89409144Y-80207698D01*
X89409144Y-110207698D01*
X89397242Y-109969903D01*
X89397242Y-107723339D01*
X89397242Y-83723339D01*
X89185010Y-83209697D01*
X88975657Y-82999978D01*
X89183629Y-82792370D01*
X89396757Y-82279100D01*
X89397242Y-81723339D01*
X89185010Y-81209697D01*
X88792370Y-80816371D01*
X88526273Y-80705878D01*
X88000000Y-80179605D01*
X87820395Y-80359209D01*
X87820395Y-80000000D01*
X87019787Y-79199392D01*
X86777603Y-79268857D01*
X86590856Y-79792302D01*
X86618638Y-80347368D01*
X86777603Y-80731143D01*
X87019787Y-80800608D01*
X87820395Y-80000000D01*
X87820395Y-80359209D01*
X87473697Y-80705907D01*
X87209697Y-80814990D01*
X86816371Y-81207630D01*
X86603243Y-81720900D01*
X86602758Y-82276661D01*
X86814990Y-82790303D01*
X87024342Y-83000021D01*
X86816371Y-83207630D01*
X86603243Y-83720900D01*
X86602758Y-84276661D01*
X86814990Y-84790303D01*
X87207630Y-85183629D01*
X87720900Y-85396757D01*
X88276661Y-85397242D01*
X88790303Y-85185010D01*
X89183629Y-84792370D01*
X89396757Y-84279100D01*
X89397242Y-83723339D01*
X89397242Y-107723339D01*
X89185010Y-107209697D01*
X88792370Y-106816371D01*
X88279100Y-106603243D01*
X87723339Y-106602758D01*
X87209697Y-106814990D01*
X86816371Y-107207630D01*
X86603243Y-107720900D01*
X86602758Y-108276661D01*
X86814990Y-108790303D01*
X87207630Y-109183629D01*
X87473726Y-109294121D01*
X88000000Y-109820395D01*
X88526302Y-109294092D01*
X88790303Y-109185010D01*
X89183629Y-108792370D01*
X89396757Y-108279100D01*
X89397242Y-107723339D01*
X89397242Y-109969903D01*
X89381362Y-109652632D01*
X89222397Y-109268857D01*
X88980213Y-109199392D01*
X88179605Y-110000000D01*
X88980213Y-110800608D01*
X89222397Y-110731143D01*
X89409144Y-110207698D01*
X89409144Y-113240000D01*
X89197530Y-113240000D01*
X89185010Y-113209697D01*
X88975657Y-112999978D01*
X89183629Y-112792370D01*
X89396757Y-112279100D01*
X89397242Y-111723339D01*
X89185010Y-111209697D01*
X88792370Y-110816371D01*
X88526273Y-110705878D01*
X88000000Y-110179605D01*
X87820395Y-110359209D01*
X87820395Y-110000000D01*
X87019787Y-109199392D01*
X86777603Y-109268857D01*
X86590856Y-109792302D01*
X86618638Y-110347368D01*
X86777603Y-110731143D01*
X87019787Y-110800608D01*
X87820395Y-110000000D01*
X87820395Y-110359209D01*
X87473697Y-110705907D01*
X87209697Y-110814990D01*
X86816371Y-111207630D01*
X86603243Y-111720900D01*
X86602758Y-112276661D01*
X86814990Y-112790303D01*
X87024342Y-113000021D01*
X86816371Y-113207630D01*
X86603243Y-113720900D01*
X86602758Y-114276661D01*
X86814990Y-114790303D01*
X87207630Y-115183629D01*
X87720900Y-115396757D01*
X88276661Y-115397242D01*
X88790303Y-115185010D01*
X89183629Y-114792370D01*
X89197070Y-114760000D01*
X90240000Y-114760000D01*
X90530839Y-114702148D01*
X90777401Y-114537401D01*
X100063059Y-105251742D01*
X100062758Y-105596661D01*
X100274990Y-106110303D01*
X100667630Y-106503629D01*
X101180900Y-106716757D01*
X101736661Y-106717242D01*
X102250303Y-106505010D01*
X102643629Y-106112370D01*
X102729949Y-105904487D01*
X102814990Y-106110303D01*
X103207630Y-106503629D01*
X103720900Y-106716757D01*
X104276661Y-106717242D01*
X104790303Y-106505010D01*
X105183629Y-106112370D01*
X105197070Y-106080000D01*
X111005198Y-106080000D01*
X116615816Y-111690618D01*
X116603243Y-111720900D01*
X116602758Y-112276661D01*
X116814990Y-112790303D01*
X117024342Y-113000021D01*
X116816371Y-113207630D01*
X116603243Y-113720900D01*
X116602758Y-114276661D01*
X116814990Y-114790303D01*
X117207630Y-115183629D01*
X117720900Y-115396757D01*
X118276661Y-115397242D01*
X118790303Y-115185010D01*
X119183629Y-114792370D01*
X119396757Y-114279100D01*
X119397242Y-113723339D01*
X119397242Y-115873000D01*
X85127000Y-115873000D01*
X85127000Y-77127000D01*
X86897141Y-77127000D01*
X86816371Y-77207630D01*
X86603243Y-77720900D01*
X86602758Y-78276661D01*
X86814990Y-78790303D01*
X87207630Y-79183629D01*
X87473726Y-79294121D01*
X88000000Y-79820395D01*
X88526302Y-79294092D01*
X88790303Y-79185010D01*
X89183629Y-78792370D01*
X89396757Y-78279100D01*
X89397242Y-77723339D01*
X89185010Y-77209697D01*
X89102457Y-77127000D01*
X116897141Y-77127000D01*
X116816371Y-77207630D01*
X116603243Y-77720900D01*
X116602758Y-78276661D01*
X116814990Y-78790303D01*
X117207630Y-79183629D01*
X117473726Y-79294121D01*
X118000000Y-79820395D01*
X118526302Y-79294092D01*
X118790303Y-79185010D01*
X119183629Y-78792370D01*
X119396757Y-78279100D01*
X119397242Y-77723339D01*
X119185010Y-77209697D01*
X119102457Y-77127000D01*
X119876215Y-77127000D01*
X120869702Y-115873000D01*
X120869702Y-115873000D01*
G37*
X120869702Y-115873000D02*
X119409144Y-115873000D01*
X119409144Y-110207698D01*
X119409144Y-80207698D01*
X119381362Y-79652632D01*
X119222397Y-79268857D01*
X118980213Y-79199392D01*
X118179605Y-80000000D01*
X118980213Y-80800608D01*
X119222397Y-80731143D01*
X119409144Y-80207698D01*
X119409144Y-110207698D01*
X119397242Y-109969903D01*
X119397242Y-107723339D01*
X119397242Y-83723339D01*
X119185010Y-83209697D01*
X118975657Y-82999978D01*
X119183629Y-82792370D01*
X119396757Y-82279100D01*
X119397242Y-81723339D01*
X119185010Y-81209697D01*
X118792370Y-80816371D01*
X118526273Y-80705878D01*
X118000000Y-80179605D01*
X117820395Y-80359209D01*
X117820395Y-80000000D01*
X117019787Y-79199392D01*
X116777603Y-79268857D01*
X116590856Y-79792302D01*
X116618638Y-80347368D01*
X116777603Y-80731143D01*
X117019787Y-80800608D01*
X117820395Y-80000000D01*
X117820395Y-80359209D01*
X117473697Y-80705907D01*
X117209697Y-80814990D01*
X116816371Y-81207630D01*
X116603243Y-81720900D01*
X116602758Y-82276661D01*
X116814990Y-82790303D01*
X117024342Y-83000021D01*
X116816371Y-83207630D01*
X116802929Y-83240000D01*
X112620000Y-83240000D01*
X112329161Y-83297852D01*
X112082599Y-83462599D01*
X105401915Y-90143282D01*
X105397242Y-90049915D01*
X105397242Y-87263339D01*
X105185010Y-86749697D01*
X104792370Y-86356371D01*
X104279100Y-86143243D01*
X103723339Y-86142758D01*
X103209697Y-86354990D01*
X102816371Y-86747630D01*
X102730050Y-86955512D01*
X102645010Y-86749697D01*
X102252370Y-86356371D01*
X101739100Y-86143243D01*
X101183339Y-86142758D01*
X100669697Y-86354990D01*
X100276371Y-86747630D01*
X100063243Y-87260900D01*
X100062758Y-87816661D01*
X100274990Y-88330303D01*
X100667630Y-88723629D01*
X100859727Y-88803394D01*
X100728857Y-88857603D01*
X100659392Y-89099787D01*
X101460000Y-89900395D01*
X102260608Y-89099787D01*
X102191143Y-88857603D01*
X102050682Y-88807491D01*
X102250303Y-88725010D01*
X102643629Y-88332370D01*
X102729949Y-88124487D01*
X102814990Y-88330303D01*
X103207630Y-88723629D01*
X103399727Y-88803394D01*
X103268857Y-88857603D01*
X103199392Y-89099787D01*
X104000000Y-89900395D01*
X104800608Y-89099787D01*
X104731143Y-88857603D01*
X104590682Y-88807491D01*
X104790303Y-88725010D01*
X105183629Y-88332370D01*
X105396757Y-87819100D01*
X105397242Y-87263339D01*
X105397242Y-90049915D01*
X105381362Y-89732632D01*
X105222397Y-89348857D01*
X104980213Y-89279392D01*
X104179605Y-90080000D01*
X104193747Y-90094142D01*
X104014142Y-90273747D01*
X104000000Y-90259605D01*
X103820395Y-90439210D01*
X103820395Y-90080000D01*
X103019787Y-89279392D01*
X102777603Y-89348857D01*
X102733547Y-89472344D01*
X102682397Y-89348857D01*
X102440213Y-89279392D01*
X101639605Y-90080000D01*
X102440213Y-90880608D01*
X102682397Y-90811143D01*
X102726452Y-90687655D01*
X102777603Y-90811143D01*
X103019787Y-90880608D01*
X103820395Y-90080000D01*
X103820395Y-90439210D01*
X103199392Y-91060213D01*
X103268857Y-91302397D01*
X103409317Y-91352508D01*
X103209697Y-91434990D01*
X102816371Y-91827630D01*
X102730050Y-92035512D01*
X102645010Y-91829697D01*
X102252370Y-91436371D01*
X102060272Y-91356605D01*
X102191143Y-91302397D01*
X102260608Y-91060213D01*
X101460000Y-90259605D01*
X101280395Y-90439210D01*
X101280395Y-90080000D01*
X100479787Y-89279392D01*
X100237603Y-89348857D01*
X100050856Y-89872302D01*
X100078638Y-90427368D01*
X100237603Y-90811143D01*
X100479787Y-90880608D01*
X101280395Y-90080000D01*
X101280395Y-90439210D01*
X100659392Y-91060213D01*
X100728857Y-91302397D01*
X100869317Y-91352508D01*
X100669697Y-91434990D01*
X100276371Y-91827630D01*
X100063243Y-92340900D01*
X100062758Y-92896661D01*
X100274990Y-93410303D01*
X100667630Y-93803629D01*
X100875512Y-93889949D01*
X100669697Y-93974990D01*
X100276371Y-94367630D01*
X100063243Y-94880900D01*
X100062758Y-95436661D01*
X100274990Y-95950303D01*
X100667630Y-96343629D01*
X100875512Y-96429949D01*
X100669697Y-96514990D01*
X100276371Y-96907630D01*
X100063243Y-97420900D01*
X100062758Y-97976661D01*
X100274990Y-98490303D01*
X100667630Y-98883629D01*
X100859727Y-98963394D01*
X100728857Y-99017603D01*
X100659392Y-99259787D01*
X101460000Y-100060395D01*
X102260608Y-99259787D01*
X102191143Y-99017603D01*
X102050682Y-98967491D01*
X102250303Y-98885010D01*
X102643629Y-98492370D01*
X102729949Y-98284487D01*
X102814990Y-98490303D01*
X103207630Y-98883629D01*
X103399727Y-98963394D01*
X103268857Y-99017603D01*
X103199392Y-99259787D01*
X104000000Y-100060395D01*
X104800608Y-99259787D01*
X104731143Y-99017603D01*
X104590682Y-98967491D01*
X104790303Y-98885010D01*
X105183629Y-98492370D01*
X105396757Y-97979100D01*
X105397242Y-97423339D01*
X105185010Y-96909697D01*
X104792370Y-96516371D01*
X104584487Y-96430050D01*
X104790303Y-96345010D01*
X105183629Y-95952370D01*
X105396757Y-95439100D01*
X105397242Y-94883339D01*
X105185010Y-94369697D01*
X104792370Y-93976371D01*
X104584487Y-93890050D01*
X104790303Y-93805010D01*
X105183629Y-93412370D01*
X105396757Y-92899100D01*
X105397242Y-92343339D01*
X105383857Y-92310944D01*
X112934802Y-84760000D01*
X116802469Y-84760000D01*
X116814990Y-84790303D01*
X117207630Y-85183629D01*
X117720900Y-85396757D01*
X118276661Y-85397242D01*
X118790303Y-85185010D01*
X119183629Y-84792370D01*
X119396757Y-84279100D01*
X119397242Y-83723339D01*
X119397242Y-107723339D01*
X119185010Y-107209697D01*
X118792370Y-106816371D01*
X118279100Y-106603243D01*
X117723339Y-106602758D01*
X117209697Y-106814990D01*
X116816371Y-107207630D01*
X116603243Y-107720900D01*
X116602758Y-108276661D01*
X116814990Y-108790303D01*
X117207630Y-109183629D01*
X117473726Y-109294121D01*
X118000000Y-109820395D01*
X118526302Y-109294092D01*
X118790303Y-109185010D01*
X119183629Y-108792370D01*
X119396757Y-108279100D01*
X119397242Y-107723339D01*
X119397242Y-109969903D01*
X119381362Y-109652632D01*
X119222397Y-109268857D01*
X118980213Y-109199392D01*
X118179605Y-110000000D01*
X118980213Y-110800608D01*
X119222397Y-110731143D01*
X119409144Y-110207698D01*
X119409144Y-115873000D01*
X119397242Y-115873000D01*
X119397242Y-113723339D01*
X119185010Y-113209697D01*
X118975657Y-112999978D01*
X119183629Y-112792370D01*
X119396757Y-112279100D01*
X119397242Y-111723339D01*
X119185010Y-111209697D01*
X118792370Y-110816371D01*
X118526273Y-110705878D01*
X118000000Y-110179605D01*
X117985857Y-110193747D01*
X117806252Y-110014142D01*
X117820395Y-110000000D01*
X117019787Y-109199392D01*
X116777603Y-109268857D01*
X116663496Y-109588694D01*
X111857401Y-104782599D01*
X111610839Y-104617852D01*
X111320000Y-104560000D01*
X105409144Y-104560000D01*
X105409144Y-100447698D01*
X105381362Y-99892632D01*
X105222397Y-99508857D01*
X104980213Y-99439392D01*
X104179605Y-100240000D01*
X104980213Y-101040608D01*
X105222397Y-100971143D01*
X105409144Y-100447698D01*
X105409144Y-104560000D01*
X105197530Y-104560000D01*
X105185010Y-104529697D01*
X104792370Y-104136371D01*
X104584487Y-104050050D01*
X104790303Y-103965010D01*
X105183629Y-103572370D01*
X105396757Y-103059100D01*
X105397242Y-102503339D01*
X105185010Y-101989697D01*
X104792370Y-101596371D01*
X104600272Y-101516605D01*
X104731143Y-101462397D01*
X104800608Y-101220213D01*
X104000000Y-100419605D01*
X103820395Y-100599210D01*
X103820395Y-100240000D01*
X103019787Y-99439392D01*
X102777603Y-99508857D01*
X102733547Y-99632344D01*
X102682397Y-99508857D01*
X102440213Y-99439392D01*
X101639605Y-100240000D01*
X102440213Y-101040608D01*
X102682397Y-100971143D01*
X102726452Y-100847655D01*
X102777603Y-100971143D01*
X103019787Y-101040608D01*
X103820395Y-100240000D01*
X103820395Y-100599210D01*
X103199392Y-101220213D01*
X103268857Y-101462397D01*
X103409317Y-101512508D01*
X103209697Y-101594990D01*
X102816371Y-101987630D01*
X102730050Y-102195512D01*
X102645010Y-101989697D01*
X102252370Y-101596371D01*
X102060272Y-101516605D01*
X102191143Y-101462397D01*
X102260608Y-101220213D01*
X101460000Y-100419605D01*
X101280395Y-100599210D01*
X101280395Y-100240000D01*
X100479787Y-99439392D01*
X100237603Y-99508857D01*
X100050856Y-100032302D01*
X100078638Y-100587368D01*
X100237603Y-100971143D01*
X100479787Y-101040608D01*
X101280395Y-100240000D01*
X101280395Y-100599210D01*
X100659392Y-101220213D01*
X100728857Y-101462397D01*
X100869317Y-101512508D01*
X100669697Y-101594990D01*
X100276371Y-101987630D01*
X100063243Y-102500900D01*
X100062758Y-103056661D01*
X100076142Y-103089055D01*
X89925198Y-113240000D01*
X89409144Y-113240000D01*
X89409144Y-110207698D01*
X89409144Y-80207698D01*
X89381362Y-79652632D01*
X89222397Y-79268857D01*
X88980213Y-79199392D01*
X88179605Y-80000000D01*
X88980213Y-80800608D01*
X89222397Y-80731143D01*
X89409144Y-80207698D01*
X89409144Y-110207698D01*
X89397242Y-109969903D01*
X89397242Y-107723339D01*
X89397242Y-83723339D01*
X89185010Y-83209697D01*
X88975657Y-82999978D01*
X89183629Y-82792370D01*
X89396757Y-82279100D01*
X89397242Y-81723339D01*
X89185010Y-81209697D01*
X88792370Y-80816371D01*
X88526273Y-80705878D01*
X88000000Y-80179605D01*
X87820395Y-80359209D01*
X87820395Y-80000000D01*
X87019787Y-79199392D01*
X86777603Y-79268857D01*
X86590856Y-79792302D01*
X86618638Y-80347368D01*
X86777603Y-80731143D01*
X87019787Y-80800608D01*
X87820395Y-80000000D01*
X87820395Y-80359209D01*
X87473697Y-80705907D01*
X87209697Y-80814990D01*
X86816371Y-81207630D01*
X86603243Y-81720900D01*
X86602758Y-82276661D01*
X86814990Y-82790303D01*
X87024342Y-83000021D01*
X86816371Y-83207630D01*
X86603243Y-83720900D01*
X86602758Y-84276661D01*
X86814990Y-84790303D01*
X87207630Y-85183629D01*
X87720900Y-85396757D01*
X88276661Y-85397242D01*
X88790303Y-85185010D01*
X89183629Y-84792370D01*
X89396757Y-84279100D01*
X89397242Y-83723339D01*
X89397242Y-107723339D01*
X89185010Y-107209697D01*
X88792370Y-106816371D01*
X88279100Y-106603243D01*
X87723339Y-106602758D01*
X87209697Y-106814990D01*
X86816371Y-107207630D01*
X86603243Y-107720900D01*
X86602758Y-108276661D01*
X86814990Y-108790303D01*
X87207630Y-109183629D01*
X87473726Y-109294121D01*
X88000000Y-109820395D01*
X88526302Y-109294092D01*
X88790303Y-109185010D01*
X89183629Y-108792370D01*
X89396757Y-108279100D01*
X89397242Y-107723339D01*
X89397242Y-109969903D01*
X89381362Y-109652632D01*
X89222397Y-109268857D01*
X88980213Y-109199392D01*
X88179605Y-110000000D01*
X88980213Y-110800608D01*
X89222397Y-110731143D01*
X89409144Y-110207698D01*
X89409144Y-113240000D01*
X89197530Y-113240000D01*
X89185010Y-113209697D01*
X88975657Y-112999978D01*
X89183629Y-112792370D01*
X89396757Y-112279100D01*
X89397242Y-111723339D01*
X89185010Y-111209697D01*
X88792370Y-110816371D01*
X88526273Y-110705878D01*
X88000000Y-110179605D01*
X87820395Y-110359209D01*
X87820395Y-110000000D01*
X87019787Y-109199392D01*
X86777603Y-109268857D01*
X86590856Y-109792302D01*
X86618638Y-110347368D01*
X86777603Y-110731143D01*
X87019787Y-110800608D01*
X87820395Y-110000000D01*
X87820395Y-110359209D01*
X87473697Y-110705907D01*
X87209697Y-110814990D01*
X86816371Y-111207630D01*
X86603243Y-111720900D01*
X86602758Y-112276661D01*
X86814990Y-112790303D01*
X87024342Y-113000021D01*
X86816371Y-113207630D01*
X86603243Y-113720900D01*
X86602758Y-114276661D01*
X86814990Y-114790303D01*
X87207630Y-115183629D01*
X87720900Y-115396757D01*
X88276661Y-115397242D01*
X88790303Y-115185010D01*
X89183629Y-114792370D01*
X89197070Y-114760000D01*
X90240000Y-114760000D01*
X90530839Y-114702148D01*
X90777401Y-114537401D01*
X100063059Y-105251742D01*
X100062758Y-105596661D01*
X100274990Y-106110303D01*
X100667630Y-106503629D01*
X101180900Y-106716757D01*
X101736661Y-106717242D01*
X102250303Y-106505010D01*
X102643629Y-106112370D01*
X102729949Y-105904487D01*
X102814990Y-106110303D01*
X103207630Y-106503629D01*
X103720900Y-106716757D01*
X104276661Y-106717242D01*
X104790303Y-106505010D01*
X105183629Y-106112370D01*
X105197070Y-106080000D01*
X111005198Y-106080000D01*
X116615816Y-111690618D01*
X116603243Y-111720900D01*
X116602758Y-112276661D01*
X116814990Y-112790303D01*
X117024342Y-113000021D01*
X116816371Y-113207630D01*
X116603243Y-113720900D01*
X116602758Y-114276661D01*
X116814990Y-114790303D01*
X117207630Y-115183629D01*
X117720900Y-115396757D01*
X118276661Y-115397242D01*
X118790303Y-115185010D01*
X119183629Y-114792370D01*
X119396757Y-114279100D01*
X119397242Y-113723339D01*
X119397242Y-115873000D01*
X85127000Y-115873000D01*
X85127000Y-77127000D01*
X86897141Y-77127000D01*
X86816371Y-77207630D01*
X86603243Y-77720900D01*
X86602758Y-78276661D01*
X86814990Y-78790303D01*
X87207630Y-79183629D01*
X87473726Y-79294121D01*
X88000000Y-79820395D01*
X88526302Y-79294092D01*
X88790303Y-79185010D01*
X89183629Y-78792370D01*
X89396757Y-78279100D01*
X89397242Y-77723339D01*
X89185010Y-77209697D01*
X89102457Y-77127000D01*
X116897141Y-77127000D01*
X116816371Y-77207630D01*
X116603243Y-77720900D01*
X116602758Y-78276661D01*
X116814990Y-78790303D01*
X117207630Y-79183629D01*
X117473726Y-79294121D01*
X118000000Y-79820395D01*
X118526302Y-79294092D01*
X118790303Y-79185010D01*
X119183629Y-78792370D01*
X119396757Y-78279100D01*
X119397242Y-77723339D01*
X119185010Y-77209697D01*
X119102457Y-77127000D01*
X119876215Y-77127000D01*
X120869702Y-115873000D01*
M02*
