G04 #@! TF.FileFunction,Legend,Top*
%FSLAX46Y46*%
G04 Gerber Fmt 4.6, Leading zero omitted, Abs format (unit mm)*
G04 Created by KiCad (PCBNEW 4.0.1-3.201512221402+6198~38~ubuntu15.04.1-stable) date Mon 11 Jan 2016 14:02:37 CET*
%MOMM*%
G01*
G04 APERTURE LIST*
%ADD10C,0.100000*%
%ADD11C,0.150000*%
G04 APERTURE END LIST*
D10*
D11*
X93099020Y-81000000D02*
G75*
G03X93099020Y-81000000I-5099020J0D01*
G01*
X93099020Y-111000000D02*
G75*
G03X93099020Y-111000000I-5099020J0D01*
G01*
X123099020Y-81000000D02*
G75*
G03X123099020Y-81000000I-5099020J0D01*
G01*
X123099020Y-111000000D02*
G75*
G03X123099020Y-111000000I-5099020J0D01*
G01*
X98920000Y-85000000D02*
X98920000Y-107860000D01*
X98920000Y-107860000D02*
X106540000Y-107860000D01*
X106540000Y-107860000D02*
X106540000Y-85000000D01*
X106540000Y-85000000D02*
X98920000Y-85000000D01*
X88261905Y-87452381D02*
X88261905Y-86452381D01*
X88500000Y-86452381D01*
X88642858Y-86500000D01*
X88738096Y-86595238D01*
X88785715Y-86690476D01*
X88833334Y-86880952D01*
X88833334Y-87023810D01*
X88785715Y-87214286D01*
X88738096Y-87309524D01*
X88642858Y-87404762D01*
X88500000Y-87452381D01*
X88261905Y-87452381D01*
X89785715Y-87452381D02*
X89214286Y-87452381D01*
X89500000Y-87452381D02*
X89500000Y-86452381D01*
X89404762Y-86595238D01*
X89309524Y-86690476D01*
X89214286Y-86738095D01*
X88261905Y-117452381D02*
X88261905Y-116452381D01*
X88500000Y-116452381D01*
X88642858Y-116500000D01*
X88738096Y-116595238D01*
X88785715Y-116690476D01*
X88833334Y-116880952D01*
X88833334Y-117023810D01*
X88785715Y-117214286D01*
X88738096Y-117309524D01*
X88642858Y-117404762D01*
X88500000Y-117452381D01*
X88261905Y-117452381D01*
X89214286Y-116547619D02*
X89261905Y-116500000D01*
X89357143Y-116452381D01*
X89595239Y-116452381D01*
X89690477Y-116500000D01*
X89738096Y-116547619D01*
X89785715Y-116642857D01*
X89785715Y-116738095D01*
X89738096Y-116880952D01*
X89166667Y-117452381D01*
X89785715Y-117452381D01*
X118261905Y-87452381D02*
X118261905Y-86452381D01*
X118500000Y-86452381D01*
X118642858Y-86500000D01*
X118738096Y-86595238D01*
X118785715Y-86690476D01*
X118833334Y-86880952D01*
X118833334Y-87023810D01*
X118785715Y-87214286D01*
X118738096Y-87309524D01*
X118642858Y-87404762D01*
X118500000Y-87452381D01*
X118261905Y-87452381D01*
X119166667Y-86452381D02*
X119785715Y-86452381D01*
X119452381Y-86833333D01*
X119595239Y-86833333D01*
X119690477Y-86880952D01*
X119738096Y-86928571D01*
X119785715Y-87023810D01*
X119785715Y-87261905D01*
X119738096Y-87357143D01*
X119690477Y-87404762D01*
X119595239Y-87452381D01*
X119309524Y-87452381D01*
X119214286Y-87404762D01*
X119166667Y-87357143D01*
X118261905Y-117452381D02*
X118261905Y-116452381D01*
X118500000Y-116452381D01*
X118642858Y-116500000D01*
X118738096Y-116595238D01*
X118785715Y-116690476D01*
X118833334Y-116880952D01*
X118833334Y-117023810D01*
X118785715Y-117214286D01*
X118738096Y-117309524D01*
X118642858Y-117404762D01*
X118500000Y-117452381D01*
X118261905Y-117452381D01*
X119690477Y-116785714D02*
X119690477Y-117452381D01*
X119452381Y-116404762D02*
X119214286Y-117119048D01*
X119833334Y-117119048D01*
X102261905Y-82452381D02*
X102261905Y-81452381D01*
X102642858Y-81452381D01*
X102738096Y-81500000D01*
X102785715Y-81547619D01*
X102833334Y-81642857D01*
X102833334Y-81785714D01*
X102785715Y-81880952D01*
X102738096Y-81928571D01*
X102642858Y-81976190D01*
X102261905Y-81976190D01*
X103785715Y-82452381D02*
X103214286Y-82452381D01*
X103500000Y-82452381D02*
X103500000Y-81452381D01*
X103404762Y-81595238D01*
X103309524Y-81690476D01*
X103214286Y-81738095D01*
M02*
