G04 #@! TF.FileFunction,Copper,L1,Top,Signal*
%FSLAX46Y46*%
G04 Gerber Fmt 4.6, Leading zero omitted, Abs format (unit mm)*
G04 Created by KiCad (PCBNEW 4.0.1-3.201512221402+6198~38~ubuntu15.04.1-stable) date Mon 11 Jan 2016 13:06:15 CET*
%MOMM*%
G01*
G04 APERTURE LIST*
%ADD10C,0.100000*%
%ADD11R,2.540000X2.540000*%
%ADD12C,2.540000*%
%ADD13C,1.524000*%
%ADD14O,2.499360X4.500880*%
%ADD15C,1.998980*%
%ADD16C,0.600000*%
%ADD17C,0.250000*%
G04 APERTURE END LIST*
D10*
D11*
X40460000Y-106000000D03*
D12*
X45540000Y-106000000D03*
D11*
X40460000Y-87000000D03*
D12*
X45540000Y-87000000D03*
D13*
X107460000Y-70540000D03*
X110000000Y-70540000D03*
X107460000Y-73080000D03*
X110000000Y-73080000D03*
X107460000Y-75620000D03*
X110000000Y-75620000D03*
X107460000Y-78160000D03*
X110000000Y-78160000D03*
X107460000Y-80700000D03*
X110000000Y-80700000D03*
X107460000Y-83240000D03*
X110000000Y-83240000D03*
X107460000Y-85780000D03*
X110000000Y-85780000D03*
X107460000Y-88320000D03*
X110000000Y-88320000D03*
X107460000Y-94540000D03*
X110000000Y-94540000D03*
X107460000Y-97080000D03*
X110000000Y-97080000D03*
X107460000Y-99620000D03*
X110000000Y-99620000D03*
X107460000Y-102160000D03*
X110000000Y-102160000D03*
X107460000Y-104700000D03*
X110000000Y-104700000D03*
X107460000Y-107240000D03*
X110000000Y-107240000D03*
X107460000Y-109780000D03*
X110000000Y-109780000D03*
X107460000Y-112320000D03*
X110000000Y-112320000D03*
D11*
X45540000Y-98000000D03*
D12*
X40460000Y-98000000D03*
D14*
X82000000Y-122000000D03*
X76412000Y-122000000D03*
X87588000Y-122000000D03*
X108000000Y-122000000D03*
X102412000Y-122000000D03*
X113588000Y-122000000D03*
X136000000Y-122000000D03*
X130412000Y-122000000D03*
X141588000Y-122000000D03*
X77000000Y-66000000D03*
X82588000Y-66000000D03*
X71412000Y-66000000D03*
D15*
X38000000Y-127080000D03*
X38000000Y-116920000D03*
X42000000Y-127080000D03*
X42000000Y-116920000D03*
X46000000Y-127080000D03*
X46000000Y-116920000D03*
X144080000Y-130000000D03*
X133920000Y-130000000D03*
X118080000Y-128000000D03*
X107920000Y-128000000D03*
X61080000Y-124000000D03*
X50920000Y-124000000D03*
X61000000Y-64920000D03*
X61000000Y-75080000D03*
X100080000Y-70000000D03*
X89920000Y-70000000D03*
X100080000Y-75000000D03*
X89920000Y-75000000D03*
X87080000Y-78000000D03*
X76920000Y-78000000D03*
X100080000Y-81000000D03*
X89920000Y-81000000D03*
X100080000Y-85000000D03*
X89920000Y-85000000D03*
X87080000Y-88000000D03*
X76920000Y-88000000D03*
X100080000Y-94000000D03*
X89920000Y-94000000D03*
X100080000Y-98000000D03*
X89920000Y-98000000D03*
X87080000Y-102000000D03*
X76920000Y-102000000D03*
X100080000Y-105000000D03*
X89920000Y-105000000D03*
X100080000Y-109000000D03*
X89920000Y-109000000D03*
X87080000Y-113000000D03*
X76920000Y-113000000D03*
X128080000Y-70000000D03*
X117920000Y-70000000D03*
X128080000Y-75000000D03*
X117920000Y-75000000D03*
X141080000Y-78000000D03*
X130920000Y-78000000D03*
X128080000Y-81000000D03*
X117920000Y-81000000D03*
X128080000Y-85000000D03*
X117920000Y-85000000D03*
X141080000Y-87000000D03*
X130920000Y-87000000D03*
X128080000Y-94000000D03*
X117920000Y-94000000D03*
X128080000Y-98000000D03*
X117920000Y-98000000D03*
X141080000Y-101000000D03*
X130920000Y-101000000D03*
X128080000Y-105000000D03*
X117920000Y-105000000D03*
X128080000Y-110000000D03*
X117920000Y-110000000D03*
X141080000Y-113000000D03*
X130920000Y-113000000D03*
D13*
X53540000Y-78000000D03*
X53540000Y-80540000D03*
X53540000Y-83080000D03*
X53540000Y-85620000D03*
X53540000Y-88160000D03*
X53540000Y-90700000D03*
X53540000Y-93240000D03*
X53540000Y-95780000D03*
X53540000Y-98320000D03*
X53540000Y-100860000D03*
X53540000Y-103400000D03*
X53540000Y-105940000D03*
X53540000Y-108480000D03*
X53540000Y-111020000D03*
X53540000Y-113560000D03*
X53540000Y-116100000D03*
X53540000Y-118640000D03*
X68780000Y-118640000D03*
X68780000Y-116100000D03*
X68780000Y-113560000D03*
X68780000Y-111020000D03*
X68780000Y-108480000D03*
X68780000Y-105940000D03*
X68780000Y-103400000D03*
X68780000Y-100860000D03*
X68780000Y-98320000D03*
X68780000Y-95780000D03*
X68780000Y-93240000D03*
X68780000Y-90700000D03*
X68780000Y-88160000D03*
X68780000Y-85620000D03*
X68780000Y-83080000D03*
X68780000Y-80540000D03*
X68780000Y-78000000D03*
D16*
X114000000Y-66000000D03*
X73000000Y-84000000D03*
X73000000Y-97000000D03*
X73000000Y-107000000D03*
X145000000Y-79000000D03*
X145000000Y-89000000D03*
X145000000Y-101000000D03*
X101000000Y-129000000D03*
X129000000Y-130000000D03*
D17*
X100080000Y-70000000D02*
X106920000Y-70000000D01*
X106920000Y-70000000D02*
X107460000Y-70540000D01*
X117920000Y-70000000D02*
X110540000Y-70000000D01*
X110540000Y-70000000D02*
X110000000Y-70540000D01*
X110540000Y-70000000D02*
X110000000Y-70540000D01*
X114000000Y-66000000D02*
X82588000Y-66000000D01*
X100080000Y-75000000D02*
X106840000Y-75000000D01*
X106840000Y-75000000D02*
X107460000Y-75620000D01*
X107080000Y-76000000D02*
X107460000Y-75620000D01*
X117920000Y-75000000D02*
X110620000Y-75000000D01*
X110620000Y-75000000D02*
X110000000Y-75620000D01*
X116920000Y-75000000D02*
X110620000Y-75000000D01*
X110620000Y-75000000D02*
X110000000Y-75620000D01*
X87080000Y-78000000D02*
X107300000Y-78000000D01*
X107300000Y-78000000D02*
X107460000Y-78160000D01*
X110000000Y-78160000D02*
X130760000Y-78160000D01*
X130760000Y-78160000D02*
X130920000Y-78000000D01*
X100080000Y-81000000D02*
X107160000Y-81000000D01*
X107160000Y-81000000D02*
X107460000Y-80700000D01*
X117920000Y-81000000D02*
X110300000Y-81000000D01*
X110300000Y-81000000D02*
X110000000Y-80700000D01*
X100080000Y-85000000D02*
X106680000Y-85000000D01*
X106680000Y-85000000D02*
X107460000Y-85780000D01*
X107240000Y-86000000D02*
X107460000Y-85780000D01*
X117920000Y-85000000D02*
X110780000Y-85000000D01*
X110780000Y-85000000D02*
X110000000Y-85780000D01*
X87080000Y-88000000D02*
X107140000Y-88000000D01*
X107140000Y-88000000D02*
X107460000Y-88320000D01*
X130920000Y-87000000D02*
X111320000Y-87000000D01*
X111320000Y-87000000D02*
X110000000Y-88320000D01*
X100080000Y-94000000D02*
X106920000Y-94000000D01*
X106920000Y-94000000D02*
X107460000Y-94540000D01*
X117920000Y-94000000D02*
X110540000Y-94000000D01*
X110540000Y-94000000D02*
X110000000Y-94540000D01*
X100080000Y-98000000D02*
X105840000Y-98000000D01*
X105840000Y-98000000D02*
X107460000Y-99620000D01*
X117920000Y-98000000D02*
X111620000Y-98000000D01*
X111620000Y-98000000D02*
X110000000Y-99620000D01*
X87080000Y-102000000D02*
X107300000Y-102000000D01*
X107300000Y-102000000D02*
X107460000Y-102160000D01*
X130920000Y-101000000D02*
X111160000Y-101000000D01*
X111160000Y-101000000D02*
X110000000Y-102160000D01*
X100080000Y-105000000D02*
X107160000Y-105000000D01*
X107160000Y-105000000D02*
X107460000Y-104700000D01*
X117920000Y-105000000D02*
X110300000Y-105000000D01*
X110300000Y-105000000D02*
X110000000Y-104700000D01*
X100080000Y-109000000D02*
X106680000Y-109000000D01*
X106680000Y-109000000D02*
X107460000Y-109780000D01*
X117920000Y-110000000D02*
X110220000Y-110000000D01*
X110220000Y-110000000D02*
X110000000Y-109780000D01*
X87080000Y-113000000D02*
X106780000Y-113000000D01*
X106780000Y-113000000D02*
X107460000Y-112320000D01*
X110000000Y-112320000D02*
X130240000Y-112320000D01*
X130240000Y-112320000D02*
X130920000Y-113000000D01*
X45540000Y-98000000D02*
X53220000Y-98000000D01*
X53220000Y-98000000D02*
X53540000Y-98320000D01*
X50920000Y-124000000D02*
X49080000Y-124000000D01*
X49080000Y-124000000D02*
X46000000Y-127080000D01*
X46000000Y-127080000D02*
X76920000Y-127080000D01*
X76920000Y-127080000D02*
X82000000Y-122000000D01*
X128080000Y-70000000D02*
X136000000Y-70000000D01*
X145000000Y-79000000D02*
X145000000Y-89000000D01*
X145000000Y-89000000D02*
X145000000Y-101000000D01*
X136000000Y-70000000D02*
X145000000Y-79000000D01*
X124000000Y-67000000D02*
X125080000Y-67000000D01*
X125080000Y-67000000D02*
X128080000Y-70000000D01*
X89920000Y-70000000D02*
X92000000Y-70000000D01*
X95000000Y-67000000D02*
X124000000Y-67000000D01*
X124000000Y-67000000D02*
X124080000Y-67000000D01*
X92000000Y-70000000D02*
X95000000Y-67000000D01*
X87588000Y-122000000D02*
X87588000Y-118588000D01*
X78000000Y-70000000D02*
X89920000Y-70000000D01*
X73000000Y-75000000D02*
X78000000Y-70000000D01*
X73000000Y-115000000D02*
X73000000Y-107000000D01*
X73000000Y-107000000D02*
X73000000Y-97000000D01*
X73000000Y-97000000D02*
X73000000Y-84000000D01*
X73000000Y-84000000D02*
X73000000Y-75000000D01*
X75000000Y-117000000D02*
X73000000Y-115000000D01*
X86000000Y-117000000D02*
X75000000Y-117000000D01*
X87588000Y-118588000D02*
X86000000Y-117000000D01*
X101000000Y-129000000D02*
X106920000Y-129000000D01*
X106920000Y-129000000D02*
X107920000Y-128000000D01*
X42000000Y-127080000D02*
X42000000Y-128000000D01*
X42000000Y-128000000D02*
X43000000Y-129000000D01*
X43000000Y-129000000D02*
X101000000Y-129000000D01*
X42000000Y-127080000D02*
X43080000Y-127080000D01*
X82000000Y-111000000D02*
X82000000Y-113000000D01*
X106588000Y-115000000D02*
X113588000Y-122000000D01*
X84000000Y-115000000D02*
X106588000Y-115000000D01*
X82000000Y-113000000D02*
X84000000Y-115000000D01*
X136000000Y-114000000D02*
X136000000Y-117000000D01*
X136000000Y-117000000D02*
X135000000Y-118000000D01*
X135000000Y-118000000D02*
X117588000Y-118000000D01*
X117588000Y-118000000D02*
X113588000Y-122000000D01*
X128080000Y-85000000D02*
X133000000Y-85000000D01*
X133000000Y-85000000D02*
X136000000Y-88000000D01*
X128080000Y-98000000D02*
X133000000Y-98000000D01*
X133000000Y-98000000D02*
X136000000Y-101000000D01*
X128080000Y-110000000D02*
X132000000Y-110000000D01*
X132000000Y-110000000D02*
X136000000Y-114000000D01*
X136000000Y-114000000D02*
X136000000Y-101000000D01*
X136000000Y-101000000D02*
X136000000Y-88000000D01*
X136000000Y-88000000D02*
X136000000Y-77000000D01*
X136000000Y-77000000D02*
X134000000Y-75000000D01*
X134000000Y-75000000D02*
X127080000Y-75000000D01*
X89920000Y-109000000D02*
X84000000Y-109000000D01*
X84000000Y-109000000D02*
X82000000Y-111000000D01*
X89920000Y-98000000D02*
X85000000Y-98000000D01*
X85000000Y-98000000D02*
X82000000Y-101000000D01*
X89920000Y-85000000D02*
X85000000Y-85000000D01*
X82000000Y-88000000D02*
X82000000Y-89000000D01*
X85000000Y-85000000D02*
X82000000Y-88000000D01*
X85000000Y-75000000D02*
X89920000Y-75000000D01*
X82000000Y-78000000D02*
X85000000Y-75000000D01*
X82000000Y-111000000D02*
X82000000Y-101000000D01*
X82000000Y-101000000D02*
X82000000Y-89000000D01*
X82000000Y-89000000D02*
X82000000Y-78000000D01*
X114588000Y-123000000D02*
X114588000Y-122588000D01*
X129000000Y-130000000D02*
X133920000Y-130000000D01*
X38000000Y-127080000D02*
X38000000Y-128000000D01*
X38000000Y-128000000D02*
X40000000Y-130000000D01*
X40000000Y-130000000D02*
X129000000Y-130000000D01*
X141080000Y-113000000D02*
X141080000Y-114080000D01*
X141080000Y-114080000D02*
X143000000Y-116000000D01*
X141588000Y-122000000D02*
X141588000Y-121412000D01*
X141588000Y-121412000D02*
X143000000Y-120000000D01*
X143000000Y-116000000D02*
X143000000Y-106000000D01*
X143000000Y-120000000D02*
X143000000Y-116000000D01*
X79000000Y-116000000D02*
X89000000Y-116000000D01*
X137588000Y-126000000D02*
X141588000Y-122000000D01*
X99000000Y-126000000D02*
X137588000Y-126000000D01*
X89000000Y-116000000D02*
X99000000Y-126000000D01*
X141588000Y-123000000D02*
X141588000Y-121588000D01*
X141080000Y-101000000D02*
X141080000Y-104080000D01*
X141080000Y-104080000D02*
X143000000Y-106000000D01*
X141080000Y-87000000D02*
X141080000Y-89080000D01*
X141080000Y-89080000D02*
X143000000Y-91000000D01*
X143000000Y-79920000D02*
X141080000Y-78000000D01*
X143000000Y-106000000D02*
X143000000Y-91000000D01*
X143000000Y-91000000D02*
X143000000Y-79920000D01*
X76920000Y-113000000D02*
X76920000Y-113920000D01*
X76920000Y-113920000D02*
X79000000Y-116000000D01*
X75000000Y-104000000D02*
X75000000Y-103920000D01*
X75000000Y-103920000D02*
X76920000Y-102000000D01*
X75000000Y-90000000D02*
X75000000Y-89920000D01*
X75000000Y-89920000D02*
X76920000Y-88000000D01*
X75000000Y-79920000D02*
X76920000Y-78000000D01*
X75000000Y-115000000D02*
X75000000Y-104000000D01*
X75000000Y-104000000D02*
X75000000Y-90000000D01*
X75000000Y-90000000D02*
X75000000Y-79920000D01*
X76000000Y-116000000D02*
X75000000Y-115000000D01*
X79000000Y-116000000D02*
X76000000Y-116000000D01*
X76920000Y-88000000D02*
X76920000Y-88080000D01*
X61000000Y-64920000D02*
X61920000Y-64920000D01*
X61920000Y-64920000D02*
X67000000Y-70000000D01*
X67000000Y-70000000D02*
X73000000Y-70000000D01*
X73000000Y-70000000D02*
X77000000Y-66000000D01*
X38000000Y-116920000D02*
X38000000Y-116400000D01*
X38000000Y-116400000D02*
X53540000Y-100860000D01*
X42000000Y-116920000D02*
X42000000Y-115000000D01*
X45980000Y-111020000D02*
X53540000Y-111020000D01*
X42000000Y-115000000D02*
X45980000Y-111020000D01*
X46000000Y-116920000D02*
X46000000Y-116000000D01*
X46000000Y-116000000D02*
X48440000Y-113560000D01*
X48440000Y-113560000D02*
X53540000Y-113560000D01*
X61000000Y-75080000D02*
X61000000Y-95940000D01*
X61000000Y-95940000D02*
X53540000Y-103400000D01*
M02*
