G04 #@! TF.FileFunction,Copper,L2,Bot,Signal*
%FSLAX46Y46*%
G04 Gerber Fmt 4.6, Leading zero omitted, Abs format (unit mm)*
G04 Created by KiCad (PCBNEW 4.0.1-3.201512221402+6198~38~ubuntu15.04.1-stable) date Mon 11 Jan 2016 13:06:15 CET*
%MOMM*%
G01*
G04 APERTURE LIST*
%ADD10C,0.100000*%
%ADD11R,2.540000X2.540000*%
%ADD12C,2.540000*%
%ADD13C,1.524000*%
%ADD14O,2.499360X4.500880*%
%ADD15C,1.998980*%
%ADD16C,0.600000*%
%ADD17C,0.250000*%
%ADD18C,0.254000*%
G04 APERTURE END LIST*
D10*
D11*
X40460000Y-106000000D03*
D12*
X45540000Y-106000000D03*
D11*
X40460000Y-87000000D03*
D12*
X45540000Y-87000000D03*
D13*
X107460000Y-70540000D03*
X110000000Y-70540000D03*
X107460000Y-73080000D03*
X110000000Y-73080000D03*
X107460000Y-75620000D03*
X110000000Y-75620000D03*
X107460000Y-78160000D03*
X110000000Y-78160000D03*
X107460000Y-80700000D03*
X110000000Y-80700000D03*
X107460000Y-83240000D03*
X110000000Y-83240000D03*
X107460000Y-85780000D03*
X110000000Y-85780000D03*
X107460000Y-88320000D03*
X110000000Y-88320000D03*
X107460000Y-94540000D03*
X110000000Y-94540000D03*
X107460000Y-97080000D03*
X110000000Y-97080000D03*
X107460000Y-99620000D03*
X110000000Y-99620000D03*
X107460000Y-102160000D03*
X110000000Y-102160000D03*
X107460000Y-104700000D03*
X110000000Y-104700000D03*
X107460000Y-107240000D03*
X110000000Y-107240000D03*
X107460000Y-109780000D03*
X110000000Y-109780000D03*
X107460000Y-112320000D03*
X110000000Y-112320000D03*
D11*
X45540000Y-98000000D03*
D12*
X40460000Y-98000000D03*
D14*
X82000000Y-122000000D03*
X76412000Y-122000000D03*
X87588000Y-122000000D03*
X108000000Y-122000000D03*
X102412000Y-122000000D03*
X113588000Y-122000000D03*
X136000000Y-122000000D03*
X130412000Y-122000000D03*
X141588000Y-122000000D03*
X77000000Y-66000000D03*
X82588000Y-66000000D03*
X71412000Y-66000000D03*
D15*
X38000000Y-127080000D03*
X38000000Y-116920000D03*
X42000000Y-127080000D03*
X42000000Y-116920000D03*
X46000000Y-127080000D03*
X46000000Y-116920000D03*
X144080000Y-130000000D03*
X133920000Y-130000000D03*
X118080000Y-128000000D03*
X107920000Y-128000000D03*
X61080000Y-124000000D03*
X50920000Y-124000000D03*
X61000000Y-64920000D03*
X61000000Y-75080000D03*
X100080000Y-70000000D03*
X89920000Y-70000000D03*
X100080000Y-75000000D03*
X89920000Y-75000000D03*
X87080000Y-78000000D03*
X76920000Y-78000000D03*
X100080000Y-81000000D03*
X89920000Y-81000000D03*
X100080000Y-85000000D03*
X89920000Y-85000000D03*
X87080000Y-88000000D03*
X76920000Y-88000000D03*
X100080000Y-94000000D03*
X89920000Y-94000000D03*
X100080000Y-98000000D03*
X89920000Y-98000000D03*
X87080000Y-102000000D03*
X76920000Y-102000000D03*
X100080000Y-105000000D03*
X89920000Y-105000000D03*
X100080000Y-109000000D03*
X89920000Y-109000000D03*
X87080000Y-113000000D03*
X76920000Y-113000000D03*
X128080000Y-70000000D03*
X117920000Y-70000000D03*
X128080000Y-75000000D03*
X117920000Y-75000000D03*
X141080000Y-78000000D03*
X130920000Y-78000000D03*
X128080000Y-81000000D03*
X117920000Y-81000000D03*
X128080000Y-85000000D03*
X117920000Y-85000000D03*
X141080000Y-87000000D03*
X130920000Y-87000000D03*
X128080000Y-94000000D03*
X117920000Y-94000000D03*
X128080000Y-98000000D03*
X117920000Y-98000000D03*
X141080000Y-101000000D03*
X130920000Y-101000000D03*
X128080000Y-105000000D03*
X117920000Y-105000000D03*
X128080000Y-110000000D03*
X117920000Y-110000000D03*
X141080000Y-113000000D03*
X130920000Y-113000000D03*
D13*
X53540000Y-78000000D03*
X53540000Y-80540000D03*
X53540000Y-83080000D03*
X53540000Y-85620000D03*
X53540000Y-88160000D03*
X53540000Y-90700000D03*
X53540000Y-93240000D03*
X53540000Y-95780000D03*
X53540000Y-98320000D03*
X53540000Y-100860000D03*
X53540000Y-103400000D03*
X53540000Y-105940000D03*
X53540000Y-108480000D03*
X53540000Y-111020000D03*
X53540000Y-113560000D03*
X53540000Y-116100000D03*
X53540000Y-118640000D03*
X68780000Y-118640000D03*
X68780000Y-116100000D03*
X68780000Y-113560000D03*
X68780000Y-111020000D03*
X68780000Y-108480000D03*
X68780000Y-105940000D03*
X68780000Y-103400000D03*
X68780000Y-100860000D03*
X68780000Y-98320000D03*
X68780000Y-95780000D03*
X68780000Y-93240000D03*
X68780000Y-90700000D03*
X68780000Y-88160000D03*
X68780000Y-85620000D03*
X68780000Y-83080000D03*
X68780000Y-80540000D03*
X68780000Y-78000000D03*
D16*
X114000000Y-66000000D03*
X73000000Y-84000000D03*
X73000000Y-97000000D03*
X73000000Y-107000000D03*
X145000000Y-79000000D03*
X145000000Y-89000000D03*
X145000000Y-101000000D03*
X101000000Y-129000000D03*
X129000000Y-130000000D03*
D17*
X45540000Y-106000000D02*
X48000000Y-106000000D01*
X66420000Y-121000000D02*
X68780000Y-118640000D01*
X52000000Y-121000000D02*
X66420000Y-121000000D01*
X50000000Y-119000000D02*
X52000000Y-121000000D01*
X50000000Y-108000000D02*
X50000000Y-119000000D01*
X48000000Y-106000000D02*
X50000000Y-108000000D01*
X93000000Y-131000000D02*
X122000000Y-131000000D01*
X122000000Y-131000000D02*
X130412000Y-122588000D01*
X130412000Y-122588000D02*
X130412000Y-122000000D01*
X67000000Y-131000000D02*
X93000000Y-131000000D01*
X93000000Y-131000000D02*
X93412000Y-131000000D01*
X93412000Y-131000000D02*
X102412000Y-122000000D01*
X45540000Y-87000000D02*
X45540000Y-88460000D01*
X67412000Y-131000000D02*
X76412000Y-122000000D01*
X38000000Y-131000000D02*
X67000000Y-131000000D01*
X67000000Y-131000000D02*
X67412000Y-131000000D01*
X36000000Y-129000000D02*
X38000000Y-131000000D01*
X36000000Y-96000000D02*
X36000000Y-129000000D01*
X39000000Y-93000000D02*
X36000000Y-96000000D01*
X41000000Y-93000000D02*
X39000000Y-93000000D01*
X45540000Y-88460000D02*
X41000000Y-93000000D01*
X115588000Y-71000000D02*
X115588000Y-71412000D01*
X113920000Y-73080000D02*
X110000000Y-73080000D01*
X115588000Y-71412000D02*
X113920000Y-73080000D01*
X115588000Y-72000000D02*
X116000000Y-72000000D01*
X107460000Y-73080000D02*
X110000000Y-73080000D01*
X115588000Y-67492000D02*
X115492000Y-67492000D01*
X115588000Y-77652000D02*
X115588000Y-72000000D01*
X115588000Y-72000000D02*
X115588000Y-71000000D01*
X115588000Y-71000000D02*
X115588000Y-67492000D01*
X115492000Y-67492000D02*
X114000000Y-66000000D01*
X110000000Y-107240000D02*
X107460000Y-107240000D01*
X115588000Y-91000000D02*
X115588000Y-101652000D01*
X115588000Y-101652000D02*
X110000000Y-107240000D01*
X115588000Y-77652000D02*
X115588000Y-91000000D01*
X115588000Y-91000000D02*
X115588000Y-91492000D01*
X115588000Y-91492000D02*
X110000000Y-97080000D01*
X107460000Y-97080000D02*
X110000000Y-97080000D01*
X107460000Y-83240000D02*
X110000000Y-83240000D01*
X115588000Y-77652000D02*
X110000000Y-83240000D01*
X128080000Y-81000000D02*
X143000000Y-81000000D01*
X143000000Y-81000000D02*
X145000000Y-79000000D01*
X128080000Y-94000000D02*
X140000000Y-94000000D01*
X140000000Y-94000000D02*
X145000000Y-89000000D01*
X141000000Y-105000000D02*
X128080000Y-105000000D01*
X145000000Y-101000000D02*
X141000000Y-105000000D01*
X89920000Y-105000000D02*
X75000000Y-105000000D01*
X75000000Y-105000000D02*
X73000000Y-107000000D01*
X89920000Y-94000000D02*
X76000000Y-94000000D01*
X76000000Y-94000000D02*
X73000000Y-97000000D01*
X89920000Y-81000000D02*
X76000000Y-81000000D01*
X76000000Y-81000000D02*
X73000000Y-84000000D01*
X101000000Y-129000000D02*
X108000000Y-122000000D01*
X129000000Y-130000000D02*
X136000000Y-123000000D01*
X136000000Y-123000000D02*
X136000000Y-122000000D01*
D18*
G36*
X146873000Y-133873000D02*
X34127000Y-133873000D01*
X34127000Y-96000000D01*
X35240000Y-96000000D01*
X35240000Y-129000000D01*
X35297852Y-129290839D01*
X35462599Y-129537401D01*
X37462599Y-131537401D01*
X37709161Y-131702148D01*
X38000000Y-131760000D01*
X122000000Y-131760000D01*
X122290839Y-131702148D01*
X122537401Y-131537401D01*
X123889635Y-130185167D01*
X128064838Y-130185167D01*
X128206883Y-130528943D01*
X128469673Y-130792192D01*
X128813201Y-130934838D01*
X129185167Y-130935162D01*
X129528943Y-130793117D01*
X129792192Y-130530327D01*
X129877993Y-130323694D01*
X132285226Y-130323694D01*
X132533538Y-130924655D01*
X132992927Y-131384846D01*
X133593453Y-131634206D01*
X134243694Y-131634774D01*
X134844655Y-131386462D01*
X135079363Y-131152163D01*
X143107443Y-131152163D01*
X143206042Y-131418965D01*
X143815582Y-131645401D01*
X144465377Y-131621341D01*
X144953958Y-131418965D01*
X145052557Y-131152163D01*
X144080000Y-130179605D01*
X143107443Y-131152163D01*
X135079363Y-131152163D01*
X135304846Y-130927073D01*
X135554206Y-130326547D01*
X135554722Y-129735582D01*
X142434599Y-129735582D01*
X142458659Y-130385377D01*
X142661035Y-130873958D01*
X142927837Y-130972557D01*
X143900395Y-130000000D01*
X144259605Y-130000000D01*
X145232163Y-130972557D01*
X145498965Y-130873958D01*
X145725401Y-130264418D01*
X145701341Y-129614623D01*
X145498965Y-129126042D01*
X145232163Y-129027443D01*
X144259605Y-130000000D01*
X143900395Y-130000000D01*
X142927837Y-129027443D01*
X142661035Y-129126042D01*
X142434599Y-129735582D01*
X135554722Y-129735582D01*
X135554774Y-129676306D01*
X135306462Y-129075345D01*
X135079351Y-128847837D01*
X143107443Y-128847837D01*
X144080000Y-129820395D01*
X145052557Y-128847837D01*
X144953958Y-128581035D01*
X144344418Y-128354599D01*
X143694623Y-128378659D01*
X143206042Y-128581035D01*
X143107443Y-128847837D01*
X135079351Y-128847837D01*
X134847073Y-128615154D01*
X134246547Y-128365794D01*
X133596306Y-128365226D01*
X132995345Y-128613538D01*
X132535154Y-129072927D01*
X132285794Y-129673453D01*
X132285226Y-130323694D01*
X129877993Y-130323694D01*
X129934838Y-130186799D01*
X129934879Y-130139923D01*
X135277285Y-124797517D01*
X135278764Y-124798506D01*
X136000000Y-124941969D01*
X136721236Y-124798506D01*
X137332670Y-124389959D01*
X137741217Y-123778525D01*
X137884680Y-123057289D01*
X137884680Y-120942711D01*
X139703320Y-120942711D01*
X139703320Y-123057289D01*
X139846783Y-123778525D01*
X140255330Y-124389959D01*
X140866764Y-124798506D01*
X141588000Y-124941969D01*
X142309236Y-124798506D01*
X142920670Y-124389959D01*
X143329217Y-123778525D01*
X143472680Y-123057289D01*
X143472680Y-120942711D01*
X143329217Y-120221475D01*
X142920670Y-119610041D01*
X142309236Y-119201494D01*
X141588000Y-119058031D01*
X140866764Y-119201494D01*
X140255330Y-119610041D01*
X139846783Y-120221475D01*
X139703320Y-120942711D01*
X137884680Y-120942711D01*
X137741217Y-120221475D01*
X137332670Y-119610041D01*
X136721236Y-119201494D01*
X136000000Y-119058031D01*
X135278764Y-119201494D01*
X134667330Y-119610041D01*
X134258783Y-120221475D01*
X134115320Y-120942711D01*
X134115320Y-123057289D01*
X134240183Y-123685015D01*
X128860320Y-129064878D01*
X128814833Y-129064838D01*
X128471057Y-129206883D01*
X128207808Y-129469673D01*
X128065162Y-129813201D01*
X128064838Y-130185167D01*
X123889635Y-130185167D01*
X129442309Y-124632493D01*
X129690764Y-124798506D01*
X130412000Y-124941969D01*
X131133236Y-124798506D01*
X131744670Y-124389959D01*
X132153217Y-123778525D01*
X132296680Y-123057289D01*
X132296680Y-120942711D01*
X132153217Y-120221475D01*
X131744670Y-119610041D01*
X131133236Y-119201494D01*
X130412000Y-119058031D01*
X129690764Y-119201494D01*
X129079330Y-119610041D01*
X128670783Y-120221475D01*
X128527320Y-120942711D01*
X128527320Y-123057289D01*
X128583827Y-123341371D01*
X121685198Y-130240000D01*
X95246802Y-130240000D01*
X96301635Y-129185167D01*
X100064838Y-129185167D01*
X100206883Y-129528943D01*
X100469673Y-129792192D01*
X100813201Y-129934838D01*
X101185167Y-129935162D01*
X101528943Y-129793117D01*
X101792192Y-129530327D01*
X101934838Y-129186799D01*
X101934879Y-129139923D01*
X102751108Y-128323694D01*
X106285226Y-128323694D01*
X106533538Y-128924655D01*
X106992927Y-129384846D01*
X107593453Y-129634206D01*
X108243694Y-129634774D01*
X108844655Y-129386462D01*
X109079363Y-129152163D01*
X117107443Y-129152163D01*
X117206042Y-129418965D01*
X117815582Y-129645401D01*
X118465377Y-129621341D01*
X118953958Y-129418965D01*
X119052557Y-129152163D01*
X118080000Y-128179605D01*
X117107443Y-129152163D01*
X109079363Y-129152163D01*
X109304846Y-128927073D01*
X109554206Y-128326547D01*
X109554722Y-127735582D01*
X116434599Y-127735582D01*
X116458659Y-128385377D01*
X116661035Y-128873958D01*
X116927837Y-128972557D01*
X117900395Y-128000000D01*
X118259605Y-128000000D01*
X119232163Y-128972557D01*
X119498965Y-128873958D01*
X119725401Y-128264418D01*
X119701341Y-127614623D01*
X119498965Y-127126042D01*
X119232163Y-127027443D01*
X118259605Y-128000000D01*
X117900395Y-128000000D01*
X116927837Y-127027443D01*
X116661035Y-127126042D01*
X116434599Y-127735582D01*
X109554722Y-127735582D01*
X109554774Y-127676306D01*
X109306462Y-127075345D01*
X109079351Y-126847837D01*
X117107443Y-126847837D01*
X118080000Y-127820395D01*
X119052557Y-126847837D01*
X118953958Y-126581035D01*
X118344418Y-126354599D01*
X117694623Y-126378659D01*
X117206042Y-126581035D01*
X117107443Y-126847837D01*
X109079351Y-126847837D01*
X108847073Y-126615154D01*
X108246547Y-126365794D01*
X107596306Y-126365226D01*
X106995345Y-126613538D01*
X106535154Y-127072927D01*
X106285794Y-127673453D01*
X106285226Y-128323694D01*
X102751108Y-128323694D01*
X106677828Y-124396974D01*
X107278764Y-124798506D01*
X108000000Y-124941969D01*
X108721236Y-124798506D01*
X109332670Y-124389959D01*
X109741217Y-123778525D01*
X109884680Y-123057289D01*
X109884680Y-120942711D01*
X111703320Y-120942711D01*
X111703320Y-123057289D01*
X111846783Y-123778525D01*
X112255330Y-124389959D01*
X112866764Y-124798506D01*
X113588000Y-124941969D01*
X114309236Y-124798506D01*
X114920670Y-124389959D01*
X115329217Y-123778525D01*
X115472680Y-123057289D01*
X115472680Y-120942711D01*
X115329217Y-120221475D01*
X114920670Y-119610041D01*
X114309236Y-119201494D01*
X113588000Y-119058031D01*
X112866764Y-119201494D01*
X112255330Y-119610041D01*
X111846783Y-120221475D01*
X111703320Y-120942711D01*
X109884680Y-120942711D01*
X109741217Y-120221475D01*
X109332670Y-119610041D01*
X108721236Y-119201494D01*
X108000000Y-119058031D01*
X107278764Y-119201494D01*
X106667330Y-119610041D01*
X106258783Y-120221475D01*
X106115320Y-120942711D01*
X106115320Y-122809878D01*
X100860320Y-128064878D01*
X100814833Y-128064838D01*
X100471057Y-128206883D01*
X100207808Y-128469673D01*
X100065162Y-128813201D01*
X100064838Y-129185167D01*
X96301635Y-129185167D01*
X101089828Y-124396974D01*
X101690764Y-124798506D01*
X102412000Y-124941969D01*
X103133236Y-124798506D01*
X103744670Y-124389959D01*
X104153217Y-123778525D01*
X104296680Y-123057289D01*
X104296680Y-120942711D01*
X104153217Y-120221475D01*
X103744670Y-119610041D01*
X103133236Y-119201494D01*
X102412000Y-119058031D01*
X101690764Y-119201494D01*
X101079330Y-119610041D01*
X100670783Y-120221475D01*
X100527320Y-120942711D01*
X100527320Y-122809878D01*
X93097198Y-130240000D01*
X69246802Y-130240000D01*
X75089828Y-124396974D01*
X75690764Y-124798506D01*
X76412000Y-124941969D01*
X77133236Y-124798506D01*
X77744670Y-124389959D01*
X78153217Y-123778525D01*
X78296680Y-123057289D01*
X78296680Y-120942711D01*
X80115320Y-120942711D01*
X80115320Y-123057289D01*
X80258783Y-123778525D01*
X80667330Y-124389959D01*
X81278764Y-124798506D01*
X82000000Y-124941969D01*
X82721236Y-124798506D01*
X83332670Y-124389959D01*
X83741217Y-123778525D01*
X83884680Y-123057289D01*
X83884680Y-120942711D01*
X85703320Y-120942711D01*
X85703320Y-123057289D01*
X85846783Y-123778525D01*
X86255330Y-124389959D01*
X86866764Y-124798506D01*
X87588000Y-124941969D01*
X88309236Y-124798506D01*
X88920670Y-124389959D01*
X89329217Y-123778525D01*
X89472680Y-123057289D01*
X89472680Y-120942711D01*
X89329217Y-120221475D01*
X88920670Y-119610041D01*
X88309236Y-119201494D01*
X87588000Y-119058031D01*
X86866764Y-119201494D01*
X86255330Y-119610041D01*
X85846783Y-120221475D01*
X85703320Y-120942711D01*
X83884680Y-120942711D01*
X83741217Y-120221475D01*
X83332670Y-119610041D01*
X82721236Y-119201494D01*
X82000000Y-119058031D01*
X81278764Y-119201494D01*
X80667330Y-119610041D01*
X80258783Y-120221475D01*
X80115320Y-120942711D01*
X78296680Y-120942711D01*
X78153217Y-120221475D01*
X77744670Y-119610041D01*
X77133236Y-119201494D01*
X76412000Y-119058031D01*
X75690764Y-119201494D01*
X75079330Y-119610041D01*
X74670783Y-120221475D01*
X74527320Y-120942711D01*
X74527320Y-122809878D01*
X67097198Y-130240000D01*
X38314802Y-130240000D01*
X36760000Y-128685198D01*
X36760000Y-128151373D01*
X37072927Y-128464846D01*
X37673453Y-128714206D01*
X38323694Y-128714774D01*
X38924655Y-128466462D01*
X39384846Y-128007073D01*
X39634206Y-127406547D01*
X39634208Y-127403694D01*
X40365226Y-127403694D01*
X40613538Y-128004655D01*
X41072927Y-128464846D01*
X41673453Y-128714206D01*
X42323694Y-128714774D01*
X42924655Y-128466462D01*
X43384846Y-128007073D01*
X43634206Y-127406547D01*
X43634208Y-127403694D01*
X44365226Y-127403694D01*
X44613538Y-128004655D01*
X45072927Y-128464846D01*
X45673453Y-128714206D01*
X46323694Y-128714774D01*
X46924655Y-128466462D01*
X47384846Y-128007073D01*
X47634206Y-127406547D01*
X47634774Y-126756306D01*
X47386462Y-126155345D01*
X46927073Y-125695154D01*
X46326547Y-125445794D01*
X45676306Y-125445226D01*
X45075345Y-125693538D01*
X44615154Y-126152927D01*
X44365794Y-126753453D01*
X44365226Y-127403694D01*
X43634208Y-127403694D01*
X43634774Y-126756306D01*
X43386462Y-126155345D01*
X42927073Y-125695154D01*
X42326547Y-125445794D01*
X41676306Y-125445226D01*
X41075345Y-125693538D01*
X40615154Y-126152927D01*
X40365794Y-126753453D01*
X40365226Y-127403694D01*
X39634208Y-127403694D01*
X39634774Y-126756306D01*
X39386462Y-126155345D01*
X38927073Y-125695154D01*
X38326547Y-125445794D01*
X37676306Y-125445226D01*
X37075345Y-125693538D01*
X36760000Y-126008333D01*
X36760000Y-124323694D01*
X49285226Y-124323694D01*
X49533538Y-124924655D01*
X49992927Y-125384846D01*
X50593453Y-125634206D01*
X51243694Y-125634774D01*
X51844655Y-125386462D01*
X52079363Y-125152163D01*
X60107443Y-125152163D01*
X60206042Y-125418965D01*
X60815582Y-125645401D01*
X61465377Y-125621341D01*
X61953958Y-125418965D01*
X62052557Y-125152163D01*
X61080000Y-124179605D01*
X60107443Y-125152163D01*
X52079363Y-125152163D01*
X52304846Y-124927073D01*
X52554206Y-124326547D01*
X52554722Y-123735582D01*
X59434599Y-123735582D01*
X59458659Y-124385377D01*
X59661035Y-124873958D01*
X59927837Y-124972557D01*
X60900395Y-124000000D01*
X61259605Y-124000000D01*
X62232163Y-124972557D01*
X62498965Y-124873958D01*
X62725401Y-124264418D01*
X62701341Y-123614623D01*
X62498965Y-123126042D01*
X62232163Y-123027443D01*
X61259605Y-124000000D01*
X60900395Y-124000000D01*
X59927837Y-123027443D01*
X59661035Y-123126042D01*
X59434599Y-123735582D01*
X52554722Y-123735582D01*
X52554774Y-123676306D01*
X52306462Y-123075345D01*
X52079351Y-122847837D01*
X60107443Y-122847837D01*
X61080000Y-123820395D01*
X62052557Y-122847837D01*
X61953958Y-122581035D01*
X61344418Y-122354599D01*
X60694623Y-122378659D01*
X60206042Y-122581035D01*
X60107443Y-122847837D01*
X52079351Y-122847837D01*
X51847073Y-122615154D01*
X51246547Y-122365794D01*
X50596306Y-122365226D01*
X49995345Y-122613538D01*
X49535154Y-123072927D01*
X49285794Y-123673453D01*
X49285226Y-124323694D01*
X36760000Y-124323694D01*
X36760000Y-117991373D01*
X37072927Y-118304846D01*
X37673453Y-118554206D01*
X38323694Y-118554774D01*
X38924655Y-118306462D01*
X39384846Y-117847073D01*
X39634206Y-117246547D01*
X39634208Y-117243694D01*
X40365226Y-117243694D01*
X40613538Y-117844655D01*
X41072927Y-118304846D01*
X41673453Y-118554206D01*
X42323694Y-118554774D01*
X42924655Y-118306462D01*
X43384846Y-117847073D01*
X43634206Y-117246547D01*
X43634208Y-117243694D01*
X44365226Y-117243694D01*
X44613538Y-117844655D01*
X45072927Y-118304846D01*
X45673453Y-118554206D01*
X46323694Y-118554774D01*
X46924655Y-118306462D01*
X47384846Y-117847073D01*
X47634206Y-117246547D01*
X47634774Y-116596306D01*
X47386462Y-115995345D01*
X46927073Y-115535154D01*
X46326547Y-115285794D01*
X45676306Y-115285226D01*
X45075345Y-115533538D01*
X44615154Y-115992927D01*
X44365794Y-116593453D01*
X44365226Y-117243694D01*
X43634208Y-117243694D01*
X43634774Y-116596306D01*
X43386462Y-115995345D01*
X42927073Y-115535154D01*
X42326547Y-115285794D01*
X41676306Y-115285226D01*
X41075345Y-115533538D01*
X40615154Y-115992927D01*
X40365794Y-116593453D01*
X40365226Y-117243694D01*
X39634208Y-117243694D01*
X39634774Y-116596306D01*
X39386462Y-115995345D01*
X38927073Y-115535154D01*
X38326547Y-115285794D01*
X37676306Y-115285226D01*
X37075345Y-115533538D01*
X36760000Y-115848333D01*
X36760000Y-106285750D01*
X38555000Y-106285750D01*
X38555000Y-107396310D01*
X38651673Y-107629699D01*
X38830302Y-107808327D01*
X39063691Y-107905000D01*
X40174250Y-107905000D01*
X40333000Y-107746250D01*
X40333000Y-106127000D01*
X40587000Y-106127000D01*
X40587000Y-107746250D01*
X40745750Y-107905000D01*
X41856309Y-107905000D01*
X42089698Y-107808327D01*
X42268327Y-107629699D01*
X42365000Y-107396310D01*
X42365000Y-106377265D01*
X43634670Y-106377265D01*
X43924078Y-107077686D01*
X44459495Y-107614039D01*
X45159410Y-107904668D01*
X45917265Y-107905330D01*
X46617686Y-107615922D01*
X47154039Y-107080505D01*
X47287124Y-106760000D01*
X47685198Y-106760000D01*
X49240000Y-108314802D01*
X49240000Y-119000000D01*
X49297852Y-119290839D01*
X49462599Y-119537401D01*
X51462599Y-121537401D01*
X51709161Y-121702148D01*
X52000000Y-121760000D01*
X66420000Y-121760000D01*
X66710839Y-121702148D01*
X66957401Y-121537401D01*
X68470619Y-120024183D01*
X68500900Y-120036757D01*
X69056661Y-120037242D01*
X69570303Y-119825010D01*
X69963629Y-119432370D01*
X70176757Y-118919100D01*
X70177242Y-118363339D01*
X69965010Y-117849697D01*
X69572370Y-117456371D01*
X69364488Y-117370051D01*
X69570303Y-117285010D01*
X69963629Y-116892370D01*
X70176757Y-116379100D01*
X70177242Y-115823339D01*
X69965010Y-115309697D01*
X69572370Y-114916371D01*
X69364488Y-114830051D01*
X69570303Y-114745010D01*
X69963629Y-114352370D01*
X70176757Y-113839100D01*
X70177206Y-113323694D01*
X75285226Y-113323694D01*
X75533538Y-113924655D01*
X75992927Y-114384846D01*
X76593453Y-114634206D01*
X77243694Y-114634774D01*
X77844655Y-114386462D01*
X78304846Y-113927073D01*
X78554206Y-113326547D01*
X78554208Y-113323694D01*
X85445226Y-113323694D01*
X85693538Y-113924655D01*
X86152927Y-114384846D01*
X86753453Y-114634206D01*
X87403694Y-114634774D01*
X88004655Y-114386462D01*
X88464846Y-113927073D01*
X88714206Y-113326547D01*
X88714774Y-112676306D01*
X88466462Y-112075345D01*
X88007073Y-111615154D01*
X87406547Y-111365794D01*
X86756306Y-111365226D01*
X86155345Y-111613538D01*
X85695154Y-112072927D01*
X85445794Y-112673453D01*
X85445226Y-113323694D01*
X78554208Y-113323694D01*
X78554774Y-112676306D01*
X78306462Y-112075345D01*
X77847073Y-111615154D01*
X77246547Y-111365794D01*
X76596306Y-111365226D01*
X75995345Y-111613538D01*
X75535154Y-112072927D01*
X75285794Y-112673453D01*
X75285226Y-113323694D01*
X70177206Y-113323694D01*
X70177242Y-113283339D01*
X69965010Y-112769697D01*
X69572370Y-112376371D01*
X69364488Y-112290051D01*
X69570303Y-112205010D01*
X69963629Y-111812370D01*
X70176757Y-111299100D01*
X70177242Y-110743339D01*
X69965010Y-110229697D01*
X69572370Y-109836371D01*
X69364488Y-109750051D01*
X69570303Y-109665010D01*
X69912215Y-109323694D01*
X88285226Y-109323694D01*
X88533538Y-109924655D01*
X88992927Y-110384846D01*
X89593453Y-110634206D01*
X90243694Y-110634774D01*
X90844655Y-110386462D01*
X91304846Y-109927073D01*
X91554206Y-109326547D01*
X91554208Y-109323694D01*
X98445226Y-109323694D01*
X98693538Y-109924655D01*
X99152927Y-110384846D01*
X99753453Y-110634206D01*
X100403694Y-110634774D01*
X101004655Y-110386462D01*
X101464846Y-109927073D01*
X101714206Y-109326547D01*
X101714774Y-108676306D01*
X101466462Y-108075345D01*
X101007073Y-107615154D01*
X100406547Y-107365794D01*
X99756306Y-107365226D01*
X99155345Y-107613538D01*
X98695154Y-108072927D01*
X98445794Y-108673453D01*
X98445226Y-109323694D01*
X91554208Y-109323694D01*
X91554774Y-108676306D01*
X91306462Y-108075345D01*
X90847073Y-107615154D01*
X90246547Y-107365794D01*
X89596306Y-107365226D01*
X88995345Y-107613538D01*
X88535154Y-108072927D01*
X88285794Y-108673453D01*
X88285226Y-109323694D01*
X69912215Y-109323694D01*
X69963629Y-109272370D01*
X70176757Y-108759100D01*
X70177242Y-108203339D01*
X69965010Y-107689697D01*
X69572370Y-107296371D01*
X69364488Y-107210051D01*
X69424711Y-107185167D01*
X72064838Y-107185167D01*
X72206883Y-107528943D01*
X72469673Y-107792192D01*
X72813201Y-107934838D01*
X73185167Y-107935162D01*
X73528943Y-107793117D01*
X73792192Y-107530327D01*
X73934838Y-107186799D01*
X73934879Y-107139923D01*
X75314802Y-105760000D01*
X88465504Y-105760000D01*
X88533538Y-105924655D01*
X88992927Y-106384846D01*
X89593453Y-106634206D01*
X90243694Y-106634774D01*
X90844655Y-106386462D01*
X91304846Y-105927073D01*
X91554206Y-105326547D01*
X91554208Y-105323694D01*
X98445226Y-105323694D01*
X98693538Y-105924655D01*
X99152927Y-106384846D01*
X99753453Y-106634206D01*
X100403694Y-106634774D01*
X101004655Y-106386462D01*
X101464846Y-105927073D01*
X101714206Y-105326547D01*
X101714774Y-104676306D01*
X101466462Y-104075345D01*
X101007073Y-103615154D01*
X100406547Y-103365794D01*
X99756306Y-103365226D01*
X99155345Y-103613538D01*
X98695154Y-104072927D01*
X98445794Y-104673453D01*
X98445226Y-105323694D01*
X91554208Y-105323694D01*
X91554774Y-104676306D01*
X91306462Y-104075345D01*
X90847073Y-103615154D01*
X90246547Y-103365794D01*
X89596306Y-103365226D01*
X88995345Y-103613538D01*
X88535154Y-104072927D01*
X88465779Y-104240000D01*
X75000000Y-104240000D01*
X74709161Y-104297852D01*
X74462599Y-104462599D01*
X72860320Y-106064878D01*
X72814833Y-106064838D01*
X72471057Y-106206883D01*
X72207808Y-106469673D01*
X72065162Y-106813201D01*
X72064838Y-107185167D01*
X69424711Y-107185167D01*
X69570303Y-107125010D01*
X69963629Y-106732370D01*
X70176757Y-106219100D01*
X70177242Y-105663339D01*
X69965010Y-105149697D01*
X69572370Y-104756371D01*
X69364488Y-104670051D01*
X69570303Y-104585010D01*
X69963629Y-104192370D01*
X70176757Y-103679100D01*
X70177242Y-103123339D01*
X69965010Y-102609697D01*
X69679506Y-102323694D01*
X75285226Y-102323694D01*
X75533538Y-102924655D01*
X75992927Y-103384846D01*
X76593453Y-103634206D01*
X77243694Y-103634774D01*
X77844655Y-103386462D01*
X78304846Y-102927073D01*
X78554206Y-102326547D01*
X78554208Y-102323694D01*
X85445226Y-102323694D01*
X85693538Y-102924655D01*
X86152927Y-103384846D01*
X86753453Y-103634206D01*
X87403694Y-103634774D01*
X88004655Y-103386462D01*
X88464846Y-102927073D01*
X88714206Y-102326547D01*
X88714774Y-101676306D01*
X88466462Y-101075345D01*
X88007073Y-100615154D01*
X87406547Y-100365794D01*
X86756306Y-100365226D01*
X86155345Y-100613538D01*
X85695154Y-101072927D01*
X85445794Y-101673453D01*
X85445226Y-102323694D01*
X78554208Y-102323694D01*
X78554774Y-101676306D01*
X78306462Y-101075345D01*
X77847073Y-100615154D01*
X77246547Y-100365794D01*
X76596306Y-100365226D01*
X75995345Y-100613538D01*
X75535154Y-101072927D01*
X75285794Y-101673453D01*
X75285226Y-102323694D01*
X69679506Y-102323694D01*
X69572370Y-102216371D01*
X69364488Y-102130051D01*
X69570303Y-102045010D01*
X69963629Y-101652370D01*
X70176757Y-101139100D01*
X70177242Y-100583339D01*
X69965010Y-100069697D01*
X69572370Y-99676371D01*
X69364488Y-99590051D01*
X69570303Y-99505010D01*
X69963629Y-99112370D01*
X70176757Y-98599100D01*
X70176997Y-98323694D01*
X88285226Y-98323694D01*
X88533538Y-98924655D01*
X88992927Y-99384846D01*
X89593453Y-99634206D01*
X90243694Y-99634774D01*
X90844655Y-99386462D01*
X91304846Y-98927073D01*
X91554206Y-98326547D01*
X91554208Y-98323694D01*
X98445226Y-98323694D01*
X98693538Y-98924655D01*
X99152927Y-99384846D01*
X99753453Y-99634206D01*
X100403694Y-99634774D01*
X101004655Y-99386462D01*
X101464846Y-98927073D01*
X101714206Y-98326547D01*
X101714774Y-97676306D01*
X101466462Y-97075345D01*
X101007073Y-96615154D01*
X100406547Y-96365794D01*
X99756306Y-96365226D01*
X99155345Y-96613538D01*
X98695154Y-97072927D01*
X98445794Y-97673453D01*
X98445226Y-98323694D01*
X91554208Y-98323694D01*
X91554774Y-97676306D01*
X91306462Y-97075345D01*
X90847073Y-96615154D01*
X90246547Y-96365794D01*
X89596306Y-96365226D01*
X88995345Y-96613538D01*
X88535154Y-97072927D01*
X88285794Y-97673453D01*
X88285226Y-98323694D01*
X70176997Y-98323694D01*
X70177242Y-98043339D01*
X69965010Y-97529697D01*
X69621081Y-97185167D01*
X72064838Y-97185167D01*
X72206883Y-97528943D01*
X72469673Y-97792192D01*
X72813201Y-97934838D01*
X73185167Y-97935162D01*
X73528943Y-97793117D01*
X73792192Y-97530327D01*
X73934838Y-97186799D01*
X73934879Y-97139923D01*
X76314802Y-94760000D01*
X88465504Y-94760000D01*
X88533538Y-94924655D01*
X88992927Y-95384846D01*
X89593453Y-95634206D01*
X90243694Y-95634774D01*
X90844655Y-95386462D01*
X91304846Y-94927073D01*
X91554206Y-94326547D01*
X91554208Y-94323694D01*
X98445226Y-94323694D01*
X98693538Y-94924655D01*
X99152927Y-95384846D01*
X99753453Y-95634206D01*
X100403694Y-95634774D01*
X101004655Y-95386462D01*
X101464846Y-94927073D01*
X101714206Y-94326547D01*
X101714774Y-93676306D01*
X101466462Y-93075345D01*
X101007073Y-92615154D01*
X100406547Y-92365794D01*
X99756306Y-92365226D01*
X99155345Y-92613538D01*
X98695154Y-93072927D01*
X98445794Y-93673453D01*
X98445226Y-94323694D01*
X91554208Y-94323694D01*
X91554774Y-93676306D01*
X91306462Y-93075345D01*
X90847073Y-92615154D01*
X90246547Y-92365794D01*
X89596306Y-92365226D01*
X88995345Y-92613538D01*
X88535154Y-93072927D01*
X88465779Y-93240000D01*
X76000000Y-93240000D01*
X75709161Y-93297852D01*
X75462599Y-93462599D01*
X72860320Y-96064878D01*
X72814833Y-96064838D01*
X72471057Y-96206883D01*
X72207808Y-96469673D01*
X72065162Y-96813201D01*
X72064838Y-97185167D01*
X69621081Y-97185167D01*
X69572370Y-97136371D01*
X69364488Y-97050051D01*
X69570303Y-96965010D01*
X69963629Y-96572370D01*
X70176757Y-96059100D01*
X70177242Y-95503339D01*
X69965010Y-94989697D01*
X69572370Y-94596371D01*
X69364488Y-94510051D01*
X69570303Y-94425010D01*
X69963629Y-94032370D01*
X70176757Y-93519100D01*
X70177242Y-92963339D01*
X69965010Y-92449697D01*
X69572370Y-92056371D01*
X69380273Y-91976605D01*
X69511143Y-91922397D01*
X69580608Y-91680213D01*
X68780000Y-90879605D01*
X67979392Y-91680213D01*
X68048857Y-91922397D01*
X68189318Y-91972509D01*
X67989697Y-92054990D01*
X67596371Y-92447630D01*
X67383243Y-92960900D01*
X67382758Y-93516661D01*
X67594990Y-94030303D01*
X67987630Y-94423629D01*
X68195512Y-94509949D01*
X67989697Y-94594990D01*
X67596371Y-94987630D01*
X67383243Y-95500900D01*
X67382758Y-96056661D01*
X67594990Y-96570303D01*
X67987630Y-96963629D01*
X68195512Y-97049949D01*
X67989697Y-97134990D01*
X67596371Y-97527630D01*
X67383243Y-98040900D01*
X67382758Y-98596661D01*
X67594990Y-99110303D01*
X67987630Y-99503629D01*
X68195512Y-99589949D01*
X67989697Y-99674990D01*
X67596371Y-100067630D01*
X67383243Y-100580900D01*
X67382758Y-101136661D01*
X67594990Y-101650303D01*
X67987630Y-102043629D01*
X68195512Y-102129949D01*
X67989697Y-102214990D01*
X67596371Y-102607630D01*
X67383243Y-103120900D01*
X67382758Y-103676661D01*
X67594990Y-104190303D01*
X67987630Y-104583629D01*
X68195512Y-104669949D01*
X67989697Y-104754990D01*
X67596371Y-105147630D01*
X67383243Y-105660900D01*
X67382758Y-106216661D01*
X67594990Y-106730303D01*
X67987630Y-107123629D01*
X68195512Y-107209949D01*
X67989697Y-107294990D01*
X67596371Y-107687630D01*
X67383243Y-108200900D01*
X67382758Y-108756661D01*
X67594990Y-109270303D01*
X67987630Y-109663629D01*
X68195512Y-109749949D01*
X67989697Y-109834990D01*
X67596371Y-110227630D01*
X67383243Y-110740900D01*
X67382758Y-111296661D01*
X67594990Y-111810303D01*
X67987630Y-112203629D01*
X68195512Y-112289949D01*
X67989697Y-112374990D01*
X67596371Y-112767630D01*
X67383243Y-113280900D01*
X67382758Y-113836661D01*
X67594990Y-114350303D01*
X67987630Y-114743629D01*
X68195512Y-114829949D01*
X67989697Y-114914990D01*
X67596371Y-115307630D01*
X67383243Y-115820900D01*
X67382758Y-116376661D01*
X67594990Y-116890303D01*
X67987630Y-117283629D01*
X68195512Y-117369949D01*
X67989697Y-117454990D01*
X67596371Y-117847630D01*
X67383243Y-118360900D01*
X67382758Y-118916661D01*
X67396143Y-118949055D01*
X66105198Y-120240000D01*
X52314802Y-120240000D01*
X50760000Y-118685198D01*
X50760000Y-108000000D01*
X50702148Y-107709161D01*
X50537401Y-107462599D01*
X48537401Y-105462599D01*
X48290839Y-105297852D01*
X48000000Y-105240000D01*
X47287187Y-105240000D01*
X47155922Y-104922314D01*
X46620505Y-104385961D01*
X45920590Y-104095332D01*
X45162735Y-104094670D01*
X44462314Y-104384078D01*
X43925961Y-104919495D01*
X43635332Y-105619410D01*
X43634670Y-106377265D01*
X42365000Y-106377265D01*
X42365000Y-106285750D01*
X42206250Y-106127000D01*
X40587000Y-106127000D01*
X40333000Y-106127000D01*
X38713750Y-106127000D01*
X38555000Y-106285750D01*
X36760000Y-106285750D01*
X36760000Y-104603690D01*
X38555000Y-104603690D01*
X38555000Y-105714250D01*
X38713750Y-105873000D01*
X40333000Y-105873000D01*
X40333000Y-104253750D01*
X40587000Y-104253750D01*
X40587000Y-105873000D01*
X42206250Y-105873000D01*
X42365000Y-105714250D01*
X42365000Y-104603690D01*
X42268327Y-104370301D01*
X42089698Y-104191673D01*
X41856309Y-104095000D01*
X40745750Y-104095000D01*
X40587000Y-104253750D01*
X40333000Y-104253750D01*
X40174250Y-104095000D01*
X39063691Y-104095000D01*
X38830302Y-104191673D01*
X38651673Y-104370301D01*
X38555000Y-104603690D01*
X36760000Y-104603690D01*
X36760000Y-99347777D01*
X39291828Y-99347777D01*
X39423520Y-99642657D01*
X40131036Y-99914261D01*
X40888632Y-99894436D01*
X41496480Y-99642657D01*
X41628172Y-99347777D01*
X40460000Y-98179605D01*
X39291828Y-99347777D01*
X36760000Y-99347777D01*
X36760000Y-97671036D01*
X38545739Y-97671036D01*
X38565564Y-98428632D01*
X38817343Y-99036480D01*
X39112223Y-99168172D01*
X40280395Y-98000000D01*
X40639605Y-98000000D01*
X41807777Y-99168172D01*
X42102657Y-99036480D01*
X42374261Y-98328964D01*
X42354436Y-97571368D01*
X42102657Y-96963520D01*
X41807777Y-96831828D01*
X40639605Y-98000000D01*
X40280395Y-98000000D01*
X39112223Y-96831828D01*
X38817343Y-96963520D01*
X38545739Y-97671036D01*
X36760000Y-97671036D01*
X36760000Y-96652223D01*
X39291828Y-96652223D01*
X40460000Y-97820395D01*
X41550395Y-96730000D01*
X43622560Y-96730000D01*
X43622560Y-99270000D01*
X43666838Y-99505317D01*
X43805910Y-99721441D01*
X44018110Y-99866431D01*
X44270000Y-99917440D01*
X46810000Y-99917440D01*
X47045317Y-99873162D01*
X47261441Y-99734090D01*
X47406431Y-99521890D01*
X47457440Y-99270000D01*
X47457440Y-96730000D01*
X47413162Y-96494683D01*
X47274090Y-96278559D01*
X47061890Y-96133569D01*
X46810000Y-96082560D01*
X44270000Y-96082560D01*
X44034683Y-96126838D01*
X43818559Y-96265910D01*
X43673569Y-96478110D01*
X43622560Y-96730000D01*
X41550395Y-96730000D01*
X41628172Y-96652223D01*
X41496480Y-96357343D01*
X40788964Y-96085739D01*
X40031368Y-96105564D01*
X39423520Y-96357343D01*
X39291828Y-96652223D01*
X36760000Y-96652223D01*
X36760000Y-96314802D01*
X39314802Y-93760000D01*
X41000000Y-93760000D01*
X41290839Y-93702148D01*
X41537401Y-93537401D01*
X46077401Y-88997401D01*
X46223455Y-88778815D01*
X46617686Y-88615922D01*
X47154039Y-88080505D01*
X47444668Y-87380590D01*
X47445330Y-86622735D01*
X47155922Y-85922314D01*
X46620505Y-85385961D01*
X45920590Y-85095332D01*
X45162735Y-85094670D01*
X44462314Y-85384078D01*
X43925961Y-85919495D01*
X43635332Y-86619410D01*
X43634670Y-87377265D01*
X43924078Y-88077686D01*
X44385392Y-88539806D01*
X40685198Y-92240000D01*
X39000000Y-92240000D01*
X38709161Y-92297852D01*
X38462599Y-92462599D01*
X35462599Y-95462599D01*
X35297852Y-95709161D01*
X35240000Y-96000000D01*
X34127000Y-96000000D01*
X34127000Y-87285750D01*
X38555000Y-87285750D01*
X38555000Y-88396310D01*
X38651673Y-88629699D01*
X38830302Y-88808327D01*
X39063691Y-88905000D01*
X40174250Y-88905000D01*
X40333000Y-88746250D01*
X40333000Y-87127000D01*
X40587000Y-87127000D01*
X40587000Y-88746250D01*
X40745750Y-88905000D01*
X41856309Y-88905000D01*
X42089698Y-88808327D01*
X42268327Y-88629699D01*
X42365000Y-88396310D01*
X42365000Y-87285750D01*
X42206250Y-87127000D01*
X40587000Y-87127000D01*
X40333000Y-87127000D01*
X38713750Y-87127000D01*
X38555000Y-87285750D01*
X34127000Y-87285750D01*
X34127000Y-85603690D01*
X38555000Y-85603690D01*
X38555000Y-86714250D01*
X38713750Y-86873000D01*
X40333000Y-86873000D01*
X40333000Y-85253750D01*
X40587000Y-85253750D01*
X40587000Y-86873000D01*
X42206250Y-86873000D01*
X42365000Y-86714250D01*
X42365000Y-85603690D01*
X42268327Y-85370301D01*
X42089698Y-85191673D01*
X41856309Y-85095000D01*
X40745750Y-85095000D01*
X40587000Y-85253750D01*
X40333000Y-85253750D01*
X40174250Y-85095000D01*
X39063691Y-85095000D01*
X38830302Y-85191673D01*
X38651673Y-85370301D01*
X38555000Y-85603690D01*
X34127000Y-85603690D01*
X34127000Y-78276661D01*
X52142758Y-78276661D01*
X52354990Y-78790303D01*
X52747630Y-79183629D01*
X52955512Y-79269949D01*
X52749697Y-79354990D01*
X52356371Y-79747630D01*
X52143243Y-80260900D01*
X52142758Y-80816661D01*
X52354990Y-81330303D01*
X52747630Y-81723629D01*
X52955512Y-81809949D01*
X52749697Y-81894990D01*
X52356371Y-82287630D01*
X52143243Y-82800900D01*
X52142758Y-83356661D01*
X52354990Y-83870303D01*
X52747630Y-84263629D01*
X52955512Y-84349949D01*
X52749697Y-84434990D01*
X52356371Y-84827630D01*
X52143243Y-85340900D01*
X52142758Y-85896661D01*
X52354990Y-86410303D01*
X52747630Y-86803629D01*
X52955512Y-86889949D01*
X52749697Y-86974990D01*
X52356371Y-87367630D01*
X52143243Y-87880900D01*
X52142758Y-88436661D01*
X52354990Y-88950303D01*
X52747630Y-89343629D01*
X52955512Y-89429949D01*
X52749697Y-89514990D01*
X52356371Y-89907630D01*
X52143243Y-90420900D01*
X52142758Y-90976661D01*
X52354990Y-91490303D01*
X52747630Y-91883629D01*
X52955512Y-91969949D01*
X52749697Y-92054990D01*
X52356371Y-92447630D01*
X52143243Y-92960900D01*
X52142758Y-93516661D01*
X52354990Y-94030303D01*
X52747630Y-94423629D01*
X52955512Y-94509949D01*
X52749697Y-94594990D01*
X52356371Y-94987630D01*
X52143243Y-95500900D01*
X52142758Y-96056661D01*
X52354990Y-96570303D01*
X52747630Y-96963629D01*
X52955512Y-97049949D01*
X52749697Y-97134990D01*
X52356371Y-97527630D01*
X52143243Y-98040900D01*
X52142758Y-98596661D01*
X52354990Y-99110303D01*
X52747630Y-99503629D01*
X52955512Y-99589949D01*
X52749697Y-99674990D01*
X52356371Y-100067630D01*
X52143243Y-100580900D01*
X52142758Y-101136661D01*
X52354990Y-101650303D01*
X52747630Y-102043629D01*
X52955512Y-102129949D01*
X52749697Y-102214990D01*
X52356371Y-102607630D01*
X52143243Y-103120900D01*
X52142758Y-103676661D01*
X52354990Y-104190303D01*
X52747630Y-104583629D01*
X52955512Y-104669949D01*
X52749697Y-104754990D01*
X52356371Y-105147630D01*
X52143243Y-105660900D01*
X52142758Y-106216661D01*
X52354990Y-106730303D01*
X52747630Y-107123629D01*
X52955512Y-107209949D01*
X52749697Y-107294990D01*
X52356371Y-107687630D01*
X52143243Y-108200900D01*
X52142758Y-108756661D01*
X52354990Y-109270303D01*
X52747630Y-109663629D01*
X52955512Y-109749949D01*
X52749697Y-109834990D01*
X52356371Y-110227630D01*
X52143243Y-110740900D01*
X52142758Y-111296661D01*
X52354990Y-111810303D01*
X52747630Y-112203629D01*
X52955512Y-112289949D01*
X52749697Y-112374990D01*
X52356371Y-112767630D01*
X52143243Y-113280900D01*
X52142758Y-113836661D01*
X52354990Y-114350303D01*
X52747630Y-114743629D01*
X52955512Y-114829949D01*
X52749697Y-114914990D01*
X52356371Y-115307630D01*
X52143243Y-115820900D01*
X52142758Y-116376661D01*
X52354990Y-116890303D01*
X52747630Y-117283629D01*
X52955512Y-117369949D01*
X52749697Y-117454990D01*
X52356371Y-117847630D01*
X52143243Y-118360900D01*
X52142758Y-118916661D01*
X52354990Y-119430303D01*
X52747630Y-119823629D01*
X53260900Y-120036757D01*
X53816661Y-120037242D01*
X54330303Y-119825010D01*
X54723629Y-119432370D01*
X54936757Y-118919100D01*
X54937242Y-118363339D01*
X54725010Y-117849697D01*
X54332370Y-117456371D01*
X54124488Y-117370051D01*
X54330303Y-117285010D01*
X54723629Y-116892370D01*
X54936757Y-116379100D01*
X54937242Y-115823339D01*
X54725010Y-115309697D01*
X54332370Y-114916371D01*
X54124488Y-114830051D01*
X54330303Y-114745010D01*
X54723629Y-114352370D01*
X54936757Y-113839100D01*
X54937242Y-113283339D01*
X54725010Y-112769697D01*
X54332370Y-112376371D01*
X54124488Y-112290051D01*
X54330303Y-112205010D01*
X54723629Y-111812370D01*
X54936757Y-111299100D01*
X54937242Y-110743339D01*
X54725010Y-110229697D01*
X54332370Y-109836371D01*
X54124488Y-109750051D01*
X54330303Y-109665010D01*
X54723629Y-109272370D01*
X54936757Y-108759100D01*
X54937242Y-108203339D01*
X54725010Y-107689697D01*
X54332370Y-107296371D01*
X54124488Y-107210051D01*
X54330303Y-107125010D01*
X54723629Y-106732370D01*
X54936757Y-106219100D01*
X54937242Y-105663339D01*
X54725010Y-105149697D01*
X54332370Y-104756371D01*
X54124488Y-104670051D01*
X54330303Y-104585010D01*
X54723629Y-104192370D01*
X54936757Y-103679100D01*
X54937242Y-103123339D01*
X54725010Y-102609697D01*
X54332370Y-102216371D01*
X54124488Y-102130051D01*
X54330303Y-102045010D01*
X54723629Y-101652370D01*
X54936757Y-101139100D01*
X54937242Y-100583339D01*
X54725010Y-100069697D01*
X54332370Y-99676371D01*
X54124488Y-99590051D01*
X54330303Y-99505010D01*
X54723629Y-99112370D01*
X54936757Y-98599100D01*
X54937242Y-98043339D01*
X54725010Y-97529697D01*
X54332370Y-97136371D01*
X54124488Y-97050051D01*
X54330303Y-96965010D01*
X54723629Y-96572370D01*
X54936757Y-96059100D01*
X54937242Y-95503339D01*
X54725010Y-94989697D01*
X54332370Y-94596371D01*
X54124488Y-94510051D01*
X54330303Y-94425010D01*
X54723629Y-94032370D01*
X54936757Y-93519100D01*
X54937242Y-92963339D01*
X54725010Y-92449697D01*
X54332370Y-92056371D01*
X54124488Y-91970051D01*
X54330303Y-91885010D01*
X54723629Y-91492370D01*
X54936757Y-90979100D01*
X54937181Y-90492302D01*
X67370856Y-90492302D01*
X67398638Y-91047368D01*
X67557603Y-91431143D01*
X67799787Y-91500608D01*
X68600395Y-90700000D01*
X68959605Y-90700000D01*
X69760213Y-91500608D01*
X70002397Y-91431143D01*
X70189144Y-90907698D01*
X70161362Y-90352632D01*
X70002397Y-89968857D01*
X69760213Y-89899392D01*
X68959605Y-90700000D01*
X68600395Y-90700000D01*
X67799787Y-89899392D01*
X67557603Y-89968857D01*
X67370856Y-90492302D01*
X54937181Y-90492302D01*
X54937242Y-90423339D01*
X54725010Y-89909697D01*
X54332370Y-89516371D01*
X54124488Y-89430051D01*
X54330303Y-89345010D01*
X54723629Y-88952370D01*
X54936757Y-88439100D01*
X54937242Y-87883339D01*
X54725010Y-87369697D01*
X54332370Y-86976371D01*
X54124488Y-86890051D01*
X54330303Y-86805010D01*
X54723629Y-86412370D01*
X54936757Y-85899100D01*
X54937242Y-85343339D01*
X54725010Y-84829697D01*
X54332370Y-84436371D01*
X54124488Y-84350051D01*
X54330303Y-84265010D01*
X54723629Y-83872370D01*
X54936757Y-83359100D01*
X54937242Y-82803339D01*
X54725010Y-82289697D01*
X54332370Y-81896371D01*
X54124488Y-81810051D01*
X54330303Y-81725010D01*
X54723629Y-81332370D01*
X54936757Y-80819100D01*
X54937242Y-80263339D01*
X54725010Y-79749697D01*
X54332370Y-79356371D01*
X54124488Y-79270051D01*
X54330303Y-79185010D01*
X54723629Y-78792370D01*
X54936757Y-78279100D01*
X54936759Y-78276661D01*
X67382758Y-78276661D01*
X67594990Y-78790303D01*
X67987630Y-79183629D01*
X68195512Y-79269949D01*
X67989697Y-79354990D01*
X67596371Y-79747630D01*
X67383243Y-80260900D01*
X67382758Y-80816661D01*
X67594990Y-81330303D01*
X67987630Y-81723629D01*
X68195512Y-81809949D01*
X67989697Y-81894990D01*
X67596371Y-82287630D01*
X67383243Y-82800900D01*
X67382758Y-83356661D01*
X67594990Y-83870303D01*
X67987630Y-84263629D01*
X68195512Y-84349949D01*
X67989697Y-84434990D01*
X67596371Y-84827630D01*
X67383243Y-85340900D01*
X67382758Y-85896661D01*
X67594990Y-86410303D01*
X67987630Y-86803629D01*
X68195512Y-86889949D01*
X67989697Y-86974990D01*
X67596371Y-87367630D01*
X67383243Y-87880900D01*
X67382758Y-88436661D01*
X67594990Y-88950303D01*
X67987630Y-89343629D01*
X68179727Y-89423395D01*
X68048857Y-89477603D01*
X67979392Y-89719787D01*
X68780000Y-90520395D01*
X69580608Y-89719787D01*
X69511143Y-89477603D01*
X69370682Y-89427491D01*
X69570303Y-89345010D01*
X69963629Y-88952370D01*
X70176757Y-88439100D01*
X70176857Y-88323694D01*
X75285226Y-88323694D01*
X75533538Y-88924655D01*
X75992927Y-89384846D01*
X76593453Y-89634206D01*
X77243694Y-89634774D01*
X77844655Y-89386462D01*
X78304846Y-88927073D01*
X78554206Y-88326547D01*
X78554208Y-88323694D01*
X85445226Y-88323694D01*
X85693538Y-88924655D01*
X86152927Y-89384846D01*
X86753453Y-89634206D01*
X87403694Y-89634774D01*
X88004655Y-89386462D01*
X88464846Y-88927073D01*
X88714206Y-88326547D01*
X88714774Y-87676306D01*
X88466462Y-87075345D01*
X88007073Y-86615154D01*
X87406547Y-86365794D01*
X86756306Y-86365226D01*
X86155345Y-86613538D01*
X85695154Y-87072927D01*
X85445794Y-87673453D01*
X85445226Y-88323694D01*
X78554208Y-88323694D01*
X78554774Y-87676306D01*
X78306462Y-87075345D01*
X77847073Y-86615154D01*
X77246547Y-86365794D01*
X76596306Y-86365226D01*
X75995345Y-86613538D01*
X75535154Y-87072927D01*
X75285794Y-87673453D01*
X75285226Y-88323694D01*
X70176857Y-88323694D01*
X70177242Y-87883339D01*
X69965010Y-87369697D01*
X69572370Y-86976371D01*
X69364488Y-86890051D01*
X69570303Y-86805010D01*
X69963629Y-86412370D01*
X70176757Y-85899100D01*
X70177242Y-85343339D01*
X70169125Y-85323694D01*
X88285226Y-85323694D01*
X88533538Y-85924655D01*
X88992927Y-86384846D01*
X89593453Y-86634206D01*
X90243694Y-86634774D01*
X90844655Y-86386462D01*
X91304846Y-85927073D01*
X91554206Y-85326547D01*
X91554208Y-85323694D01*
X98445226Y-85323694D01*
X98693538Y-85924655D01*
X99152927Y-86384846D01*
X99753453Y-86634206D01*
X100403694Y-86634774D01*
X101004655Y-86386462D01*
X101464846Y-85927073D01*
X101714206Y-85326547D01*
X101714774Y-84676306D01*
X101466462Y-84075345D01*
X101007073Y-83615154D01*
X100406547Y-83365794D01*
X99756306Y-83365226D01*
X99155345Y-83613538D01*
X98695154Y-84072927D01*
X98445794Y-84673453D01*
X98445226Y-85323694D01*
X91554208Y-85323694D01*
X91554774Y-84676306D01*
X91306462Y-84075345D01*
X90847073Y-83615154D01*
X90246547Y-83365794D01*
X89596306Y-83365226D01*
X88995345Y-83613538D01*
X88535154Y-84072927D01*
X88285794Y-84673453D01*
X88285226Y-85323694D01*
X70169125Y-85323694D01*
X69965010Y-84829697D01*
X69572370Y-84436371D01*
X69364488Y-84350051D01*
X69570303Y-84265010D01*
X69650285Y-84185167D01*
X72064838Y-84185167D01*
X72206883Y-84528943D01*
X72469673Y-84792192D01*
X72813201Y-84934838D01*
X73185167Y-84935162D01*
X73528943Y-84793117D01*
X73792192Y-84530327D01*
X73934838Y-84186799D01*
X73934879Y-84139923D01*
X76314802Y-81760000D01*
X88465504Y-81760000D01*
X88533538Y-81924655D01*
X88992927Y-82384846D01*
X89593453Y-82634206D01*
X90243694Y-82634774D01*
X90844655Y-82386462D01*
X91304846Y-81927073D01*
X91554206Y-81326547D01*
X91554208Y-81323694D01*
X98445226Y-81323694D01*
X98693538Y-81924655D01*
X99152927Y-82384846D01*
X99753453Y-82634206D01*
X100403694Y-82634774D01*
X101004655Y-82386462D01*
X101464846Y-81927073D01*
X101714206Y-81326547D01*
X101714774Y-80676306D01*
X101466462Y-80075345D01*
X101007073Y-79615154D01*
X100406547Y-79365794D01*
X99756306Y-79365226D01*
X99155345Y-79613538D01*
X98695154Y-80072927D01*
X98445794Y-80673453D01*
X98445226Y-81323694D01*
X91554208Y-81323694D01*
X91554774Y-80676306D01*
X91306462Y-80075345D01*
X90847073Y-79615154D01*
X90246547Y-79365794D01*
X89596306Y-79365226D01*
X88995345Y-79613538D01*
X88535154Y-80072927D01*
X88465779Y-80240000D01*
X76000000Y-80240000D01*
X75709161Y-80297852D01*
X75462599Y-80462599D01*
X72860320Y-83064878D01*
X72814833Y-83064838D01*
X72471057Y-83206883D01*
X72207808Y-83469673D01*
X72065162Y-83813201D01*
X72064838Y-84185167D01*
X69650285Y-84185167D01*
X69963629Y-83872370D01*
X70176757Y-83359100D01*
X70177242Y-82803339D01*
X69965010Y-82289697D01*
X69572370Y-81896371D01*
X69364488Y-81810051D01*
X69570303Y-81725010D01*
X69963629Y-81332370D01*
X70176757Y-80819100D01*
X70177242Y-80263339D01*
X69965010Y-79749697D01*
X69572370Y-79356371D01*
X69364488Y-79270051D01*
X69570303Y-79185010D01*
X69963629Y-78792370D01*
X70158239Y-78323694D01*
X75285226Y-78323694D01*
X75533538Y-78924655D01*
X75992927Y-79384846D01*
X76593453Y-79634206D01*
X77243694Y-79634774D01*
X77844655Y-79386462D01*
X78304846Y-78927073D01*
X78554206Y-78326547D01*
X78554208Y-78323694D01*
X85445226Y-78323694D01*
X85693538Y-78924655D01*
X86152927Y-79384846D01*
X86753453Y-79634206D01*
X87403694Y-79634774D01*
X88004655Y-79386462D01*
X88464846Y-78927073D01*
X88714206Y-78326547D01*
X88714774Y-77676306D01*
X88466462Y-77075345D01*
X88007073Y-76615154D01*
X87406547Y-76365794D01*
X86756306Y-76365226D01*
X86155345Y-76613538D01*
X85695154Y-77072927D01*
X85445794Y-77673453D01*
X85445226Y-78323694D01*
X78554208Y-78323694D01*
X78554774Y-77676306D01*
X78306462Y-77075345D01*
X77847073Y-76615154D01*
X77246547Y-76365794D01*
X76596306Y-76365226D01*
X75995345Y-76613538D01*
X75535154Y-77072927D01*
X75285794Y-77673453D01*
X75285226Y-78323694D01*
X70158239Y-78323694D01*
X70176757Y-78279100D01*
X70177242Y-77723339D01*
X69965010Y-77209697D01*
X69572370Y-76816371D01*
X69059100Y-76603243D01*
X68503339Y-76602758D01*
X67989697Y-76814990D01*
X67596371Y-77207630D01*
X67383243Y-77720900D01*
X67382758Y-78276661D01*
X54936759Y-78276661D01*
X54937242Y-77723339D01*
X54725010Y-77209697D01*
X54332370Y-76816371D01*
X53819100Y-76603243D01*
X53263339Y-76602758D01*
X52749697Y-76814990D01*
X52356371Y-77207630D01*
X52143243Y-77720900D01*
X52142758Y-78276661D01*
X34127000Y-78276661D01*
X34127000Y-75403694D01*
X59365226Y-75403694D01*
X59613538Y-76004655D01*
X60072927Y-76464846D01*
X60673453Y-76714206D01*
X61323694Y-76714774D01*
X61924655Y-76466462D01*
X62384846Y-76007073D01*
X62634206Y-75406547D01*
X62634278Y-75323694D01*
X88285226Y-75323694D01*
X88533538Y-75924655D01*
X88992927Y-76384846D01*
X89593453Y-76634206D01*
X90243694Y-76634774D01*
X90844655Y-76386462D01*
X91304846Y-75927073D01*
X91554206Y-75326547D01*
X91554208Y-75323694D01*
X98445226Y-75323694D01*
X98693538Y-75924655D01*
X99152927Y-76384846D01*
X99753453Y-76634206D01*
X100403694Y-76634774D01*
X101004655Y-76386462D01*
X101464846Y-75927073D01*
X101714206Y-75326547D01*
X101714774Y-74676306D01*
X101466462Y-74075345D01*
X101007073Y-73615154D01*
X100406547Y-73365794D01*
X99756306Y-73365226D01*
X99155345Y-73613538D01*
X98695154Y-74072927D01*
X98445794Y-74673453D01*
X98445226Y-75323694D01*
X91554208Y-75323694D01*
X91554774Y-74676306D01*
X91306462Y-74075345D01*
X90847073Y-73615154D01*
X90246547Y-73365794D01*
X89596306Y-73365226D01*
X88995345Y-73613538D01*
X88535154Y-74072927D01*
X88285794Y-74673453D01*
X88285226Y-75323694D01*
X62634278Y-75323694D01*
X62634774Y-74756306D01*
X62386462Y-74155345D01*
X61927073Y-73695154D01*
X61326547Y-73445794D01*
X60676306Y-73445226D01*
X60075345Y-73693538D01*
X59615154Y-74152927D01*
X59365794Y-74753453D01*
X59365226Y-75403694D01*
X34127000Y-75403694D01*
X34127000Y-70323694D01*
X88285226Y-70323694D01*
X88533538Y-70924655D01*
X88992927Y-71384846D01*
X89593453Y-71634206D01*
X90243694Y-71634774D01*
X90844655Y-71386462D01*
X91304846Y-70927073D01*
X91554206Y-70326547D01*
X91554208Y-70323694D01*
X98445226Y-70323694D01*
X98693538Y-70924655D01*
X99152927Y-71384846D01*
X99753453Y-71634206D01*
X100403694Y-71634774D01*
X101004655Y-71386462D01*
X101464846Y-70927073D01*
X101510693Y-70816661D01*
X106062758Y-70816661D01*
X106274990Y-71330303D01*
X106667630Y-71723629D01*
X106875512Y-71809949D01*
X106669697Y-71894990D01*
X106276371Y-72287630D01*
X106063243Y-72800900D01*
X106062758Y-73356661D01*
X106274990Y-73870303D01*
X106667630Y-74263629D01*
X106875512Y-74349949D01*
X106669697Y-74434990D01*
X106276371Y-74827630D01*
X106063243Y-75340900D01*
X106062758Y-75896661D01*
X106274990Y-76410303D01*
X106667630Y-76803629D01*
X106875512Y-76889949D01*
X106669697Y-76974990D01*
X106276371Y-77367630D01*
X106063243Y-77880900D01*
X106062758Y-78436661D01*
X106274990Y-78950303D01*
X106667630Y-79343629D01*
X106875512Y-79429949D01*
X106669697Y-79514990D01*
X106276371Y-79907630D01*
X106063243Y-80420900D01*
X106062758Y-80976661D01*
X106274990Y-81490303D01*
X106667630Y-81883629D01*
X106875512Y-81969949D01*
X106669697Y-82054990D01*
X106276371Y-82447630D01*
X106063243Y-82960900D01*
X106062758Y-83516661D01*
X106274990Y-84030303D01*
X106667630Y-84423629D01*
X106875512Y-84509949D01*
X106669697Y-84594990D01*
X106276371Y-84987630D01*
X106063243Y-85500900D01*
X106062758Y-86056661D01*
X106274990Y-86570303D01*
X106667630Y-86963629D01*
X106875512Y-87049949D01*
X106669697Y-87134990D01*
X106276371Y-87527630D01*
X106063243Y-88040900D01*
X106062758Y-88596661D01*
X106274990Y-89110303D01*
X106667630Y-89503629D01*
X107180900Y-89716757D01*
X107736661Y-89717242D01*
X108250303Y-89505010D01*
X108643629Y-89112370D01*
X108729949Y-88904488D01*
X108814990Y-89110303D01*
X109207630Y-89503629D01*
X109720900Y-89716757D01*
X110276661Y-89717242D01*
X110790303Y-89505010D01*
X111183629Y-89112370D01*
X111396757Y-88599100D01*
X111397242Y-88043339D01*
X111185010Y-87529697D01*
X110792370Y-87136371D01*
X110584488Y-87050051D01*
X110790303Y-86965010D01*
X111183629Y-86572370D01*
X111396757Y-86059100D01*
X111397242Y-85503339D01*
X111185010Y-84989697D01*
X110792370Y-84596371D01*
X110584488Y-84510051D01*
X110790303Y-84425010D01*
X111183629Y-84032370D01*
X111396757Y-83519100D01*
X111397242Y-82963339D01*
X111383857Y-82930945D01*
X114828000Y-79486802D01*
X114828000Y-91177198D01*
X111396941Y-94608257D01*
X111397242Y-94263339D01*
X111185010Y-93749697D01*
X110792370Y-93356371D01*
X110279100Y-93143243D01*
X109723339Y-93142758D01*
X109209697Y-93354990D01*
X108816371Y-93747630D01*
X108730051Y-93955512D01*
X108645010Y-93749697D01*
X108252370Y-93356371D01*
X107739100Y-93143243D01*
X107183339Y-93142758D01*
X106669697Y-93354990D01*
X106276371Y-93747630D01*
X106063243Y-94260900D01*
X106062758Y-94816661D01*
X106274990Y-95330303D01*
X106667630Y-95723629D01*
X106875512Y-95809949D01*
X106669697Y-95894990D01*
X106276371Y-96287630D01*
X106063243Y-96800900D01*
X106062758Y-97356661D01*
X106274990Y-97870303D01*
X106667630Y-98263629D01*
X106875512Y-98349949D01*
X106669697Y-98434990D01*
X106276371Y-98827630D01*
X106063243Y-99340900D01*
X106062758Y-99896661D01*
X106274990Y-100410303D01*
X106667630Y-100803629D01*
X106875512Y-100889949D01*
X106669697Y-100974990D01*
X106276371Y-101367630D01*
X106063243Y-101880900D01*
X106062758Y-102436661D01*
X106274990Y-102950303D01*
X106667630Y-103343629D01*
X106875512Y-103429949D01*
X106669697Y-103514990D01*
X106276371Y-103907630D01*
X106063243Y-104420900D01*
X106062758Y-104976661D01*
X106274990Y-105490303D01*
X106667630Y-105883629D01*
X106875512Y-105969949D01*
X106669697Y-106054990D01*
X106276371Y-106447630D01*
X106063243Y-106960900D01*
X106062758Y-107516661D01*
X106274990Y-108030303D01*
X106667630Y-108423629D01*
X106875512Y-108509949D01*
X106669697Y-108594990D01*
X106276371Y-108987630D01*
X106063243Y-109500900D01*
X106062758Y-110056661D01*
X106274990Y-110570303D01*
X106667630Y-110963629D01*
X106875512Y-111049949D01*
X106669697Y-111134990D01*
X106276371Y-111527630D01*
X106063243Y-112040900D01*
X106062758Y-112596661D01*
X106274990Y-113110303D01*
X106667630Y-113503629D01*
X107180900Y-113716757D01*
X107736661Y-113717242D01*
X108250303Y-113505010D01*
X108643629Y-113112370D01*
X108729949Y-112904488D01*
X108814990Y-113110303D01*
X109207630Y-113503629D01*
X109720900Y-113716757D01*
X110276661Y-113717242D01*
X110790303Y-113505010D01*
X110971935Y-113323694D01*
X129285226Y-113323694D01*
X129533538Y-113924655D01*
X129992927Y-114384846D01*
X130593453Y-114634206D01*
X131243694Y-114634774D01*
X131844655Y-114386462D01*
X132304846Y-113927073D01*
X132554206Y-113326547D01*
X132554208Y-113323694D01*
X139445226Y-113323694D01*
X139693538Y-113924655D01*
X140152927Y-114384846D01*
X140753453Y-114634206D01*
X141403694Y-114634774D01*
X142004655Y-114386462D01*
X142464846Y-113927073D01*
X142714206Y-113326547D01*
X142714774Y-112676306D01*
X142466462Y-112075345D01*
X142007073Y-111615154D01*
X141406547Y-111365794D01*
X140756306Y-111365226D01*
X140155345Y-111613538D01*
X139695154Y-112072927D01*
X139445794Y-112673453D01*
X139445226Y-113323694D01*
X132554208Y-113323694D01*
X132554774Y-112676306D01*
X132306462Y-112075345D01*
X131847073Y-111615154D01*
X131246547Y-111365794D01*
X130596306Y-111365226D01*
X129995345Y-111613538D01*
X129535154Y-112072927D01*
X129285794Y-112673453D01*
X129285226Y-113323694D01*
X110971935Y-113323694D01*
X111183629Y-113112370D01*
X111396757Y-112599100D01*
X111397242Y-112043339D01*
X111185010Y-111529697D01*
X110792370Y-111136371D01*
X110584488Y-111050051D01*
X110790303Y-110965010D01*
X111183629Y-110572370D01*
X111286888Y-110323694D01*
X116285226Y-110323694D01*
X116533538Y-110924655D01*
X116992927Y-111384846D01*
X117593453Y-111634206D01*
X118243694Y-111634774D01*
X118844655Y-111386462D01*
X119304846Y-110927073D01*
X119554206Y-110326547D01*
X119554208Y-110323694D01*
X126445226Y-110323694D01*
X126693538Y-110924655D01*
X127152927Y-111384846D01*
X127753453Y-111634206D01*
X128403694Y-111634774D01*
X129004655Y-111386462D01*
X129464846Y-110927073D01*
X129714206Y-110326547D01*
X129714774Y-109676306D01*
X129466462Y-109075345D01*
X129007073Y-108615154D01*
X128406547Y-108365794D01*
X127756306Y-108365226D01*
X127155345Y-108613538D01*
X126695154Y-109072927D01*
X126445794Y-109673453D01*
X126445226Y-110323694D01*
X119554208Y-110323694D01*
X119554774Y-109676306D01*
X119306462Y-109075345D01*
X118847073Y-108615154D01*
X118246547Y-108365794D01*
X117596306Y-108365226D01*
X116995345Y-108613538D01*
X116535154Y-109072927D01*
X116285794Y-109673453D01*
X116285226Y-110323694D01*
X111286888Y-110323694D01*
X111396757Y-110059100D01*
X111397242Y-109503339D01*
X111185010Y-108989697D01*
X110792370Y-108596371D01*
X110584488Y-108510051D01*
X110790303Y-108425010D01*
X111183629Y-108032370D01*
X111396757Y-107519100D01*
X111397242Y-106963339D01*
X111383857Y-106930945D01*
X112991108Y-105323694D01*
X116285226Y-105323694D01*
X116533538Y-105924655D01*
X116992927Y-106384846D01*
X117593453Y-106634206D01*
X118243694Y-106634774D01*
X118844655Y-106386462D01*
X119304846Y-105927073D01*
X119554206Y-105326547D01*
X119554208Y-105323694D01*
X126445226Y-105323694D01*
X126693538Y-105924655D01*
X127152927Y-106384846D01*
X127753453Y-106634206D01*
X128403694Y-106634774D01*
X129004655Y-106386462D01*
X129464846Y-105927073D01*
X129534221Y-105760000D01*
X141000000Y-105760000D01*
X141290839Y-105702148D01*
X141537401Y-105537401D01*
X145139680Y-101935122D01*
X145185167Y-101935162D01*
X145528943Y-101793117D01*
X145792192Y-101530327D01*
X145934838Y-101186799D01*
X145935162Y-100814833D01*
X145793117Y-100471057D01*
X145530327Y-100207808D01*
X145186799Y-100065162D01*
X144814833Y-100064838D01*
X144471057Y-100206883D01*
X144207808Y-100469673D01*
X144065162Y-100813201D01*
X144065121Y-100860077D01*
X140685198Y-104240000D01*
X129534496Y-104240000D01*
X129466462Y-104075345D01*
X129007073Y-103615154D01*
X128406547Y-103365794D01*
X127756306Y-103365226D01*
X127155345Y-103613538D01*
X126695154Y-104072927D01*
X126445794Y-104673453D01*
X126445226Y-105323694D01*
X119554208Y-105323694D01*
X119554774Y-104676306D01*
X119306462Y-104075345D01*
X118847073Y-103615154D01*
X118246547Y-103365794D01*
X117596306Y-103365226D01*
X116995345Y-103613538D01*
X116535154Y-104072927D01*
X116285794Y-104673453D01*
X116285226Y-105323694D01*
X112991108Y-105323694D01*
X116125401Y-102189401D01*
X116290148Y-101942840D01*
X116348000Y-101652000D01*
X116348000Y-101323694D01*
X129285226Y-101323694D01*
X129533538Y-101924655D01*
X129992927Y-102384846D01*
X130593453Y-102634206D01*
X131243694Y-102634774D01*
X131844655Y-102386462D01*
X132304846Y-101927073D01*
X132554206Y-101326547D01*
X132554208Y-101323694D01*
X139445226Y-101323694D01*
X139693538Y-101924655D01*
X140152927Y-102384846D01*
X140753453Y-102634206D01*
X141403694Y-102634774D01*
X142004655Y-102386462D01*
X142464846Y-101927073D01*
X142714206Y-101326547D01*
X142714774Y-100676306D01*
X142466462Y-100075345D01*
X142007073Y-99615154D01*
X141406547Y-99365794D01*
X140756306Y-99365226D01*
X140155345Y-99613538D01*
X139695154Y-100072927D01*
X139445794Y-100673453D01*
X139445226Y-101323694D01*
X132554208Y-101323694D01*
X132554774Y-100676306D01*
X132306462Y-100075345D01*
X131847073Y-99615154D01*
X131246547Y-99365794D01*
X130596306Y-99365226D01*
X129995345Y-99613538D01*
X129535154Y-100072927D01*
X129285794Y-100673453D01*
X129285226Y-101323694D01*
X116348000Y-101323694D01*
X116348000Y-98475619D01*
X116533538Y-98924655D01*
X116992927Y-99384846D01*
X117593453Y-99634206D01*
X118243694Y-99634774D01*
X118844655Y-99386462D01*
X119304846Y-98927073D01*
X119554206Y-98326547D01*
X119554208Y-98323694D01*
X126445226Y-98323694D01*
X126693538Y-98924655D01*
X127152927Y-99384846D01*
X127753453Y-99634206D01*
X128403694Y-99634774D01*
X129004655Y-99386462D01*
X129464846Y-98927073D01*
X129714206Y-98326547D01*
X129714774Y-97676306D01*
X129466462Y-97075345D01*
X129007073Y-96615154D01*
X128406547Y-96365794D01*
X127756306Y-96365226D01*
X127155345Y-96613538D01*
X126695154Y-97072927D01*
X126445794Y-97673453D01*
X126445226Y-98323694D01*
X119554208Y-98323694D01*
X119554774Y-97676306D01*
X119306462Y-97075345D01*
X118847073Y-96615154D01*
X118246547Y-96365794D01*
X117596306Y-96365226D01*
X116995345Y-96613538D01*
X116535154Y-97072927D01*
X116348000Y-97523644D01*
X116348000Y-94475619D01*
X116533538Y-94924655D01*
X116992927Y-95384846D01*
X117593453Y-95634206D01*
X118243694Y-95634774D01*
X118844655Y-95386462D01*
X119304846Y-94927073D01*
X119554206Y-94326547D01*
X119554208Y-94323694D01*
X126445226Y-94323694D01*
X126693538Y-94924655D01*
X127152927Y-95384846D01*
X127753453Y-95634206D01*
X128403694Y-95634774D01*
X129004655Y-95386462D01*
X129464846Y-94927073D01*
X129534221Y-94760000D01*
X140000000Y-94760000D01*
X140290839Y-94702148D01*
X140537401Y-94537401D01*
X145139680Y-89935122D01*
X145185167Y-89935162D01*
X145528943Y-89793117D01*
X145792192Y-89530327D01*
X145934838Y-89186799D01*
X145935162Y-88814833D01*
X145793117Y-88471057D01*
X145530327Y-88207808D01*
X145186799Y-88065162D01*
X144814833Y-88064838D01*
X144471057Y-88206883D01*
X144207808Y-88469673D01*
X144065162Y-88813201D01*
X144065121Y-88860077D01*
X139685198Y-93240000D01*
X129534496Y-93240000D01*
X129466462Y-93075345D01*
X129007073Y-92615154D01*
X128406547Y-92365794D01*
X127756306Y-92365226D01*
X127155345Y-92613538D01*
X126695154Y-93072927D01*
X126445794Y-93673453D01*
X126445226Y-94323694D01*
X119554208Y-94323694D01*
X119554774Y-93676306D01*
X119306462Y-93075345D01*
X118847073Y-92615154D01*
X118246547Y-92365794D01*
X117596306Y-92365226D01*
X116995345Y-92613538D01*
X116535154Y-93072927D01*
X116348000Y-93523644D01*
X116348000Y-87323694D01*
X129285226Y-87323694D01*
X129533538Y-87924655D01*
X129992927Y-88384846D01*
X130593453Y-88634206D01*
X131243694Y-88634774D01*
X131844655Y-88386462D01*
X132304846Y-87927073D01*
X132554206Y-87326547D01*
X132554208Y-87323694D01*
X139445226Y-87323694D01*
X139693538Y-87924655D01*
X140152927Y-88384846D01*
X140753453Y-88634206D01*
X141403694Y-88634774D01*
X142004655Y-88386462D01*
X142464846Y-87927073D01*
X142714206Y-87326547D01*
X142714774Y-86676306D01*
X142466462Y-86075345D01*
X142007073Y-85615154D01*
X141406547Y-85365794D01*
X140756306Y-85365226D01*
X140155345Y-85613538D01*
X139695154Y-86072927D01*
X139445794Y-86673453D01*
X139445226Y-87323694D01*
X132554208Y-87323694D01*
X132554774Y-86676306D01*
X132306462Y-86075345D01*
X131847073Y-85615154D01*
X131246547Y-85365794D01*
X130596306Y-85365226D01*
X129995345Y-85613538D01*
X129535154Y-86072927D01*
X129285794Y-86673453D01*
X129285226Y-87323694D01*
X116348000Y-87323694D01*
X116348000Y-85475619D01*
X116533538Y-85924655D01*
X116992927Y-86384846D01*
X117593453Y-86634206D01*
X118243694Y-86634774D01*
X118844655Y-86386462D01*
X119304846Y-85927073D01*
X119554206Y-85326547D01*
X119554208Y-85323694D01*
X126445226Y-85323694D01*
X126693538Y-85924655D01*
X127152927Y-86384846D01*
X127753453Y-86634206D01*
X128403694Y-86634774D01*
X129004655Y-86386462D01*
X129464846Y-85927073D01*
X129714206Y-85326547D01*
X129714774Y-84676306D01*
X129466462Y-84075345D01*
X129007073Y-83615154D01*
X128406547Y-83365794D01*
X127756306Y-83365226D01*
X127155345Y-83613538D01*
X126695154Y-84072927D01*
X126445794Y-84673453D01*
X126445226Y-85323694D01*
X119554208Y-85323694D01*
X119554774Y-84676306D01*
X119306462Y-84075345D01*
X118847073Y-83615154D01*
X118246547Y-83365794D01*
X117596306Y-83365226D01*
X116995345Y-83613538D01*
X116535154Y-84072927D01*
X116348000Y-84523644D01*
X116348000Y-81475619D01*
X116533538Y-81924655D01*
X116992927Y-82384846D01*
X117593453Y-82634206D01*
X118243694Y-82634774D01*
X118844655Y-82386462D01*
X119304846Y-81927073D01*
X119554206Y-81326547D01*
X119554208Y-81323694D01*
X126445226Y-81323694D01*
X126693538Y-81924655D01*
X127152927Y-82384846D01*
X127753453Y-82634206D01*
X128403694Y-82634774D01*
X129004655Y-82386462D01*
X129464846Y-81927073D01*
X129534221Y-81760000D01*
X143000000Y-81760000D01*
X143290839Y-81702148D01*
X143537401Y-81537401D01*
X145139680Y-79935122D01*
X145185167Y-79935162D01*
X145528943Y-79793117D01*
X145792192Y-79530327D01*
X145934838Y-79186799D01*
X145935162Y-78814833D01*
X145793117Y-78471057D01*
X145530327Y-78207808D01*
X145186799Y-78065162D01*
X144814833Y-78064838D01*
X144471057Y-78206883D01*
X144207808Y-78469673D01*
X144065162Y-78813201D01*
X144065121Y-78860077D01*
X142685198Y-80240000D01*
X129534496Y-80240000D01*
X129466462Y-80075345D01*
X129007073Y-79615154D01*
X128406547Y-79365794D01*
X127756306Y-79365226D01*
X127155345Y-79613538D01*
X126695154Y-80072927D01*
X126445794Y-80673453D01*
X126445226Y-81323694D01*
X119554208Y-81323694D01*
X119554774Y-80676306D01*
X119306462Y-80075345D01*
X118847073Y-79615154D01*
X118246547Y-79365794D01*
X117596306Y-79365226D01*
X116995345Y-79613538D01*
X116535154Y-80072927D01*
X116348000Y-80523644D01*
X116348000Y-78323694D01*
X129285226Y-78323694D01*
X129533538Y-78924655D01*
X129992927Y-79384846D01*
X130593453Y-79634206D01*
X131243694Y-79634774D01*
X131844655Y-79386462D01*
X132304846Y-78927073D01*
X132554206Y-78326547D01*
X132554208Y-78323694D01*
X139445226Y-78323694D01*
X139693538Y-78924655D01*
X140152927Y-79384846D01*
X140753453Y-79634206D01*
X141403694Y-79634774D01*
X142004655Y-79386462D01*
X142464846Y-78927073D01*
X142714206Y-78326547D01*
X142714774Y-77676306D01*
X142466462Y-77075345D01*
X142007073Y-76615154D01*
X141406547Y-76365794D01*
X140756306Y-76365226D01*
X140155345Y-76613538D01*
X139695154Y-77072927D01*
X139445794Y-77673453D01*
X139445226Y-78323694D01*
X132554208Y-78323694D01*
X132554774Y-77676306D01*
X132306462Y-77075345D01*
X131847073Y-76615154D01*
X131246547Y-76365794D01*
X130596306Y-76365226D01*
X129995345Y-76613538D01*
X129535154Y-77072927D01*
X129285794Y-77673453D01*
X129285226Y-78323694D01*
X116348000Y-78323694D01*
X116348000Y-75475619D01*
X116533538Y-75924655D01*
X116992927Y-76384846D01*
X117593453Y-76634206D01*
X118243694Y-76634774D01*
X118844655Y-76386462D01*
X119304846Y-75927073D01*
X119554206Y-75326547D01*
X119554208Y-75323694D01*
X126445226Y-75323694D01*
X126693538Y-75924655D01*
X127152927Y-76384846D01*
X127753453Y-76634206D01*
X128403694Y-76634774D01*
X129004655Y-76386462D01*
X129464846Y-75927073D01*
X129714206Y-75326547D01*
X129714774Y-74676306D01*
X129466462Y-74075345D01*
X129007073Y-73615154D01*
X128406547Y-73365794D01*
X127756306Y-73365226D01*
X127155345Y-73613538D01*
X126695154Y-74072927D01*
X126445794Y-74673453D01*
X126445226Y-75323694D01*
X119554208Y-75323694D01*
X119554774Y-74676306D01*
X119306462Y-74075345D01*
X118847073Y-73615154D01*
X118246547Y-73365794D01*
X117596306Y-73365226D01*
X116995345Y-73613538D01*
X116535154Y-74072927D01*
X116348000Y-74523644D01*
X116348000Y-72663954D01*
X116537401Y-72537401D01*
X116702148Y-72290839D01*
X116760000Y-72000000D01*
X116702148Y-71709161D01*
X116537401Y-71462599D01*
X116348000Y-71336046D01*
X116348000Y-70475619D01*
X116533538Y-70924655D01*
X116992927Y-71384846D01*
X117593453Y-71634206D01*
X118243694Y-71634774D01*
X118844655Y-71386462D01*
X119304846Y-70927073D01*
X119554206Y-70326547D01*
X119554208Y-70323694D01*
X126445226Y-70323694D01*
X126693538Y-70924655D01*
X127152927Y-71384846D01*
X127753453Y-71634206D01*
X128403694Y-71634774D01*
X129004655Y-71386462D01*
X129464846Y-70927073D01*
X129714206Y-70326547D01*
X129714774Y-69676306D01*
X129466462Y-69075345D01*
X129007073Y-68615154D01*
X128406547Y-68365794D01*
X127756306Y-68365226D01*
X127155345Y-68613538D01*
X126695154Y-69072927D01*
X126445794Y-69673453D01*
X126445226Y-70323694D01*
X119554208Y-70323694D01*
X119554774Y-69676306D01*
X119306462Y-69075345D01*
X118847073Y-68615154D01*
X118246547Y-68365794D01*
X117596306Y-68365226D01*
X116995345Y-68613538D01*
X116535154Y-69072927D01*
X116348000Y-69523644D01*
X116348000Y-67492000D01*
X116290148Y-67201161D01*
X116125401Y-66954599D01*
X115878839Y-66789852D01*
X115861132Y-66786330D01*
X114935122Y-65860320D01*
X114935162Y-65814833D01*
X114793117Y-65471057D01*
X114530327Y-65207808D01*
X114186799Y-65065162D01*
X113814833Y-65064838D01*
X113471057Y-65206883D01*
X113207808Y-65469673D01*
X113065162Y-65813201D01*
X113064838Y-66185167D01*
X113206883Y-66528943D01*
X113469673Y-66792192D01*
X113813201Y-66934838D01*
X113860077Y-66934879D01*
X114828000Y-67902802D01*
X114828000Y-71097198D01*
X113605198Y-72320000D01*
X111197531Y-72320000D01*
X111185010Y-72289697D01*
X110792370Y-71896371D01*
X110584488Y-71810051D01*
X110790303Y-71725010D01*
X111183629Y-71332370D01*
X111396757Y-70819100D01*
X111397242Y-70263339D01*
X111185010Y-69749697D01*
X110792370Y-69356371D01*
X110279100Y-69143243D01*
X109723339Y-69142758D01*
X109209697Y-69354990D01*
X108816371Y-69747630D01*
X108730051Y-69955512D01*
X108645010Y-69749697D01*
X108252370Y-69356371D01*
X107739100Y-69143243D01*
X107183339Y-69142758D01*
X106669697Y-69354990D01*
X106276371Y-69747630D01*
X106063243Y-70260900D01*
X106062758Y-70816661D01*
X101510693Y-70816661D01*
X101714206Y-70326547D01*
X101714774Y-69676306D01*
X101466462Y-69075345D01*
X101007073Y-68615154D01*
X100406547Y-68365794D01*
X99756306Y-68365226D01*
X99155345Y-68613538D01*
X98695154Y-69072927D01*
X98445794Y-69673453D01*
X98445226Y-70323694D01*
X91554208Y-70323694D01*
X91554774Y-69676306D01*
X91306462Y-69075345D01*
X90847073Y-68615154D01*
X90246547Y-68365794D01*
X89596306Y-68365226D01*
X88995345Y-68613538D01*
X88535154Y-69072927D01*
X88285794Y-69673453D01*
X88285226Y-70323694D01*
X34127000Y-70323694D01*
X34127000Y-65243694D01*
X59365226Y-65243694D01*
X59613538Y-65844655D01*
X60072927Y-66304846D01*
X60673453Y-66554206D01*
X61323694Y-66554774D01*
X61924655Y-66306462D01*
X62104430Y-66127000D01*
X69527320Y-66127000D01*
X69527320Y-67127760D01*
X69719384Y-67839329D01*
X70169133Y-68423233D01*
X70808097Y-68790578D01*
X70992405Y-68838138D01*
X71285000Y-68722011D01*
X71285000Y-66127000D01*
X71539000Y-66127000D01*
X71539000Y-68722011D01*
X71831595Y-68838138D01*
X72015903Y-68790578D01*
X72654867Y-68423233D01*
X73104616Y-67839329D01*
X73296680Y-67127760D01*
X73296680Y-66127000D01*
X71539000Y-66127000D01*
X71285000Y-66127000D01*
X69527320Y-66127000D01*
X62104430Y-66127000D01*
X62384846Y-65847073D01*
X62634206Y-65246547D01*
X62634532Y-64872240D01*
X69527320Y-64872240D01*
X69527320Y-65873000D01*
X71285000Y-65873000D01*
X71285000Y-63277989D01*
X71539000Y-63277989D01*
X71539000Y-65873000D01*
X73296680Y-65873000D01*
X73296680Y-64942711D01*
X75115320Y-64942711D01*
X75115320Y-67057289D01*
X75258783Y-67778525D01*
X75667330Y-68389959D01*
X76278764Y-68798506D01*
X77000000Y-68941969D01*
X77721236Y-68798506D01*
X78332670Y-68389959D01*
X78741217Y-67778525D01*
X78884680Y-67057289D01*
X78884680Y-64942711D01*
X80703320Y-64942711D01*
X80703320Y-67057289D01*
X80846783Y-67778525D01*
X81255330Y-68389959D01*
X81866764Y-68798506D01*
X82588000Y-68941969D01*
X83309236Y-68798506D01*
X83920670Y-68389959D01*
X84329217Y-67778525D01*
X84472680Y-67057289D01*
X84472680Y-64942711D01*
X84329217Y-64221475D01*
X83920670Y-63610041D01*
X83309236Y-63201494D01*
X82588000Y-63058031D01*
X81866764Y-63201494D01*
X81255330Y-63610041D01*
X80846783Y-64221475D01*
X80703320Y-64942711D01*
X78884680Y-64942711D01*
X78741217Y-64221475D01*
X78332670Y-63610041D01*
X77721236Y-63201494D01*
X77000000Y-63058031D01*
X76278764Y-63201494D01*
X75667330Y-63610041D01*
X75258783Y-64221475D01*
X75115320Y-64942711D01*
X73296680Y-64942711D01*
X73296680Y-64872240D01*
X73104616Y-64160671D01*
X72654867Y-63576767D01*
X72015903Y-63209422D01*
X71831595Y-63161862D01*
X71539000Y-63277989D01*
X71285000Y-63277989D01*
X70992405Y-63161862D01*
X70808097Y-63209422D01*
X70169133Y-63576767D01*
X69719384Y-64160671D01*
X69527320Y-64872240D01*
X62634532Y-64872240D01*
X62634774Y-64596306D01*
X62386462Y-63995345D01*
X61927073Y-63535154D01*
X61326547Y-63285794D01*
X60676306Y-63285226D01*
X60075345Y-63533538D01*
X59615154Y-63992927D01*
X59365794Y-64593453D01*
X59365226Y-65243694D01*
X34127000Y-65243694D01*
X34127000Y-62127000D01*
X146873000Y-62127000D01*
X146873000Y-133873000D01*
X146873000Y-133873000D01*
G37*
X146873000Y-133873000D02*
X34127000Y-133873000D01*
X34127000Y-96000000D01*
X35240000Y-96000000D01*
X35240000Y-129000000D01*
X35297852Y-129290839D01*
X35462599Y-129537401D01*
X37462599Y-131537401D01*
X37709161Y-131702148D01*
X38000000Y-131760000D01*
X122000000Y-131760000D01*
X122290839Y-131702148D01*
X122537401Y-131537401D01*
X123889635Y-130185167D01*
X128064838Y-130185167D01*
X128206883Y-130528943D01*
X128469673Y-130792192D01*
X128813201Y-130934838D01*
X129185167Y-130935162D01*
X129528943Y-130793117D01*
X129792192Y-130530327D01*
X129877993Y-130323694D01*
X132285226Y-130323694D01*
X132533538Y-130924655D01*
X132992927Y-131384846D01*
X133593453Y-131634206D01*
X134243694Y-131634774D01*
X134844655Y-131386462D01*
X135079363Y-131152163D01*
X143107443Y-131152163D01*
X143206042Y-131418965D01*
X143815582Y-131645401D01*
X144465377Y-131621341D01*
X144953958Y-131418965D01*
X145052557Y-131152163D01*
X144080000Y-130179605D01*
X143107443Y-131152163D01*
X135079363Y-131152163D01*
X135304846Y-130927073D01*
X135554206Y-130326547D01*
X135554722Y-129735582D01*
X142434599Y-129735582D01*
X142458659Y-130385377D01*
X142661035Y-130873958D01*
X142927837Y-130972557D01*
X143900395Y-130000000D01*
X144259605Y-130000000D01*
X145232163Y-130972557D01*
X145498965Y-130873958D01*
X145725401Y-130264418D01*
X145701341Y-129614623D01*
X145498965Y-129126042D01*
X145232163Y-129027443D01*
X144259605Y-130000000D01*
X143900395Y-130000000D01*
X142927837Y-129027443D01*
X142661035Y-129126042D01*
X142434599Y-129735582D01*
X135554722Y-129735582D01*
X135554774Y-129676306D01*
X135306462Y-129075345D01*
X135079351Y-128847837D01*
X143107443Y-128847837D01*
X144080000Y-129820395D01*
X145052557Y-128847837D01*
X144953958Y-128581035D01*
X144344418Y-128354599D01*
X143694623Y-128378659D01*
X143206042Y-128581035D01*
X143107443Y-128847837D01*
X135079351Y-128847837D01*
X134847073Y-128615154D01*
X134246547Y-128365794D01*
X133596306Y-128365226D01*
X132995345Y-128613538D01*
X132535154Y-129072927D01*
X132285794Y-129673453D01*
X132285226Y-130323694D01*
X129877993Y-130323694D01*
X129934838Y-130186799D01*
X129934879Y-130139923D01*
X135277285Y-124797517D01*
X135278764Y-124798506D01*
X136000000Y-124941969D01*
X136721236Y-124798506D01*
X137332670Y-124389959D01*
X137741217Y-123778525D01*
X137884680Y-123057289D01*
X137884680Y-120942711D01*
X139703320Y-120942711D01*
X139703320Y-123057289D01*
X139846783Y-123778525D01*
X140255330Y-124389959D01*
X140866764Y-124798506D01*
X141588000Y-124941969D01*
X142309236Y-124798506D01*
X142920670Y-124389959D01*
X143329217Y-123778525D01*
X143472680Y-123057289D01*
X143472680Y-120942711D01*
X143329217Y-120221475D01*
X142920670Y-119610041D01*
X142309236Y-119201494D01*
X141588000Y-119058031D01*
X140866764Y-119201494D01*
X140255330Y-119610041D01*
X139846783Y-120221475D01*
X139703320Y-120942711D01*
X137884680Y-120942711D01*
X137741217Y-120221475D01*
X137332670Y-119610041D01*
X136721236Y-119201494D01*
X136000000Y-119058031D01*
X135278764Y-119201494D01*
X134667330Y-119610041D01*
X134258783Y-120221475D01*
X134115320Y-120942711D01*
X134115320Y-123057289D01*
X134240183Y-123685015D01*
X128860320Y-129064878D01*
X128814833Y-129064838D01*
X128471057Y-129206883D01*
X128207808Y-129469673D01*
X128065162Y-129813201D01*
X128064838Y-130185167D01*
X123889635Y-130185167D01*
X129442309Y-124632493D01*
X129690764Y-124798506D01*
X130412000Y-124941969D01*
X131133236Y-124798506D01*
X131744670Y-124389959D01*
X132153217Y-123778525D01*
X132296680Y-123057289D01*
X132296680Y-120942711D01*
X132153217Y-120221475D01*
X131744670Y-119610041D01*
X131133236Y-119201494D01*
X130412000Y-119058031D01*
X129690764Y-119201494D01*
X129079330Y-119610041D01*
X128670783Y-120221475D01*
X128527320Y-120942711D01*
X128527320Y-123057289D01*
X128583827Y-123341371D01*
X121685198Y-130240000D01*
X95246802Y-130240000D01*
X96301635Y-129185167D01*
X100064838Y-129185167D01*
X100206883Y-129528943D01*
X100469673Y-129792192D01*
X100813201Y-129934838D01*
X101185167Y-129935162D01*
X101528943Y-129793117D01*
X101792192Y-129530327D01*
X101934838Y-129186799D01*
X101934879Y-129139923D01*
X102751108Y-128323694D01*
X106285226Y-128323694D01*
X106533538Y-128924655D01*
X106992927Y-129384846D01*
X107593453Y-129634206D01*
X108243694Y-129634774D01*
X108844655Y-129386462D01*
X109079363Y-129152163D01*
X117107443Y-129152163D01*
X117206042Y-129418965D01*
X117815582Y-129645401D01*
X118465377Y-129621341D01*
X118953958Y-129418965D01*
X119052557Y-129152163D01*
X118080000Y-128179605D01*
X117107443Y-129152163D01*
X109079363Y-129152163D01*
X109304846Y-128927073D01*
X109554206Y-128326547D01*
X109554722Y-127735582D01*
X116434599Y-127735582D01*
X116458659Y-128385377D01*
X116661035Y-128873958D01*
X116927837Y-128972557D01*
X117900395Y-128000000D01*
X118259605Y-128000000D01*
X119232163Y-128972557D01*
X119498965Y-128873958D01*
X119725401Y-128264418D01*
X119701341Y-127614623D01*
X119498965Y-127126042D01*
X119232163Y-127027443D01*
X118259605Y-128000000D01*
X117900395Y-128000000D01*
X116927837Y-127027443D01*
X116661035Y-127126042D01*
X116434599Y-127735582D01*
X109554722Y-127735582D01*
X109554774Y-127676306D01*
X109306462Y-127075345D01*
X109079351Y-126847837D01*
X117107443Y-126847837D01*
X118080000Y-127820395D01*
X119052557Y-126847837D01*
X118953958Y-126581035D01*
X118344418Y-126354599D01*
X117694623Y-126378659D01*
X117206042Y-126581035D01*
X117107443Y-126847837D01*
X109079351Y-126847837D01*
X108847073Y-126615154D01*
X108246547Y-126365794D01*
X107596306Y-126365226D01*
X106995345Y-126613538D01*
X106535154Y-127072927D01*
X106285794Y-127673453D01*
X106285226Y-128323694D01*
X102751108Y-128323694D01*
X106677828Y-124396974D01*
X107278764Y-124798506D01*
X108000000Y-124941969D01*
X108721236Y-124798506D01*
X109332670Y-124389959D01*
X109741217Y-123778525D01*
X109884680Y-123057289D01*
X109884680Y-120942711D01*
X111703320Y-120942711D01*
X111703320Y-123057289D01*
X111846783Y-123778525D01*
X112255330Y-124389959D01*
X112866764Y-124798506D01*
X113588000Y-124941969D01*
X114309236Y-124798506D01*
X114920670Y-124389959D01*
X115329217Y-123778525D01*
X115472680Y-123057289D01*
X115472680Y-120942711D01*
X115329217Y-120221475D01*
X114920670Y-119610041D01*
X114309236Y-119201494D01*
X113588000Y-119058031D01*
X112866764Y-119201494D01*
X112255330Y-119610041D01*
X111846783Y-120221475D01*
X111703320Y-120942711D01*
X109884680Y-120942711D01*
X109741217Y-120221475D01*
X109332670Y-119610041D01*
X108721236Y-119201494D01*
X108000000Y-119058031D01*
X107278764Y-119201494D01*
X106667330Y-119610041D01*
X106258783Y-120221475D01*
X106115320Y-120942711D01*
X106115320Y-122809878D01*
X100860320Y-128064878D01*
X100814833Y-128064838D01*
X100471057Y-128206883D01*
X100207808Y-128469673D01*
X100065162Y-128813201D01*
X100064838Y-129185167D01*
X96301635Y-129185167D01*
X101089828Y-124396974D01*
X101690764Y-124798506D01*
X102412000Y-124941969D01*
X103133236Y-124798506D01*
X103744670Y-124389959D01*
X104153217Y-123778525D01*
X104296680Y-123057289D01*
X104296680Y-120942711D01*
X104153217Y-120221475D01*
X103744670Y-119610041D01*
X103133236Y-119201494D01*
X102412000Y-119058031D01*
X101690764Y-119201494D01*
X101079330Y-119610041D01*
X100670783Y-120221475D01*
X100527320Y-120942711D01*
X100527320Y-122809878D01*
X93097198Y-130240000D01*
X69246802Y-130240000D01*
X75089828Y-124396974D01*
X75690764Y-124798506D01*
X76412000Y-124941969D01*
X77133236Y-124798506D01*
X77744670Y-124389959D01*
X78153217Y-123778525D01*
X78296680Y-123057289D01*
X78296680Y-120942711D01*
X80115320Y-120942711D01*
X80115320Y-123057289D01*
X80258783Y-123778525D01*
X80667330Y-124389959D01*
X81278764Y-124798506D01*
X82000000Y-124941969D01*
X82721236Y-124798506D01*
X83332670Y-124389959D01*
X83741217Y-123778525D01*
X83884680Y-123057289D01*
X83884680Y-120942711D01*
X85703320Y-120942711D01*
X85703320Y-123057289D01*
X85846783Y-123778525D01*
X86255330Y-124389959D01*
X86866764Y-124798506D01*
X87588000Y-124941969D01*
X88309236Y-124798506D01*
X88920670Y-124389959D01*
X89329217Y-123778525D01*
X89472680Y-123057289D01*
X89472680Y-120942711D01*
X89329217Y-120221475D01*
X88920670Y-119610041D01*
X88309236Y-119201494D01*
X87588000Y-119058031D01*
X86866764Y-119201494D01*
X86255330Y-119610041D01*
X85846783Y-120221475D01*
X85703320Y-120942711D01*
X83884680Y-120942711D01*
X83741217Y-120221475D01*
X83332670Y-119610041D01*
X82721236Y-119201494D01*
X82000000Y-119058031D01*
X81278764Y-119201494D01*
X80667330Y-119610041D01*
X80258783Y-120221475D01*
X80115320Y-120942711D01*
X78296680Y-120942711D01*
X78153217Y-120221475D01*
X77744670Y-119610041D01*
X77133236Y-119201494D01*
X76412000Y-119058031D01*
X75690764Y-119201494D01*
X75079330Y-119610041D01*
X74670783Y-120221475D01*
X74527320Y-120942711D01*
X74527320Y-122809878D01*
X67097198Y-130240000D01*
X38314802Y-130240000D01*
X36760000Y-128685198D01*
X36760000Y-128151373D01*
X37072927Y-128464846D01*
X37673453Y-128714206D01*
X38323694Y-128714774D01*
X38924655Y-128466462D01*
X39384846Y-128007073D01*
X39634206Y-127406547D01*
X39634208Y-127403694D01*
X40365226Y-127403694D01*
X40613538Y-128004655D01*
X41072927Y-128464846D01*
X41673453Y-128714206D01*
X42323694Y-128714774D01*
X42924655Y-128466462D01*
X43384846Y-128007073D01*
X43634206Y-127406547D01*
X43634208Y-127403694D01*
X44365226Y-127403694D01*
X44613538Y-128004655D01*
X45072927Y-128464846D01*
X45673453Y-128714206D01*
X46323694Y-128714774D01*
X46924655Y-128466462D01*
X47384846Y-128007073D01*
X47634206Y-127406547D01*
X47634774Y-126756306D01*
X47386462Y-126155345D01*
X46927073Y-125695154D01*
X46326547Y-125445794D01*
X45676306Y-125445226D01*
X45075345Y-125693538D01*
X44615154Y-126152927D01*
X44365794Y-126753453D01*
X44365226Y-127403694D01*
X43634208Y-127403694D01*
X43634774Y-126756306D01*
X43386462Y-126155345D01*
X42927073Y-125695154D01*
X42326547Y-125445794D01*
X41676306Y-125445226D01*
X41075345Y-125693538D01*
X40615154Y-126152927D01*
X40365794Y-126753453D01*
X40365226Y-127403694D01*
X39634208Y-127403694D01*
X39634774Y-126756306D01*
X39386462Y-126155345D01*
X38927073Y-125695154D01*
X38326547Y-125445794D01*
X37676306Y-125445226D01*
X37075345Y-125693538D01*
X36760000Y-126008333D01*
X36760000Y-124323694D01*
X49285226Y-124323694D01*
X49533538Y-124924655D01*
X49992927Y-125384846D01*
X50593453Y-125634206D01*
X51243694Y-125634774D01*
X51844655Y-125386462D01*
X52079363Y-125152163D01*
X60107443Y-125152163D01*
X60206042Y-125418965D01*
X60815582Y-125645401D01*
X61465377Y-125621341D01*
X61953958Y-125418965D01*
X62052557Y-125152163D01*
X61080000Y-124179605D01*
X60107443Y-125152163D01*
X52079363Y-125152163D01*
X52304846Y-124927073D01*
X52554206Y-124326547D01*
X52554722Y-123735582D01*
X59434599Y-123735582D01*
X59458659Y-124385377D01*
X59661035Y-124873958D01*
X59927837Y-124972557D01*
X60900395Y-124000000D01*
X61259605Y-124000000D01*
X62232163Y-124972557D01*
X62498965Y-124873958D01*
X62725401Y-124264418D01*
X62701341Y-123614623D01*
X62498965Y-123126042D01*
X62232163Y-123027443D01*
X61259605Y-124000000D01*
X60900395Y-124000000D01*
X59927837Y-123027443D01*
X59661035Y-123126042D01*
X59434599Y-123735582D01*
X52554722Y-123735582D01*
X52554774Y-123676306D01*
X52306462Y-123075345D01*
X52079351Y-122847837D01*
X60107443Y-122847837D01*
X61080000Y-123820395D01*
X62052557Y-122847837D01*
X61953958Y-122581035D01*
X61344418Y-122354599D01*
X60694623Y-122378659D01*
X60206042Y-122581035D01*
X60107443Y-122847837D01*
X52079351Y-122847837D01*
X51847073Y-122615154D01*
X51246547Y-122365794D01*
X50596306Y-122365226D01*
X49995345Y-122613538D01*
X49535154Y-123072927D01*
X49285794Y-123673453D01*
X49285226Y-124323694D01*
X36760000Y-124323694D01*
X36760000Y-117991373D01*
X37072927Y-118304846D01*
X37673453Y-118554206D01*
X38323694Y-118554774D01*
X38924655Y-118306462D01*
X39384846Y-117847073D01*
X39634206Y-117246547D01*
X39634208Y-117243694D01*
X40365226Y-117243694D01*
X40613538Y-117844655D01*
X41072927Y-118304846D01*
X41673453Y-118554206D01*
X42323694Y-118554774D01*
X42924655Y-118306462D01*
X43384846Y-117847073D01*
X43634206Y-117246547D01*
X43634208Y-117243694D01*
X44365226Y-117243694D01*
X44613538Y-117844655D01*
X45072927Y-118304846D01*
X45673453Y-118554206D01*
X46323694Y-118554774D01*
X46924655Y-118306462D01*
X47384846Y-117847073D01*
X47634206Y-117246547D01*
X47634774Y-116596306D01*
X47386462Y-115995345D01*
X46927073Y-115535154D01*
X46326547Y-115285794D01*
X45676306Y-115285226D01*
X45075345Y-115533538D01*
X44615154Y-115992927D01*
X44365794Y-116593453D01*
X44365226Y-117243694D01*
X43634208Y-117243694D01*
X43634774Y-116596306D01*
X43386462Y-115995345D01*
X42927073Y-115535154D01*
X42326547Y-115285794D01*
X41676306Y-115285226D01*
X41075345Y-115533538D01*
X40615154Y-115992927D01*
X40365794Y-116593453D01*
X40365226Y-117243694D01*
X39634208Y-117243694D01*
X39634774Y-116596306D01*
X39386462Y-115995345D01*
X38927073Y-115535154D01*
X38326547Y-115285794D01*
X37676306Y-115285226D01*
X37075345Y-115533538D01*
X36760000Y-115848333D01*
X36760000Y-106285750D01*
X38555000Y-106285750D01*
X38555000Y-107396310D01*
X38651673Y-107629699D01*
X38830302Y-107808327D01*
X39063691Y-107905000D01*
X40174250Y-107905000D01*
X40333000Y-107746250D01*
X40333000Y-106127000D01*
X40587000Y-106127000D01*
X40587000Y-107746250D01*
X40745750Y-107905000D01*
X41856309Y-107905000D01*
X42089698Y-107808327D01*
X42268327Y-107629699D01*
X42365000Y-107396310D01*
X42365000Y-106377265D01*
X43634670Y-106377265D01*
X43924078Y-107077686D01*
X44459495Y-107614039D01*
X45159410Y-107904668D01*
X45917265Y-107905330D01*
X46617686Y-107615922D01*
X47154039Y-107080505D01*
X47287124Y-106760000D01*
X47685198Y-106760000D01*
X49240000Y-108314802D01*
X49240000Y-119000000D01*
X49297852Y-119290839D01*
X49462599Y-119537401D01*
X51462599Y-121537401D01*
X51709161Y-121702148D01*
X52000000Y-121760000D01*
X66420000Y-121760000D01*
X66710839Y-121702148D01*
X66957401Y-121537401D01*
X68470619Y-120024183D01*
X68500900Y-120036757D01*
X69056661Y-120037242D01*
X69570303Y-119825010D01*
X69963629Y-119432370D01*
X70176757Y-118919100D01*
X70177242Y-118363339D01*
X69965010Y-117849697D01*
X69572370Y-117456371D01*
X69364488Y-117370051D01*
X69570303Y-117285010D01*
X69963629Y-116892370D01*
X70176757Y-116379100D01*
X70177242Y-115823339D01*
X69965010Y-115309697D01*
X69572370Y-114916371D01*
X69364488Y-114830051D01*
X69570303Y-114745010D01*
X69963629Y-114352370D01*
X70176757Y-113839100D01*
X70177206Y-113323694D01*
X75285226Y-113323694D01*
X75533538Y-113924655D01*
X75992927Y-114384846D01*
X76593453Y-114634206D01*
X77243694Y-114634774D01*
X77844655Y-114386462D01*
X78304846Y-113927073D01*
X78554206Y-113326547D01*
X78554208Y-113323694D01*
X85445226Y-113323694D01*
X85693538Y-113924655D01*
X86152927Y-114384846D01*
X86753453Y-114634206D01*
X87403694Y-114634774D01*
X88004655Y-114386462D01*
X88464846Y-113927073D01*
X88714206Y-113326547D01*
X88714774Y-112676306D01*
X88466462Y-112075345D01*
X88007073Y-111615154D01*
X87406547Y-111365794D01*
X86756306Y-111365226D01*
X86155345Y-111613538D01*
X85695154Y-112072927D01*
X85445794Y-112673453D01*
X85445226Y-113323694D01*
X78554208Y-113323694D01*
X78554774Y-112676306D01*
X78306462Y-112075345D01*
X77847073Y-111615154D01*
X77246547Y-111365794D01*
X76596306Y-111365226D01*
X75995345Y-111613538D01*
X75535154Y-112072927D01*
X75285794Y-112673453D01*
X75285226Y-113323694D01*
X70177206Y-113323694D01*
X70177242Y-113283339D01*
X69965010Y-112769697D01*
X69572370Y-112376371D01*
X69364488Y-112290051D01*
X69570303Y-112205010D01*
X69963629Y-111812370D01*
X70176757Y-111299100D01*
X70177242Y-110743339D01*
X69965010Y-110229697D01*
X69572370Y-109836371D01*
X69364488Y-109750051D01*
X69570303Y-109665010D01*
X69912215Y-109323694D01*
X88285226Y-109323694D01*
X88533538Y-109924655D01*
X88992927Y-110384846D01*
X89593453Y-110634206D01*
X90243694Y-110634774D01*
X90844655Y-110386462D01*
X91304846Y-109927073D01*
X91554206Y-109326547D01*
X91554208Y-109323694D01*
X98445226Y-109323694D01*
X98693538Y-109924655D01*
X99152927Y-110384846D01*
X99753453Y-110634206D01*
X100403694Y-110634774D01*
X101004655Y-110386462D01*
X101464846Y-109927073D01*
X101714206Y-109326547D01*
X101714774Y-108676306D01*
X101466462Y-108075345D01*
X101007073Y-107615154D01*
X100406547Y-107365794D01*
X99756306Y-107365226D01*
X99155345Y-107613538D01*
X98695154Y-108072927D01*
X98445794Y-108673453D01*
X98445226Y-109323694D01*
X91554208Y-109323694D01*
X91554774Y-108676306D01*
X91306462Y-108075345D01*
X90847073Y-107615154D01*
X90246547Y-107365794D01*
X89596306Y-107365226D01*
X88995345Y-107613538D01*
X88535154Y-108072927D01*
X88285794Y-108673453D01*
X88285226Y-109323694D01*
X69912215Y-109323694D01*
X69963629Y-109272370D01*
X70176757Y-108759100D01*
X70177242Y-108203339D01*
X69965010Y-107689697D01*
X69572370Y-107296371D01*
X69364488Y-107210051D01*
X69424711Y-107185167D01*
X72064838Y-107185167D01*
X72206883Y-107528943D01*
X72469673Y-107792192D01*
X72813201Y-107934838D01*
X73185167Y-107935162D01*
X73528943Y-107793117D01*
X73792192Y-107530327D01*
X73934838Y-107186799D01*
X73934879Y-107139923D01*
X75314802Y-105760000D01*
X88465504Y-105760000D01*
X88533538Y-105924655D01*
X88992927Y-106384846D01*
X89593453Y-106634206D01*
X90243694Y-106634774D01*
X90844655Y-106386462D01*
X91304846Y-105927073D01*
X91554206Y-105326547D01*
X91554208Y-105323694D01*
X98445226Y-105323694D01*
X98693538Y-105924655D01*
X99152927Y-106384846D01*
X99753453Y-106634206D01*
X100403694Y-106634774D01*
X101004655Y-106386462D01*
X101464846Y-105927073D01*
X101714206Y-105326547D01*
X101714774Y-104676306D01*
X101466462Y-104075345D01*
X101007073Y-103615154D01*
X100406547Y-103365794D01*
X99756306Y-103365226D01*
X99155345Y-103613538D01*
X98695154Y-104072927D01*
X98445794Y-104673453D01*
X98445226Y-105323694D01*
X91554208Y-105323694D01*
X91554774Y-104676306D01*
X91306462Y-104075345D01*
X90847073Y-103615154D01*
X90246547Y-103365794D01*
X89596306Y-103365226D01*
X88995345Y-103613538D01*
X88535154Y-104072927D01*
X88465779Y-104240000D01*
X75000000Y-104240000D01*
X74709161Y-104297852D01*
X74462599Y-104462599D01*
X72860320Y-106064878D01*
X72814833Y-106064838D01*
X72471057Y-106206883D01*
X72207808Y-106469673D01*
X72065162Y-106813201D01*
X72064838Y-107185167D01*
X69424711Y-107185167D01*
X69570303Y-107125010D01*
X69963629Y-106732370D01*
X70176757Y-106219100D01*
X70177242Y-105663339D01*
X69965010Y-105149697D01*
X69572370Y-104756371D01*
X69364488Y-104670051D01*
X69570303Y-104585010D01*
X69963629Y-104192370D01*
X70176757Y-103679100D01*
X70177242Y-103123339D01*
X69965010Y-102609697D01*
X69679506Y-102323694D01*
X75285226Y-102323694D01*
X75533538Y-102924655D01*
X75992927Y-103384846D01*
X76593453Y-103634206D01*
X77243694Y-103634774D01*
X77844655Y-103386462D01*
X78304846Y-102927073D01*
X78554206Y-102326547D01*
X78554208Y-102323694D01*
X85445226Y-102323694D01*
X85693538Y-102924655D01*
X86152927Y-103384846D01*
X86753453Y-103634206D01*
X87403694Y-103634774D01*
X88004655Y-103386462D01*
X88464846Y-102927073D01*
X88714206Y-102326547D01*
X88714774Y-101676306D01*
X88466462Y-101075345D01*
X88007073Y-100615154D01*
X87406547Y-100365794D01*
X86756306Y-100365226D01*
X86155345Y-100613538D01*
X85695154Y-101072927D01*
X85445794Y-101673453D01*
X85445226Y-102323694D01*
X78554208Y-102323694D01*
X78554774Y-101676306D01*
X78306462Y-101075345D01*
X77847073Y-100615154D01*
X77246547Y-100365794D01*
X76596306Y-100365226D01*
X75995345Y-100613538D01*
X75535154Y-101072927D01*
X75285794Y-101673453D01*
X75285226Y-102323694D01*
X69679506Y-102323694D01*
X69572370Y-102216371D01*
X69364488Y-102130051D01*
X69570303Y-102045010D01*
X69963629Y-101652370D01*
X70176757Y-101139100D01*
X70177242Y-100583339D01*
X69965010Y-100069697D01*
X69572370Y-99676371D01*
X69364488Y-99590051D01*
X69570303Y-99505010D01*
X69963629Y-99112370D01*
X70176757Y-98599100D01*
X70176997Y-98323694D01*
X88285226Y-98323694D01*
X88533538Y-98924655D01*
X88992927Y-99384846D01*
X89593453Y-99634206D01*
X90243694Y-99634774D01*
X90844655Y-99386462D01*
X91304846Y-98927073D01*
X91554206Y-98326547D01*
X91554208Y-98323694D01*
X98445226Y-98323694D01*
X98693538Y-98924655D01*
X99152927Y-99384846D01*
X99753453Y-99634206D01*
X100403694Y-99634774D01*
X101004655Y-99386462D01*
X101464846Y-98927073D01*
X101714206Y-98326547D01*
X101714774Y-97676306D01*
X101466462Y-97075345D01*
X101007073Y-96615154D01*
X100406547Y-96365794D01*
X99756306Y-96365226D01*
X99155345Y-96613538D01*
X98695154Y-97072927D01*
X98445794Y-97673453D01*
X98445226Y-98323694D01*
X91554208Y-98323694D01*
X91554774Y-97676306D01*
X91306462Y-97075345D01*
X90847073Y-96615154D01*
X90246547Y-96365794D01*
X89596306Y-96365226D01*
X88995345Y-96613538D01*
X88535154Y-97072927D01*
X88285794Y-97673453D01*
X88285226Y-98323694D01*
X70176997Y-98323694D01*
X70177242Y-98043339D01*
X69965010Y-97529697D01*
X69621081Y-97185167D01*
X72064838Y-97185167D01*
X72206883Y-97528943D01*
X72469673Y-97792192D01*
X72813201Y-97934838D01*
X73185167Y-97935162D01*
X73528943Y-97793117D01*
X73792192Y-97530327D01*
X73934838Y-97186799D01*
X73934879Y-97139923D01*
X76314802Y-94760000D01*
X88465504Y-94760000D01*
X88533538Y-94924655D01*
X88992927Y-95384846D01*
X89593453Y-95634206D01*
X90243694Y-95634774D01*
X90844655Y-95386462D01*
X91304846Y-94927073D01*
X91554206Y-94326547D01*
X91554208Y-94323694D01*
X98445226Y-94323694D01*
X98693538Y-94924655D01*
X99152927Y-95384846D01*
X99753453Y-95634206D01*
X100403694Y-95634774D01*
X101004655Y-95386462D01*
X101464846Y-94927073D01*
X101714206Y-94326547D01*
X101714774Y-93676306D01*
X101466462Y-93075345D01*
X101007073Y-92615154D01*
X100406547Y-92365794D01*
X99756306Y-92365226D01*
X99155345Y-92613538D01*
X98695154Y-93072927D01*
X98445794Y-93673453D01*
X98445226Y-94323694D01*
X91554208Y-94323694D01*
X91554774Y-93676306D01*
X91306462Y-93075345D01*
X90847073Y-92615154D01*
X90246547Y-92365794D01*
X89596306Y-92365226D01*
X88995345Y-92613538D01*
X88535154Y-93072927D01*
X88465779Y-93240000D01*
X76000000Y-93240000D01*
X75709161Y-93297852D01*
X75462599Y-93462599D01*
X72860320Y-96064878D01*
X72814833Y-96064838D01*
X72471057Y-96206883D01*
X72207808Y-96469673D01*
X72065162Y-96813201D01*
X72064838Y-97185167D01*
X69621081Y-97185167D01*
X69572370Y-97136371D01*
X69364488Y-97050051D01*
X69570303Y-96965010D01*
X69963629Y-96572370D01*
X70176757Y-96059100D01*
X70177242Y-95503339D01*
X69965010Y-94989697D01*
X69572370Y-94596371D01*
X69364488Y-94510051D01*
X69570303Y-94425010D01*
X69963629Y-94032370D01*
X70176757Y-93519100D01*
X70177242Y-92963339D01*
X69965010Y-92449697D01*
X69572370Y-92056371D01*
X69380273Y-91976605D01*
X69511143Y-91922397D01*
X69580608Y-91680213D01*
X68780000Y-90879605D01*
X67979392Y-91680213D01*
X68048857Y-91922397D01*
X68189318Y-91972509D01*
X67989697Y-92054990D01*
X67596371Y-92447630D01*
X67383243Y-92960900D01*
X67382758Y-93516661D01*
X67594990Y-94030303D01*
X67987630Y-94423629D01*
X68195512Y-94509949D01*
X67989697Y-94594990D01*
X67596371Y-94987630D01*
X67383243Y-95500900D01*
X67382758Y-96056661D01*
X67594990Y-96570303D01*
X67987630Y-96963629D01*
X68195512Y-97049949D01*
X67989697Y-97134990D01*
X67596371Y-97527630D01*
X67383243Y-98040900D01*
X67382758Y-98596661D01*
X67594990Y-99110303D01*
X67987630Y-99503629D01*
X68195512Y-99589949D01*
X67989697Y-99674990D01*
X67596371Y-100067630D01*
X67383243Y-100580900D01*
X67382758Y-101136661D01*
X67594990Y-101650303D01*
X67987630Y-102043629D01*
X68195512Y-102129949D01*
X67989697Y-102214990D01*
X67596371Y-102607630D01*
X67383243Y-103120900D01*
X67382758Y-103676661D01*
X67594990Y-104190303D01*
X67987630Y-104583629D01*
X68195512Y-104669949D01*
X67989697Y-104754990D01*
X67596371Y-105147630D01*
X67383243Y-105660900D01*
X67382758Y-106216661D01*
X67594990Y-106730303D01*
X67987630Y-107123629D01*
X68195512Y-107209949D01*
X67989697Y-107294990D01*
X67596371Y-107687630D01*
X67383243Y-108200900D01*
X67382758Y-108756661D01*
X67594990Y-109270303D01*
X67987630Y-109663629D01*
X68195512Y-109749949D01*
X67989697Y-109834990D01*
X67596371Y-110227630D01*
X67383243Y-110740900D01*
X67382758Y-111296661D01*
X67594990Y-111810303D01*
X67987630Y-112203629D01*
X68195512Y-112289949D01*
X67989697Y-112374990D01*
X67596371Y-112767630D01*
X67383243Y-113280900D01*
X67382758Y-113836661D01*
X67594990Y-114350303D01*
X67987630Y-114743629D01*
X68195512Y-114829949D01*
X67989697Y-114914990D01*
X67596371Y-115307630D01*
X67383243Y-115820900D01*
X67382758Y-116376661D01*
X67594990Y-116890303D01*
X67987630Y-117283629D01*
X68195512Y-117369949D01*
X67989697Y-117454990D01*
X67596371Y-117847630D01*
X67383243Y-118360900D01*
X67382758Y-118916661D01*
X67396143Y-118949055D01*
X66105198Y-120240000D01*
X52314802Y-120240000D01*
X50760000Y-118685198D01*
X50760000Y-108000000D01*
X50702148Y-107709161D01*
X50537401Y-107462599D01*
X48537401Y-105462599D01*
X48290839Y-105297852D01*
X48000000Y-105240000D01*
X47287187Y-105240000D01*
X47155922Y-104922314D01*
X46620505Y-104385961D01*
X45920590Y-104095332D01*
X45162735Y-104094670D01*
X44462314Y-104384078D01*
X43925961Y-104919495D01*
X43635332Y-105619410D01*
X43634670Y-106377265D01*
X42365000Y-106377265D01*
X42365000Y-106285750D01*
X42206250Y-106127000D01*
X40587000Y-106127000D01*
X40333000Y-106127000D01*
X38713750Y-106127000D01*
X38555000Y-106285750D01*
X36760000Y-106285750D01*
X36760000Y-104603690D01*
X38555000Y-104603690D01*
X38555000Y-105714250D01*
X38713750Y-105873000D01*
X40333000Y-105873000D01*
X40333000Y-104253750D01*
X40587000Y-104253750D01*
X40587000Y-105873000D01*
X42206250Y-105873000D01*
X42365000Y-105714250D01*
X42365000Y-104603690D01*
X42268327Y-104370301D01*
X42089698Y-104191673D01*
X41856309Y-104095000D01*
X40745750Y-104095000D01*
X40587000Y-104253750D01*
X40333000Y-104253750D01*
X40174250Y-104095000D01*
X39063691Y-104095000D01*
X38830302Y-104191673D01*
X38651673Y-104370301D01*
X38555000Y-104603690D01*
X36760000Y-104603690D01*
X36760000Y-99347777D01*
X39291828Y-99347777D01*
X39423520Y-99642657D01*
X40131036Y-99914261D01*
X40888632Y-99894436D01*
X41496480Y-99642657D01*
X41628172Y-99347777D01*
X40460000Y-98179605D01*
X39291828Y-99347777D01*
X36760000Y-99347777D01*
X36760000Y-97671036D01*
X38545739Y-97671036D01*
X38565564Y-98428632D01*
X38817343Y-99036480D01*
X39112223Y-99168172D01*
X40280395Y-98000000D01*
X40639605Y-98000000D01*
X41807777Y-99168172D01*
X42102657Y-99036480D01*
X42374261Y-98328964D01*
X42354436Y-97571368D01*
X42102657Y-96963520D01*
X41807777Y-96831828D01*
X40639605Y-98000000D01*
X40280395Y-98000000D01*
X39112223Y-96831828D01*
X38817343Y-96963520D01*
X38545739Y-97671036D01*
X36760000Y-97671036D01*
X36760000Y-96652223D01*
X39291828Y-96652223D01*
X40460000Y-97820395D01*
X41550395Y-96730000D01*
X43622560Y-96730000D01*
X43622560Y-99270000D01*
X43666838Y-99505317D01*
X43805910Y-99721441D01*
X44018110Y-99866431D01*
X44270000Y-99917440D01*
X46810000Y-99917440D01*
X47045317Y-99873162D01*
X47261441Y-99734090D01*
X47406431Y-99521890D01*
X47457440Y-99270000D01*
X47457440Y-96730000D01*
X47413162Y-96494683D01*
X47274090Y-96278559D01*
X47061890Y-96133569D01*
X46810000Y-96082560D01*
X44270000Y-96082560D01*
X44034683Y-96126838D01*
X43818559Y-96265910D01*
X43673569Y-96478110D01*
X43622560Y-96730000D01*
X41550395Y-96730000D01*
X41628172Y-96652223D01*
X41496480Y-96357343D01*
X40788964Y-96085739D01*
X40031368Y-96105564D01*
X39423520Y-96357343D01*
X39291828Y-96652223D01*
X36760000Y-96652223D01*
X36760000Y-96314802D01*
X39314802Y-93760000D01*
X41000000Y-93760000D01*
X41290839Y-93702148D01*
X41537401Y-93537401D01*
X46077401Y-88997401D01*
X46223455Y-88778815D01*
X46617686Y-88615922D01*
X47154039Y-88080505D01*
X47444668Y-87380590D01*
X47445330Y-86622735D01*
X47155922Y-85922314D01*
X46620505Y-85385961D01*
X45920590Y-85095332D01*
X45162735Y-85094670D01*
X44462314Y-85384078D01*
X43925961Y-85919495D01*
X43635332Y-86619410D01*
X43634670Y-87377265D01*
X43924078Y-88077686D01*
X44385392Y-88539806D01*
X40685198Y-92240000D01*
X39000000Y-92240000D01*
X38709161Y-92297852D01*
X38462599Y-92462599D01*
X35462599Y-95462599D01*
X35297852Y-95709161D01*
X35240000Y-96000000D01*
X34127000Y-96000000D01*
X34127000Y-87285750D01*
X38555000Y-87285750D01*
X38555000Y-88396310D01*
X38651673Y-88629699D01*
X38830302Y-88808327D01*
X39063691Y-88905000D01*
X40174250Y-88905000D01*
X40333000Y-88746250D01*
X40333000Y-87127000D01*
X40587000Y-87127000D01*
X40587000Y-88746250D01*
X40745750Y-88905000D01*
X41856309Y-88905000D01*
X42089698Y-88808327D01*
X42268327Y-88629699D01*
X42365000Y-88396310D01*
X42365000Y-87285750D01*
X42206250Y-87127000D01*
X40587000Y-87127000D01*
X40333000Y-87127000D01*
X38713750Y-87127000D01*
X38555000Y-87285750D01*
X34127000Y-87285750D01*
X34127000Y-85603690D01*
X38555000Y-85603690D01*
X38555000Y-86714250D01*
X38713750Y-86873000D01*
X40333000Y-86873000D01*
X40333000Y-85253750D01*
X40587000Y-85253750D01*
X40587000Y-86873000D01*
X42206250Y-86873000D01*
X42365000Y-86714250D01*
X42365000Y-85603690D01*
X42268327Y-85370301D01*
X42089698Y-85191673D01*
X41856309Y-85095000D01*
X40745750Y-85095000D01*
X40587000Y-85253750D01*
X40333000Y-85253750D01*
X40174250Y-85095000D01*
X39063691Y-85095000D01*
X38830302Y-85191673D01*
X38651673Y-85370301D01*
X38555000Y-85603690D01*
X34127000Y-85603690D01*
X34127000Y-78276661D01*
X52142758Y-78276661D01*
X52354990Y-78790303D01*
X52747630Y-79183629D01*
X52955512Y-79269949D01*
X52749697Y-79354990D01*
X52356371Y-79747630D01*
X52143243Y-80260900D01*
X52142758Y-80816661D01*
X52354990Y-81330303D01*
X52747630Y-81723629D01*
X52955512Y-81809949D01*
X52749697Y-81894990D01*
X52356371Y-82287630D01*
X52143243Y-82800900D01*
X52142758Y-83356661D01*
X52354990Y-83870303D01*
X52747630Y-84263629D01*
X52955512Y-84349949D01*
X52749697Y-84434990D01*
X52356371Y-84827630D01*
X52143243Y-85340900D01*
X52142758Y-85896661D01*
X52354990Y-86410303D01*
X52747630Y-86803629D01*
X52955512Y-86889949D01*
X52749697Y-86974990D01*
X52356371Y-87367630D01*
X52143243Y-87880900D01*
X52142758Y-88436661D01*
X52354990Y-88950303D01*
X52747630Y-89343629D01*
X52955512Y-89429949D01*
X52749697Y-89514990D01*
X52356371Y-89907630D01*
X52143243Y-90420900D01*
X52142758Y-90976661D01*
X52354990Y-91490303D01*
X52747630Y-91883629D01*
X52955512Y-91969949D01*
X52749697Y-92054990D01*
X52356371Y-92447630D01*
X52143243Y-92960900D01*
X52142758Y-93516661D01*
X52354990Y-94030303D01*
X52747630Y-94423629D01*
X52955512Y-94509949D01*
X52749697Y-94594990D01*
X52356371Y-94987630D01*
X52143243Y-95500900D01*
X52142758Y-96056661D01*
X52354990Y-96570303D01*
X52747630Y-96963629D01*
X52955512Y-97049949D01*
X52749697Y-97134990D01*
X52356371Y-97527630D01*
X52143243Y-98040900D01*
X52142758Y-98596661D01*
X52354990Y-99110303D01*
X52747630Y-99503629D01*
X52955512Y-99589949D01*
X52749697Y-99674990D01*
X52356371Y-100067630D01*
X52143243Y-100580900D01*
X52142758Y-101136661D01*
X52354990Y-101650303D01*
X52747630Y-102043629D01*
X52955512Y-102129949D01*
X52749697Y-102214990D01*
X52356371Y-102607630D01*
X52143243Y-103120900D01*
X52142758Y-103676661D01*
X52354990Y-104190303D01*
X52747630Y-104583629D01*
X52955512Y-104669949D01*
X52749697Y-104754990D01*
X52356371Y-105147630D01*
X52143243Y-105660900D01*
X52142758Y-106216661D01*
X52354990Y-106730303D01*
X52747630Y-107123629D01*
X52955512Y-107209949D01*
X52749697Y-107294990D01*
X52356371Y-107687630D01*
X52143243Y-108200900D01*
X52142758Y-108756661D01*
X52354990Y-109270303D01*
X52747630Y-109663629D01*
X52955512Y-109749949D01*
X52749697Y-109834990D01*
X52356371Y-110227630D01*
X52143243Y-110740900D01*
X52142758Y-111296661D01*
X52354990Y-111810303D01*
X52747630Y-112203629D01*
X52955512Y-112289949D01*
X52749697Y-112374990D01*
X52356371Y-112767630D01*
X52143243Y-113280900D01*
X52142758Y-113836661D01*
X52354990Y-114350303D01*
X52747630Y-114743629D01*
X52955512Y-114829949D01*
X52749697Y-114914990D01*
X52356371Y-115307630D01*
X52143243Y-115820900D01*
X52142758Y-116376661D01*
X52354990Y-116890303D01*
X52747630Y-117283629D01*
X52955512Y-117369949D01*
X52749697Y-117454990D01*
X52356371Y-117847630D01*
X52143243Y-118360900D01*
X52142758Y-118916661D01*
X52354990Y-119430303D01*
X52747630Y-119823629D01*
X53260900Y-120036757D01*
X53816661Y-120037242D01*
X54330303Y-119825010D01*
X54723629Y-119432370D01*
X54936757Y-118919100D01*
X54937242Y-118363339D01*
X54725010Y-117849697D01*
X54332370Y-117456371D01*
X54124488Y-117370051D01*
X54330303Y-117285010D01*
X54723629Y-116892370D01*
X54936757Y-116379100D01*
X54937242Y-115823339D01*
X54725010Y-115309697D01*
X54332370Y-114916371D01*
X54124488Y-114830051D01*
X54330303Y-114745010D01*
X54723629Y-114352370D01*
X54936757Y-113839100D01*
X54937242Y-113283339D01*
X54725010Y-112769697D01*
X54332370Y-112376371D01*
X54124488Y-112290051D01*
X54330303Y-112205010D01*
X54723629Y-111812370D01*
X54936757Y-111299100D01*
X54937242Y-110743339D01*
X54725010Y-110229697D01*
X54332370Y-109836371D01*
X54124488Y-109750051D01*
X54330303Y-109665010D01*
X54723629Y-109272370D01*
X54936757Y-108759100D01*
X54937242Y-108203339D01*
X54725010Y-107689697D01*
X54332370Y-107296371D01*
X54124488Y-107210051D01*
X54330303Y-107125010D01*
X54723629Y-106732370D01*
X54936757Y-106219100D01*
X54937242Y-105663339D01*
X54725010Y-105149697D01*
X54332370Y-104756371D01*
X54124488Y-104670051D01*
X54330303Y-104585010D01*
X54723629Y-104192370D01*
X54936757Y-103679100D01*
X54937242Y-103123339D01*
X54725010Y-102609697D01*
X54332370Y-102216371D01*
X54124488Y-102130051D01*
X54330303Y-102045010D01*
X54723629Y-101652370D01*
X54936757Y-101139100D01*
X54937242Y-100583339D01*
X54725010Y-100069697D01*
X54332370Y-99676371D01*
X54124488Y-99590051D01*
X54330303Y-99505010D01*
X54723629Y-99112370D01*
X54936757Y-98599100D01*
X54937242Y-98043339D01*
X54725010Y-97529697D01*
X54332370Y-97136371D01*
X54124488Y-97050051D01*
X54330303Y-96965010D01*
X54723629Y-96572370D01*
X54936757Y-96059100D01*
X54937242Y-95503339D01*
X54725010Y-94989697D01*
X54332370Y-94596371D01*
X54124488Y-94510051D01*
X54330303Y-94425010D01*
X54723629Y-94032370D01*
X54936757Y-93519100D01*
X54937242Y-92963339D01*
X54725010Y-92449697D01*
X54332370Y-92056371D01*
X54124488Y-91970051D01*
X54330303Y-91885010D01*
X54723629Y-91492370D01*
X54936757Y-90979100D01*
X54937181Y-90492302D01*
X67370856Y-90492302D01*
X67398638Y-91047368D01*
X67557603Y-91431143D01*
X67799787Y-91500608D01*
X68600395Y-90700000D01*
X68959605Y-90700000D01*
X69760213Y-91500608D01*
X70002397Y-91431143D01*
X70189144Y-90907698D01*
X70161362Y-90352632D01*
X70002397Y-89968857D01*
X69760213Y-89899392D01*
X68959605Y-90700000D01*
X68600395Y-90700000D01*
X67799787Y-89899392D01*
X67557603Y-89968857D01*
X67370856Y-90492302D01*
X54937181Y-90492302D01*
X54937242Y-90423339D01*
X54725010Y-89909697D01*
X54332370Y-89516371D01*
X54124488Y-89430051D01*
X54330303Y-89345010D01*
X54723629Y-88952370D01*
X54936757Y-88439100D01*
X54937242Y-87883339D01*
X54725010Y-87369697D01*
X54332370Y-86976371D01*
X54124488Y-86890051D01*
X54330303Y-86805010D01*
X54723629Y-86412370D01*
X54936757Y-85899100D01*
X54937242Y-85343339D01*
X54725010Y-84829697D01*
X54332370Y-84436371D01*
X54124488Y-84350051D01*
X54330303Y-84265010D01*
X54723629Y-83872370D01*
X54936757Y-83359100D01*
X54937242Y-82803339D01*
X54725010Y-82289697D01*
X54332370Y-81896371D01*
X54124488Y-81810051D01*
X54330303Y-81725010D01*
X54723629Y-81332370D01*
X54936757Y-80819100D01*
X54937242Y-80263339D01*
X54725010Y-79749697D01*
X54332370Y-79356371D01*
X54124488Y-79270051D01*
X54330303Y-79185010D01*
X54723629Y-78792370D01*
X54936757Y-78279100D01*
X54936759Y-78276661D01*
X67382758Y-78276661D01*
X67594990Y-78790303D01*
X67987630Y-79183629D01*
X68195512Y-79269949D01*
X67989697Y-79354990D01*
X67596371Y-79747630D01*
X67383243Y-80260900D01*
X67382758Y-80816661D01*
X67594990Y-81330303D01*
X67987630Y-81723629D01*
X68195512Y-81809949D01*
X67989697Y-81894990D01*
X67596371Y-82287630D01*
X67383243Y-82800900D01*
X67382758Y-83356661D01*
X67594990Y-83870303D01*
X67987630Y-84263629D01*
X68195512Y-84349949D01*
X67989697Y-84434990D01*
X67596371Y-84827630D01*
X67383243Y-85340900D01*
X67382758Y-85896661D01*
X67594990Y-86410303D01*
X67987630Y-86803629D01*
X68195512Y-86889949D01*
X67989697Y-86974990D01*
X67596371Y-87367630D01*
X67383243Y-87880900D01*
X67382758Y-88436661D01*
X67594990Y-88950303D01*
X67987630Y-89343629D01*
X68179727Y-89423395D01*
X68048857Y-89477603D01*
X67979392Y-89719787D01*
X68780000Y-90520395D01*
X69580608Y-89719787D01*
X69511143Y-89477603D01*
X69370682Y-89427491D01*
X69570303Y-89345010D01*
X69963629Y-88952370D01*
X70176757Y-88439100D01*
X70176857Y-88323694D01*
X75285226Y-88323694D01*
X75533538Y-88924655D01*
X75992927Y-89384846D01*
X76593453Y-89634206D01*
X77243694Y-89634774D01*
X77844655Y-89386462D01*
X78304846Y-88927073D01*
X78554206Y-88326547D01*
X78554208Y-88323694D01*
X85445226Y-88323694D01*
X85693538Y-88924655D01*
X86152927Y-89384846D01*
X86753453Y-89634206D01*
X87403694Y-89634774D01*
X88004655Y-89386462D01*
X88464846Y-88927073D01*
X88714206Y-88326547D01*
X88714774Y-87676306D01*
X88466462Y-87075345D01*
X88007073Y-86615154D01*
X87406547Y-86365794D01*
X86756306Y-86365226D01*
X86155345Y-86613538D01*
X85695154Y-87072927D01*
X85445794Y-87673453D01*
X85445226Y-88323694D01*
X78554208Y-88323694D01*
X78554774Y-87676306D01*
X78306462Y-87075345D01*
X77847073Y-86615154D01*
X77246547Y-86365794D01*
X76596306Y-86365226D01*
X75995345Y-86613538D01*
X75535154Y-87072927D01*
X75285794Y-87673453D01*
X75285226Y-88323694D01*
X70176857Y-88323694D01*
X70177242Y-87883339D01*
X69965010Y-87369697D01*
X69572370Y-86976371D01*
X69364488Y-86890051D01*
X69570303Y-86805010D01*
X69963629Y-86412370D01*
X70176757Y-85899100D01*
X70177242Y-85343339D01*
X70169125Y-85323694D01*
X88285226Y-85323694D01*
X88533538Y-85924655D01*
X88992927Y-86384846D01*
X89593453Y-86634206D01*
X90243694Y-86634774D01*
X90844655Y-86386462D01*
X91304846Y-85927073D01*
X91554206Y-85326547D01*
X91554208Y-85323694D01*
X98445226Y-85323694D01*
X98693538Y-85924655D01*
X99152927Y-86384846D01*
X99753453Y-86634206D01*
X100403694Y-86634774D01*
X101004655Y-86386462D01*
X101464846Y-85927073D01*
X101714206Y-85326547D01*
X101714774Y-84676306D01*
X101466462Y-84075345D01*
X101007073Y-83615154D01*
X100406547Y-83365794D01*
X99756306Y-83365226D01*
X99155345Y-83613538D01*
X98695154Y-84072927D01*
X98445794Y-84673453D01*
X98445226Y-85323694D01*
X91554208Y-85323694D01*
X91554774Y-84676306D01*
X91306462Y-84075345D01*
X90847073Y-83615154D01*
X90246547Y-83365794D01*
X89596306Y-83365226D01*
X88995345Y-83613538D01*
X88535154Y-84072927D01*
X88285794Y-84673453D01*
X88285226Y-85323694D01*
X70169125Y-85323694D01*
X69965010Y-84829697D01*
X69572370Y-84436371D01*
X69364488Y-84350051D01*
X69570303Y-84265010D01*
X69650285Y-84185167D01*
X72064838Y-84185167D01*
X72206883Y-84528943D01*
X72469673Y-84792192D01*
X72813201Y-84934838D01*
X73185167Y-84935162D01*
X73528943Y-84793117D01*
X73792192Y-84530327D01*
X73934838Y-84186799D01*
X73934879Y-84139923D01*
X76314802Y-81760000D01*
X88465504Y-81760000D01*
X88533538Y-81924655D01*
X88992927Y-82384846D01*
X89593453Y-82634206D01*
X90243694Y-82634774D01*
X90844655Y-82386462D01*
X91304846Y-81927073D01*
X91554206Y-81326547D01*
X91554208Y-81323694D01*
X98445226Y-81323694D01*
X98693538Y-81924655D01*
X99152927Y-82384846D01*
X99753453Y-82634206D01*
X100403694Y-82634774D01*
X101004655Y-82386462D01*
X101464846Y-81927073D01*
X101714206Y-81326547D01*
X101714774Y-80676306D01*
X101466462Y-80075345D01*
X101007073Y-79615154D01*
X100406547Y-79365794D01*
X99756306Y-79365226D01*
X99155345Y-79613538D01*
X98695154Y-80072927D01*
X98445794Y-80673453D01*
X98445226Y-81323694D01*
X91554208Y-81323694D01*
X91554774Y-80676306D01*
X91306462Y-80075345D01*
X90847073Y-79615154D01*
X90246547Y-79365794D01*
X89596306Y-79365226D01*
X88995345Y-79613538D01*
X88535154Y-80072927D01*
X88465779Y-80240000D01*
X76000000Y-80240000D01*
X75709161Y-80297852D01*
X75462599Y-80462599D01*
X72860320Y-83064878D01*
X72814833Y-83064838D01*
X72471057Y-83206883D01*
X72207808Y-83469673D01*
X72065162Y-83813201D01*
X72064838Y-84185167D01*
X69650285Y-84185167D01*
X69963629Y-83872370D01*
X70176757Y-83359100D01*
X70177242Y-82803339D01*
X69965010Y-82289697D01*
X69572370Y-81896371D01*
X69364488Y-81810051D01*
X69570303Y-81725010D01*
X69963629Y-81332370D01*
X70176757Y-80819100D01*
X70177242Y-80263339D01*
X69965010Y-79749697D01*
X69572370Y-79356371D01*
X69364488Y-79270051D01*
X69570303Y-79185010D01*
X69963629Y-78792370D01*
X70158239Y-78323694D01*
X75285226Y-78323694D01*
X75533538Y-78924655D01*
X75992927Y-79384846D01*
X76593453Y-79634206D01*
X77243694Y-79634774D01*
X77844655Y-79386462D01*
X78304846Y-78927073D01*
X78554206Y-78326547D01*
X78554208Y-78323694D01*
X85445226Y-78323694D01*
X85693538Y-78924655D01*
X86152927Y-79384846D01*
X86753453Y-79634206D01*
X87403694Y-79634774D01*
X88004655Y-79386462D01*
X88464846Y-78927073D01*
X88714206Y-78326547D01*
X88714774Y-77676306D01*
X88466462Y-77075345D01*
X88007073Y-76615154D01*
X87406547Y-76365794D01*
X86756306Y-76365226D01*
X86155345Y-76613538D01*
X85695154Y-77072927D01*
X85445794Y-77673453D01*
X85445226Y-78323694D01*
X78554208Y-78323694D01*
X78554774Y-77676306D01*
X78306462Y-77075345D01*
X77847073Y-76615154D01*
X77246547Y-76365794D01*
X76596306Y-76365226D01*
X75995345Y-76613538D01*
X75535154Y-77072927D01*
X75285794Y-77673453D01*
X75285226Y-78323694D01*
X70158239Y-78323694D01*
X70176757Y-78279100D01*
X70177242Y-77723339D01*
X69965010Y-77209697D01*
X69572370Y-76816371D01*
X69059100Y-76603243D01*
X68503339Y-76602758D01*
X67989697Y-76814990D01*
X67596371Y-77207630D01*
X67383243Y-77720900D01*
X67382758Y-78276661D01*
X54936759Y-78276661D01*
X54937242Y-77723339D01*
X54725010Y-77209697D01*
X54332370Y-76816371D01*
X53819100Y-76603243D01*
X53263339Y-76602758D01*
X52749697Y-76814990D01*
X52356371Y-77207630D01*
X52143243Y-77720900D01*
X52142758Y-78276661D01*
X34127000Y-78276661D01*
X34127000Y-75403694D01*
X59365226Y-75403694D01*
X59613538Y-76004655D01*
X60072927Y-76464846D01*
X60673453Y-76714206D01*
X61323694Y-76714774D01*
X61924655Y-76466462D01*
X62384846Y-76007073D01*
X62634206Y-75406547D01*
X62634278Y-75323694D01*
X88285226Y-75323694D01*
X88533538Y-75924655D01*
X88992927Y-76384846D01*
X89593453Y-76634206D01*
X90243694Y-76634774D01*
X90844655Y-76386462D01*
X91304846Y-75927073D01*
X91554206Y-75326547D01*
X91554208Y-75323694D01*
X98445226Y-75323694D01*
X98693538Y-75924655D01*
X99152927Y-76384846D01*
X99753453Y-76634206D01*
X100403694Y-76634774D01*
X101004655Y-76386462D01*
X101464846Y-75927073D01*
X101714206Y-75326547D01*
X101714774Y-74676306D01*
X101466462Y-74075345D01*
X101007073Y-73615154D01*
X100406547Y-73365794D01*
X99756306Y-73365226D01*
X99155345Y-73613538D01*
X98695154Y-74072927D01*
X98445794Y-74673453D01*
X98445226Y-75323694D01*
X91554208Y-75323694D01*
X91554774Y-74676306D01*
X91306462Y-74075345D01*
X90847073Y-73615154D01*
X90246547Y-73365794D01*
X89596306Y-73365226D01*
X88995345Y-73613538D01*
X88535154Y-74072927D01*
X88285794Y-74673453D01*
X88285226Y-75323694D01*
X62634278Y-75323694D01*
X62634774Y-74756306D01*
X62386462Y-74155345D01*
X61927073Y-73695154D01*
X61326547Y-73445794D01*
X60676306Y-73445226D01*
X60075345Y-73693538D01*
X59615154Y-74152927D01*
X59365794Y-74753453D01*
X59365226Y-75403694D01*
X34127000Y-75403694D01*
X34127000Y-70323694D01*
X88285226Y-70323694D01*
X88533538Y-70924655D01*
X88992927Y-71384846D01*
X89593453Y-71634206D01*
X90243694Y-71634774D01*
X90844655Y-71386462D01*
X91304846Y-70927073D01*
X91554206Y-70326547D01*
X91554208Y-70323694D01*
X98445226Y-70323694D01*
X98693538Y-70924655D01*
X99152927Y-71384846D01*
X99753453Y-71634206D01*
X100403694Y-71634774D01*
X101004655Y-71386462D01*
X101464846Y-70927073D01*
X101510693Y-70816661D01*
X106062758Y-70816661D01*
X106274990Y-71330303D01*
X106667630Y-71723629D01*
X106875512Y-71809949D01*
X106669697Y-71894990D01*
X106276371Y-72287630D01*
X106063243Y-72800900D01*
X106062758Y-73356661D01*
X106274990Y-73870303D01*
X106667630Y-74263629D01*
X106875512Y-74349949D01*
X106669697Y-74434990D01*
X106276371Y-74827630D01*
X106063243Y-75340900D01*
X106062758Y-75896661D01*
X106274990Y-76410303D01*
X106667630Y-76803629D01*
X106875512Y-76889949D01*
X106669697Y-76974990D01*
X106276371Y-77367630D01*
X106063243Y-77880900D01*
X106062758Y-78436661D01*
X106274990Y-78950303D01*
X106667630Y-79343629D01*
X106875512Y-79429949D01*
X106669697Y-79514990D01*
X106276371Y-79907630D01*
X106063243Y-80420900D01*
X106062758Y-80976661D01*
X106274990Y-81490303D01*
X106667630Y-81883629D01*
X106875512Y-81969949D01*
X106669697Y-82054990D01*
X106276371Y-82447630D01*
X106063243Y-82960900D01*
X106062758Y-83516661D01*
X106274990Y-84030303D01*
X106667630Y-84423629D01*
X106875512Y-84509949D01*
X106669697Y-84594990D01*
X106276371Y-84987630D01*
X106063243Y-85500900D01*
X106062758Y-86056661D01*
X106274990Y-86570303D01*
X106667630Y-86963629D01*
X106875512Y-87049949D01*
X106669697Y-87134990D01*
X106276371Y-87527630D01*
X106063243Y-88040900D01*
X106062758Y-88596661D01*
X106274990Y-89110303D01*
X106667630Y-89503629D01*
X107180900Y-89716757D01*
X107736661Y-89717242D01*
X108250303Y-89505010D01*
X108643629Y-89112370D01*
X108729949Y-88904488D01*
X108814990Y-89110303D01*
X109207630Y-89503629D01*
X109720900Y-89716757D01*
X110276661Y-89717242D01*
X110790303Y-89505010D01*
X111183629Y-89112370D01*
X111396757Y-88599100D01*
X111397242Y-88043339D01*
X111185010Y-87529697D01*
X110792370Y-87136371D01*
X110584488Y-87050051D01*
X110790303Y-86965010D01*
X111183629Y-86572370D01*
X111396757Y-86059100D01*
X111397242Y-85503339D01*
X111185010Y-84989697D01*
X110792370Y-84596371D01*
X110584488Y-84510051D01*
X110790303Y-84425010D01*
X111183629Y-84032370D01*
X111396757Y-83519100D01*
X111397242Y-82963339D01*
X111383857Y-82930945D01*
X114828000Y-79486802D01*
X114828000Y-91177198D01*
X111396941Y-94608257D01*
X111397242Y-94263339D01*
X111185010Y-93749697D01*
X110792370Y-93356371D01*
X110279100Y-93143243D01*
X109723339Y-93142758D01*
X109209697Y-93354990D01*
X108816371Y-93747630D01*
X108730051Y-93955512D01*
X108645010Y-93749697D01*
X108252370Y-93356371D01*
X107739100Y-93143243D01*
X107183339Y-93142758D01*
X106669697Y-93354990D01*
X106276371Y-93747630D01*
X106063243Y-94260900D01*
X106062758Y-94816661D01*
X106274990Y-95330303D01*
X106667630Y-95723629D01*
X106875512Y-95809949D01*
X106669697Y-95894990D01*
X106276371Y-96287630D01*
X106063243Y-96800900D01*
X106062758Y-97356661D01*
X106274990Y-97870303D01*
X106667630Y-98263629D01*
X106875512Y-98349949D01*
X106669697Y-98434990D01*
X106276371Y-98827630D01*
X106063243Y-99340900D01*
X106062758Y-99896661D01*
X106274990Y-100410303D01*
X106667630Y-100803629D01*
X106875512Y-100889949D01*
X106669697Y-100974990D01*
X106276371Y-101367630D01*
X106063243Y-101880900D01*
X106062758Y-102436661D01*
X106274990Y-102950303D01*
X106667630Y-103343629D01*
X106875512Y-103429949D01*
X106669697Y-103514990D01*
X106276371Y-103907630D01*
X106063243Y-104420900D01*
X106062758Y-104976661D01*
X106274990Y-105490303D01*
X106667630Y-105883629D01*
X106875512Y-105969949D01*
X106669697Y-106054990D01*
X106276371Y-106447630D01*
X106063243Y-106960900D01*
X106062758Y-107516661D01*
X106274990Y-108030303D01*
X106667630Y-108423629D01*
X106875512Y-108509949D01*
X106669697Y-108594990D01*
X106276371Y-108987630D01*
X106063243Y-109500900D01*
X106062758Y-110056661D01*
X106274990Y-110570303D01*
X106667630Y-110963629D01*
X106875512Y-111049949D01*
X106669697Y-111134990D01*
X106276371Y-111527630D01*
X106063243Y-112040900D01*
X106062758Y-112596661D01*
X106274990Y-113110303D01*
X106667630Y-113503629D01*
X107180900Y-113716757D01*
X107736661Y-113717242D01*
X108250303Y-113505010D01*
X108643629Y-113112370D01*
X108729949Y-112904488D01*
X108814990Y-113110303D01*
X109207630Y-113503629D01*
X109720900Y-113716757D01*
X110276661Y-113717242D01*
X110790303Y-113505010D01*
X110971935Y-113323694D01*
X129285226Y-113323694D01*
X129533538Y-113924655D01*
X129992927Y-114384846D01*
X130593453Y-114634206D01*
X131243694Y-114634774D01*
X131844655Y-114386462D01*
X132304846Y-113927073D01*
X132554206Y-113326547D01*
X132554208Y-113323694D01*
X139445226Y-113323694D01*
X139693538Y-113924655D01*
X140152927Y-114384846D01*
X140753453Y-114634206D01*
X141403694Y-114634774D01*
X142004655Y-114386462D01*
X142464846Y-113927073D01*
X142714206Y-113326547D01*
X142714774Y-112676306D01*
X142466462Y-112075345D01*
X142007073Y-111615154D01*
X141406547Y-111365794D01*
X140756306Y-111365226D01*
X140155345Y-111613538D01*
X139695154Y-112072927D01*
X139445794Y-112673453D01*
X139445226Y-113323694D01*
X132554208Y-113323694D01*
X132554774Y-112676306D01*
X132306462Y-112075345D01*
X131847073Y-111615154D01*
X131246547Y-111365794D01*
X130596306Y-111365226D01*
X129995345Y-111613538D01*
X129535154Y-112072927D01*
X129285794Y-112673453D01*
X129285226Y-113323694D01*
X110971935Y-113323694D01*
X111183629Y-113112370D01*
X111396757Y-112599100D01*
X111397242Y-112043339D01*
X111185010Y-111529697D01*
X110792370Y-111136371D01*
X110584488Y-111050051D01*
X110790303Y-110965010D01*
X111183629Y-110572370D01*
X111286888Y-110323694D01*
X116285226Y-110323694D01*
X116533538Y-110924655D01*
X116992927Y-111384846D01*
X117593453Y-111634206D01*
X118243694Y-111634774D01*
X118844655Y-111386462D01*
X119304846Y-110927073D01*
X119554206Y-110326547D01*
X119554208Y-110323694D01*
X126445226Y-110323694D01*
X126693538Y-110924655D01*
X127152927Y-111384846D01*
X127753453Y-111634206D01*
X128403694Y-111634774D01*
X129004655Y-111386462D01*
X129464846Y-110927073D01*
X129714206Y-110326547D01*
X129714774Y-109676306D01*
X129466462Y-109075345D01*
X129007073Y-108615154D01*
X128406547Y-108365794D01*
X127756306Y-108365226D01*
X127155345Y-108613538D01*
X126695154Y-109072927D01*
X126445794Y-109673453D01*
X126445226Y-110323694D01*
X119554208Y-110323694D01*
X119554774Y-109676306D01*
X119306462Y-109075345D01*
X118847073Y-108615154D01*
X118246547Y-108365794D01*
X117596306Y-108365226D01*
X116995345Y-108613538D01*
X116535154Y-109072927D01*
X116285794Y-109673453D01*
X116285226Y-110323694D01*
X111286888Y-110323694D01*
X111396757Y-110059100D01*
X111397242Y-109503339D01*
X111185010Y-108989697D01*
X110792370Y-108596371D01*
X110584488Y-108510051D01*
X110790303Y-108425010D01*
X111183629Y-108032370D01*
X111396757Y-107519100D01*
X111397242Y-106963339D01*
X111383857Y-106930945D01*
X112991108Y-105323694D01*
X116285226Y-105323694D01*
X116533538Y-105924655D01*
X116992927Y-106384846D01*
X117593453Y-106634206D01*
X118243694Y-106634774D01*
X118844655Y-106386462D01*
X119304846Y-105927073D01*
X119554206Y-105326547D01*
X119554208Y-105323694D01*
X126445226Y-105323694D01*
X126693538Y-105924655D01*
X127152927Y-106384846D01*
X127753453Y-106634206D01*
X128403694Y-106634774D01*
X129004655Y-106386462D01*
X129464846Y-105927073D01*
X129534221Y-105760000D01*
X141000000Y-105760000D01*
X141290839Y-105702148D01*
X141537401Y-105537401D01*
X145139680Y-101935122D01*
X145185167Y-101935162D01*
X145528943Y-101793117D01*
X145792192Y-101530327D01*
X145934838Y-101186799D01*
X145935162Y-100814833D01*
X145793117Y-100471057D01*
X145530327Y-100207808D01*
X145186799Y-100065162D01*
X144814833Y-100064838D01*
X144471057Y-100206883D01*
X144207808Y-100469673D01*
X144065162Y-100813201D01*
X144065121Y-100860077D01*
X140685198Y-104240000D01*
X129534496Y-104240000D01*
X129466462Y-104075345D01*
X129007073Y-103615154D01*
X128406547Y-103365794D01*
X127756306Y-103365226D01*
X127155345Y-103613538D01*
X126695154Y-104072927D01*
X126445794Y-104673453D01*
X126445226Y-105323694D01*
X119554208Y-105323694D01*
X119554774Y-104676306D01*
X119306462Y-104075345D01*
X118847073Y-103615154D01*
X118246547Y-103365794D01*
X117596306Y-103365226D01*
X116995345Y-103613538D01*
X116535154Y-104072927D01*
X116285794Y-104673453D01*
X116285226Y-105323694D01*
X112991108Y-105323694D01*
X116125401Y-102189401D01*
X116290148Y-101942840D01*
X116348000Y-101652000D01*
X116348000Y-101323694D01*
X129285226Y-101323694D01*
X129533538Y-101924655D01*
X129992927Y-102384846D01*
X130593453Y-102634206D01*
X131243694Y-102634774D01*
X131844655Y-102386462D01*
X132304846Y-101927073D01*
X132554206Y-101326547D01*
X132554208Y-101323694D01*
X139445226Y-101323694D01*
X139693538Y-101924655D01*
X140152927Y-102384846D01*
X140753453Y-102634206D01*
X141403694Y-102634774D01*
X142004655Y-102386462D01*
X142464846Y-101927073D01*
X142714206Y-101326547D01*
X142714774Y-100676306D01*
X142466462Y-100075345D01*
X142007073Y-99615154D01*
X141406547Y-99365794D01*
X140756306Y-99365226D01*
X140155345Y-99613538D01*
X139695154Y-100072927D01*
X139445794Y-100673453D01*
X139445226Y-101323694D01*
X132554208Y-101323694D01*
X132554774Y-100676306D01*
X132306462Y-100075345D01*
X131847073Y-99615154D01*
X131246547Y-99365794D01*
X130596306Y-99365226D01*
X129995345Y-99613538D01*
X129535154Y-100072927D01*
X129285794Y-100673453D01*
X129285226Y-101323694D01*
X116348000Y-101323694D01*
X116348000Y-98475619D01*
X116533538Y-98924655D01*
X116992927Y-99384846D01*
X117593453Y-99634206D01*
X118243694Y-99634774D01*
X118844655Y-99386462D01*
X119304846Y-98927073D01*
X119554206Y-98326547D01*
X119554208Y-98323694D01*
X126445226Y-98323694D01*
X126693538Y-98924655D01*
X127152927Y-99384846D01*
X127753453Y-99634206D01*
X128403694Y-99634774D01*
X129004655Y-99386462D01*
X129464846Y-98927073D01*
X129714206Y-98326547D01*
X129714774Y-97676306D01*
X129466462Y-97075345D01*
X129007073Y-96615154D01*
X128406547Y-96365794D01*
X127756306Y-96365226D01*
X127155345Y-96613538D01*
X126695154Y-97072927D01*
X126445794Y-97673453D01*
X126445226Y-98323694D01*
X119554208Y-98323694D01*
X119554774Y-97676306D01*
X119306462Y-97075345D01*
X118847073Y-96615154D01*
X118246547Y-96365794D01*
X117596306Y-96365226D01*
X116995345Y-96613538D01*
X116535154Y-97072927D01*
X116348000Y-97523644D01*
X116348000Y-94475619D01*
X116533538Y-94924655D01*
X116992927Y-95384846D01*
X117593453Y-95634206D01*
X118243694Y-95634774D01*
X118844655Y-95386462D01*
X119304846Y-94927073D01*
X119554206Y-94326547D01*
X119554208Y-94323694D01*
X126445226Y-94323694D01*
X126693538Y-94924655D01*
X127152927Y-95384846D01*
X127753453Y-95634206D01*
X128403694Y-95634774D01*
X129004655Y-95386462D01*
X129464846Y-94927073D01*
X129534221Y-94760000D01*
X140000000Y-94760000D01*
X140290839Y-94702148D01*
X140537401Y-94537401D01*
X145139680Y-89935122D01*
X145185167Y-89935162D01*
X145528943Y-89793117D01*
X145792192Y-89530327D01*
X145934838Y-89186799D01*
X145935162Y-88814833D01*
X145793117Y-88471057D01*
X145530327Y-88207808D01*
X145186799Y-88065162D01*
X144814833Y-88064838D01*
X144471057Y-88206883D01*
X144207808Y-88469673D01*
X144065162Y-88813201D01*
X144065121Y-88860077D01*
X139685198Y-93240000D01*
X129534496Y-93240000D01*
X129466462Y-93075345D01*
X129007073Y-92615154D01*
X128406547Y-92365794D01*
X127756306Y-92365226D01*
X127155345Y-92613538D01*
X126695154Y-93072927D01*
X126445794Y-93673453D01*
X126445226Y-94323694D01*
X119554208Y-94323694D01*
X119554774Y-93676306D01*
X119306462Y-93075345D01*
X118847073Y-92615154D01*
X118246547Y-92365794D01*
X117596306Y-92365226D01*
X116995345Y-92613538D01*
X116535154Y-93072927D01*
X116348000Y-93523644D01*
X116348000Y-87323694D01*
X129285226Y-87323694D01*
X129533538Y-87924655D01*
X129992927Y-88384846D01*
X130593453Y-88634206D01*
X131243694Y-88634774D01*
X131844655Y-88386462D01*
X132304846Y-87927073D01*
X132554206Y-87326547D01*
X132554208Y-87323694D01*
X139445226Y-87323694D01*
X139693538Y-87924655D01*
X140152927Y-88384846D01*
X140753453Y-88634206D01*
X141403694Y-88634774D01*
X142004655Y-88386462D01*
X142464846Y-87927073D01*
X142714206Y-87326547D01*
X142714774Y-86676306D01*
X142466462Y-86075345D01*
X142007073Y-85615154D01*
X141406547Y-85365794D01*
X140756306Y-85365226D01*
X140155345Y-85613538D01*
X139695154Y-86072927D01*
X139445794Y-86673453D01*
X139445226Y-87323694D01*
X132554208Y-87323694D01*
X132554774Y-86676306D01*
X132306462Y-86075345D01*
X131847073Y-85615154D01*
X131246547Y-85365794D01*
X130596306Y-85365226D01*
X129995345Y-85613538D01*
X129535154Y-86072927D01*
X129285794Y-86673453D01*
X129285226Y-87323694D01*
X116348000Y-87323694D01*
X116348000Y-85475619D01*
X116533538Y-85924655D01*
X116992927Y-86384846D01*
X117593453Y-86634206D01*
X118243694Y-86634774D01*
X118844655Y-86386462D01*
X119304846Y-85927073D01*
X119554206Y-85326547D01*
X119554208Y-85323694D01*
X126445226Y-85323694D01*
X126693538Y-85924655D01*
X127152927Y-86384846D01*
X127753453Y-86634206D01*
X128403694Y-86634774D01*
X129004655Y-86386462D01*
X129464846Y-85927073D01*
X129714206Y-85326547D01*
X129714774Y-84676306D01*
X129466462Y-84075345D01*
X129007073Y-83615154D01*
X128406547Y-83365794D01*
X127756306Y-83365226D01*
X127155345Y-83613538D01*
X126695154Y-84072927D01*
X126445794Y-84673453D01*
X126445226Y-85323694D01*
X119554208Y-85323694D01*
X119554774Y-84676306D01*
X119306462Y-84075345D01*
X118847073Y-83615154D01*
X118246547Y-83365794D01*
X117596306Y-83365226D01*
X116995345Y-83613538D01*
X116535154Y-84072927D01*
X116348000Y-84523644D01*
X116348000Y-81475619D01*
X116533538Y-81924655D01*
X116992927Y-82384846D01*
X117593453Y-82634206D01*
X118243694Y-82634774D01*
X118844655Y-82386462D01*
X119304846Y-81927073D01*
X119554206Y-81326547D01*
X119554208Y-81323694D01*
X126445226Y-81323694D01*
X126693538Y-81924655D01*
X127152927Y-82384846D01*
X127753453Y-82634206D01*
X128403694Y-82634774D01*
X129004655Y-82386462D01*
X129464846Y-81927073D01*
X129534221Y-81760000D01*
X143000000Y-81760000D01*
X143290839Y-81702148D01*
X143537401Y-81537401D01*
X145139680Y-79935122D01*
X145185167Y-79935162D01*
X145528943Y-79793117D01*
X145792192Y-79530327D01*
X145934838Y-79186799D01*
X145935162Y-78814833D01*
X145793117Y-78471057D01*
X145530327Y-78207808D01*
X145186799Y-78065162D01*
X144814833Y-78064838D01*
X144471057Y-78206883D01*
X144207808Y-78469673D01*
X144065162Y-78813201D01*
X144065121Y-78860077D01*
X142685198Y-80240000D01*
X129534496Y-80240000D01*
X129466462Y-80075345D01*
X129007073Y-79615154D01*
X128406547Y-79365794D01*
X127756306Y-79365226D01*
X127155345Y-79613538D01*
X126695154Y-80072927D01*
X126445794Y-80673453D01*
X126445226Y-81323694D01*
X119554208Y-81323694D01*
X119554774Y-80676306D01*
X119306462Y-80075345D01*
X118847073Y-79615154D01*
X118246547Y-79365794D01*
X117596306Y-79365226D01*
X116995345Y-79613538D01*
X116535154Y-80072927D01*
X116348000Y-80523644D01*
X116348000Y-78323694D01*
X129285226Y-78323694D01*
X129533538Y-78924655D01*
X129992927Y-79384846D01*
X130593453Y-79634206D01*
X131243694Y-79634774D01*
X131844655Y-79386462D01*
X132304846Y-78927073D01*
X132554206Y-78326547D01*
X132554208Y-78323694D01*
X139445226Y-78323694D01*
X139693538Y-78924655D01*
X140152927Y-79384846D01*
X140753453Y-79634206D01*
X141403694Y-79634774D01*
X142004655Y-79386462D01*
X142464846Y-78927073D01*
X142714206Y-78326547D01*
X142714774Y-77676306D01*
X142466462Y-77075345D01*
X142007073Y-76615154D01*
X141406547Y-76365794D01*
X140756306Y-76365226D01*
X140155345Y-76613538D01*
X139695154Y-77072927D01*
X139445794Y-77673453D01*
X139445226Y-78323694D01*
X132554208Y-78323694D01*
X132554774Y-77676306D01*
X132306462Y-77075345D01*
X131847073Y-76615154D01*
X131246547Y-76365794D01*
X130596306Y-76365226D01*
X129995345Y-76613538D01*
X129535154Y-77072927D01*
X129285794Y-77673453D01*
X129285226Y-78323694D01*
X116348000Y-78323694D01*
X116348000Y-75475619D01*
X116533538Y-75924655D01*
X116992927Y-76384846D01*
X117593453Y-76634206D01*
X118243694Y-76634774D01*
X118844655Y-76386462D01*
X119304846Y-75927073D01*
X119554206Y-75326547D01*
X119554208Y-75323694D01*
X126445226Y-75323694D01*
X126693538Y-75924655D01*
X127152927Y-76384846D01*
X127753453Y-76634206D01*
X128403694Y-76634774D01*
X129004655Y-76386462D01*
X129464846Y-75927073D01*
X129714206Y-75326547D01*
X129714774Y-74676306D01*
X129466462Y-74075345D01*
X129007073Y-73615154D01*
X128406547Y-73365794D01*
X127756306Y-73365226D01*
X127155345Y-73613538D01*
X126695154Y-74072927D01*
X126445794Y-74673453D01*
X126445226Y-75323694D01*
X119554208Y-75323694D01*
X119554774Y-74676306D01*
X119306462Y-74075345D01*
X118847073Y-73615154D01*
X118246547Y-73365794D01*
X117596306Y-73365226D01*
X116995345Y-73613538D01*
X116535154Y-74072927D01*
X116348000Y-74523644D01*
X116348000Y-72663954D01*
X116537401Y-72537401D01*
X116702148Y-72290839D01*
X116760000Y-72000000D01*
X116702148Y-71709161D01*
X116537401Y-71462599D01*
X116348000Y-71336046D01*
X116348000Y-70475619D01*
X116533538Y-70924655D01*
X116992927Y-71384846D01*
X117593453Y-71634206D01*
X118243694Y-71634774D01*
X118844655Y-71386462D01*
X119304846Y-70927073D01*
X119554206Y-70326547D01*
X119554208Y-70323694D01*
X126445226Y-70323694D01*
X126693538Y-70924655D01*
X127152927Y-71384846D01*
X127753453Y-71634206D01*
X128403694Y-71634774D01*
X129004655Y-71386462D01*
X129464846Y-70927073D01*
X129714206Y-70326547D01*
X129714774Y-69676306D01*
X129466462Y-69075345D01*
X129007073Y-68615154D01*
X128406547Y-68365794D01*
X127756306Y-68365226D01*
X127155345Y-68613538D01*
X126695154Y-69072927D01*
X126445794Y-69673453D01*
X126445226Y-70323694D01*
X119554208Y-70323694D01*
X119554774Y-69676306D01*
X119306462Y-69075345D01*
X118847073Y-68615154D01*
X118246547Y-68365794D01*
X117596306Y-68365226D01*
X116995345Y-68613538D01*
X116535154Y-69072927D01*
X116348000Y-69523644D01*
X116348000Y-67492000D01*
X116290148Y-67201161D01*
X116125401Y-66954599D01*
X115878839Y-66789852D01*
X115861132Y-66786330D01*
X114935122Y-65860320D01*
X114935162Y-65814833D01*
X114793117Y-65471057D01*
X114530327Y-65207808D01*
X114186799Y-65065162D01*
X113814833Y-65064838D01*
X113471057Y-65206883D01*
X113207808Y-65469673D01*
X113065162Y-65813201D01*
X113064838Y-66185167D01*
X113206883Y-66528943D01*
X113469673Y-66792192D01*
X113813201Y-66934838D01*
X113860077Y-66934879D01*
X114828000Y-67902802D01*
X114828000Y-71097198D01*
X113605198Y-72320000D01*
X111197531Y-72320000D01*
X111185010Y-72289697D01*
X110792370Y-71896371D01*
X110584488Y-71810051D01*
X110790303Y-71725010D01*
X111183629Y-71332370D01*
X111396757Y-70819100D01*
X111397242Y-70263339D01*
X111185010Y-69749697D01*
X110792370Y-69356371D01*
X110279100Y-69143243D01*
X109723339Y-69142758D01*
X109209697Y-69354990D01*
X108816371Y-69747630D01*
X108730051Y-69955512D01*
X108645010Y-69749697D01*
X108252370Y-69356371D01*
X107739100Y-69143243D01*
X107183339Y-69142758D01*
X106669697Y-69354990D01*
X106276371Y-69747630D01*
X106063243Y-70260900D01*
X106062758Y-70816661D01*
X101510693Y-70816661D01*
X101714206Y-70326547D01*
X101714774Y-69676306D01*
X101466462Y-69075345D01*
X101007073Y-68615154D01*
X100406547Y-68365794D01*
X99756306Y-68365226D01*
X99155345Y-68613538D01*
X98695154Y-69072927D01*
X98445794Y-69673453D01*
X98445226Y-70323694D01*
X91554208Y-70323694D01*
X91554774Y-69676306D01*
X91306462Y-69075345D01*
X90847073Y-68615154D01*
X90246547Y-68365794D01*
X89596306Y-68365226D01*
X88995345Y-68613538D01*
X88535154Y-69072927D01*
X88285794Y-69673453D01*
X88285226Y-70323694D01*
X34127000Y-70323694D01*
X34127000Y-65243694D01*
X59365226Y-65243694D01*
X59613538Y-65844655D01*
X60072927Y-66304846D01*
X60673453Y-66554206D01*
X61323694Y-66554774D01*
X61924655Y-66306462D01*
X62104430Y-66127000D01*
X69527320Y-66127000D01*
X69527320Y-67127760D01*
X69719384Y-67839329D01*
X70169133Y-68423233D01*
X70808097Y-68790578D01*
X70992405Y-68838138D01*
X71285000Y-68722011D01*
X71285000Y-66127000D01*
X71539000Y-66127000D01*
X71539000Y-68722011D01*
X71831595Y-68838138D01*
X72015903Y-68790578D01*
X72654867Y-68423233D01*
X73104616Y-67839329D01*
X73296680Y-67127760D01*
X73296680Y-66127000D01*
X71539000Y-66127000D01*
X71285000Y-66127000D01*
X69527320Y-66127000D01*
X62104430Y-66127000D01*
X62384846Y-65847073D01*
X62634206Y-65246547D01*
X62634532Y-64872240D01*
X69527320Y-64872240D01*
X69527320Y-65873000D01*
X71285000Y-65873000D01*
X71285000Y-63277989D01*
X71539000Y-63277989D01*
X71539000Y-65873000D01*
X73296680Y-65873000D01*
X73296680Y-64942711D01*
X75115320Y-64942711D01*
X75115320Y-67057289D01*
X75258783Y-67778525D01*
X75667330Y-68389959D01*
X76278764Y-68798506D01*
X77000000Y-68941969D01*
X77721236Y-68798506D01*
X78332670Y-68389959D01*
X78741217Y-67778525D01*
X78884680Y-67057289D01*
X78884680Y-64942711D01*
X80703320Y-64942711D01*
X80703320Y-67057289D01*
X80846783Y-67778525D01*
X81255330Y-68389959D01*
X81866764Y-68798506D01*
X82588000Y-68941969D01*
X83309236Y-68798506D01*
X83920670Y-68389959D01*
X84329217Y-67778525D01*
X84472680Y-67057289D01*
X84472680Y-64942711D01*
X84329217Y-64221475D01*
X83920670Y-63610041D01*
X83309236Y-63201494D01*
X82588000Y-63058031D01*
X81866764Y-63201494D01*
X81255330Y-63610041D01*
X80846783Y-64221475D01*
X80703320Y-64942711D01*
X78884680Y-64942711D01*
X78741217Y-64221475D01*
X78332670Y-63610041D01*
X77721236Y-63201494D01*
X77000000Y-63058031D01*
X76278764Y-63201494D01*
X75667330Y-63610041D01*
X75258783Y-64221475D01*
X75115320Y-64942711D01*
X73296680Y-64942711D01*
X73296680Y-64872240D01*
X73104616Y-64160671D01*
X72654867Y-63576767D01*
X72015903Y-63209422D01*
X71831595Y-63161862D01*
X71539000Y-63277989D01*
X71285000Y-63277989D01*
X70992405Y-63161862D01*
X70808097Y-63209422D01*
X70169133Y-63576767D01*
X69719384Y-64160671D01*
X69527320Y-64872240D01*
X62634532Y-64872240D01*
X62634774Y-64596306D01*
X62386462Y-63995345D01*
X61927073Y-63535154D01*
X61326547Y-63285794D01*
X60676306Y-63285226D01*
X60075345Y-63533538D01*
X59615154Y-63992927D01*
X59365794Y-64593453D01*
X59365226Y-65243694D01*
X34127000Y-65243694D01*
X34127000Y-62127000D01*
X146873000Y-62127000D01*
X146873000Y-133873000D01*
M02*
