G04 #@! TF.FileFunction,Legend,Top*
%FSLAX46Y46*%
G04 Gerber Fmt 4.6, Leading zero omitted, Abs format (unit mm)*
G04 Created by KiCad (PCBNEW 4.0.1-3.201512221402+6198~38~ubuntu15.04.1-stable) date Mon 11 Jan 2016 13:06:15 CET*
%MOMM*%
G01*
G04 APERTURE LIST*
%ADD10C,0.100000*%
%ADD11C,0.300000*%
%ADD12C,0.150000*%
G04 APERTURE END LIST*
D10*
D11*
X36214286Y-65678571D02*
X36214286Y-64178571D01*
X36214286Y-64892857D02*
X37071429Y-64892857D01*
X37071429Y-65678571D02*
X37071429Y-64178571D01*
X38428572Y-64678571D02*
X38428572Y-65678571D01*
X37785715Y-64678571D02*
X37785715Y-65464286D01*
X37857143Y-65607143D01*
X38000001Y-65678571D01*
X38214286Y-65678571D01*
X38357143Y-65607143D01*
X38428572Y-65535714D01*
X39071429Y-65607143D02*
X39214286Y-65678571D01*
X39500001Y-65678571D01*
X39642858Y-65607143D01*
X39714286Y-65464286D01*
X39714286Y-65392857D01*
X39642858Y-65250000D01*
X39500001Y-65178571D01*
X39285715Y-65178571D01*
X39142858Y-65107143D01*
X39071429Y-64964286D01*
X39071429Y-64892857D01*
X39142858Y-64750000D01*
X39285715Y-64678571D01*
X39500001Y-64678571D01*
X39642858Y-64750000D01*
X40357144Y-65678571D02*
X40357144Y-64178571D01*
X40357144Y-64750000D02*
X40500001Y-64678571D01*
X40785715Y-64678571D01*
X40928572Y-64750000D01*
X41000001Y-64821429D01*
X41071430Y-64964286D01*
X41071430Y-65392857D01*
X41000001Y-65535714D01*
X40928572Y-65607143D01*
X40785715Y-65678571D01*
X40500001Y-65678571D01*
X40357144Y-65607143D01*
X42357144Y-65678571D02*
X42357144Y-64892857D01*
X42285715Y-64750000D01*
X42142858Y-64678571D01*
X41857144Y-64678571D01*
X41714287Y-64750000D01*
X42357144Y-65607143D02*
X42214287Y-65678571D01*
X41857144Y-65678571D01*
X41714287Y-65607143D01*
X41642858Y-65464286D01*
X41642858Y-65321429D01*
X41714287Y-65178571D01*
X41857144Y-65107143D01*
X42214287Y-65107143D01*
X42357144Y-65035714D01*
X43071430Y-64678571D02*
X43071430Y-65678571D01*
X43071430Y-64821429D02*
X43142858Y-64750000D01*
X43285716Y-64678571D01*
X43500001Y-64678571D01*
X43642858Y-64750000D01*
X43714287Y-64892857D01*
X43714287Y-65678571D01*
X45071430Y-65678571D02*
X45071430Y-64178571D01*
X45071430Y-65607143D02*
X44928573Y-65678571D01*
X44642859Y-65678571D01*
X44500001Y-65607143D01*
X44428573Y-65535714D01*
X44357144Y-65392857D01*
X44357144Y-64964286D01*
X44428573Y-64821429D01*
X44500001Y-64750000D01*
X44642859Y-64678571D01*
X44928573Y-64678571D01*
X45071430Y-64750000D01*
X47714287Y-65678571D02*
X46857144Y-65678571D01*
X47285716Y-65678571D02*
X47285716Y-64178571D01*
X47142859Y-64392857D01*
X47000001Y-64535714D01*
X46857144Y-64607143D01*
X48357144Y-65535714D02*
X48428572Y-65607143D01*
X48357144Y-65678571D01*
X48285715Y-65607143D01*
X48357144Y-65535714D01*
X48357144Y-65678571D01*
X49357144Y-64178571D02*
X49500001Y-64178571D01*
X49642858Y-64250000D01*
X49714287Y-64321429D01*
X49785716Y-64464286D01*
X49857144Y-64750000D01*
X49857144Y-65107143D01*
X49785716Y-65392857D01*
X49714287Y-65535714D01*
X49642858Y-65607143D01*
X49500001Y-65678571D01*
X49357144Y-65678571D01*
X49214287Y-65607143D01*
X49142858Y-65535714D01*
X49071430Y-65392857D01*
X49000001Y-65107143D01*
X49000001Y-64750000D01*
X49071430Y-64464286D01*
X49142858Y-64321429D01*
X49214287Y-64250000D01*
X49357144Y-64178571D01*
D12*
X48080000Y-108540000D02*
X37920000Y-108540000D01*
X48080000Y-109810000D02*
X48080000Y-102190000D01*
X48080000Y-102190000D02*
X37920000Y-102190000D01*
X37920000Y-102190000D02*
X37920000Y-109810000D01*
X37920000Y-109810000D02*
X48080000Y-109810000D01*
X48080000Y-89540000D02*
X37920000Y-89540000D01*
X48080000Y-90810000D02*
X48080000Y-83190000D01*
X48080000Y-83190000D02*
X37920000Y-83190000D01*
X37920000Y-83190000D02*
X37920000Y-90810000D01*
X37920000Y-90810000D02*
X48080000Y-90810000D01*
X104920000Y-68000000D02*
X104920000Y-90860000D01*
X104920000Y-90860000D02*
X112540000Y-90860000D01*
X112540000Y-90860000D02*
X112540000Y-68000000D01*
X112540000Y-68000000D02*
X104920000Y-68000000D01*
X104920000Y-92000000D02*
X104920000Y-114860000D01*
X104920000Y-114860000D02*
X112540000Y-114860000D01*
X112540000Y-114860000D02*
X112540000Y-92000000D01*
X112540000Y-92000000D02*
X104920000Y-92000000D01*
X37920000Y-95460000D02*
X48080000Y-95460000D01*
X37920000Y-94190000D02*
X37920000Y-101810000D01*
X37920000Y-101810000D02*
X48080000Y-101810000D01*
X48080000Y-101810000D02*
X48080000Y-94190000D01*
X48080000Y-94190000D02*
X37920000Y-94190000D01*
X90128000Y-124794000D02*
X90128000Y-119206000D01*
X90128000Y-119206000D02*
X73872000Y-119206000D01*
X73872000Y-119206000D02*
X73872000Y-124794000D01*
X73872000Y-124794000D02*
X90128000Y-124794000D01*
X116128000Y-124794000D02*
X116128000Y-119206000D01*
X116128000Y-119206000D02*
X99872000Y-119206000D01*
X99872000Y-119206000D02*
X99872000Y-124794000D01*
X99872000Y-124794000D02*
X116128000Y-124794000D01*
X144128000Y-124794000D02*
X144128000Y-119206000D01*
X144128000Y-119206000D02*
X127872000Y-119206000D01*
X127872000Y-119206000D02*
X127872000Y-124794000D01*
X127872000Y-124794000D02*
X144128000Y-124794000D01*
X68872000Y-63206000D02*
X68872000Y-68794000D01*
X68872000Y-68794000D02*
X85128000Y-68794000D01*
X85128000Y-68794000D02*
X85128000Y-63206000D01*
X85128000Y-63206000D02*
X68872000Y-63206000D01*
X36730000Y-124540000D02*
X36730000Y-119460000D01*
X36730000Y-119460000D02*
X39270000Y-119460000D01*
X39270000Y-119460000D02*
X39270000Y-124540000D01*
X39270000Y-124540000D02*
X36730000Y-124540000D01*
X38000000Y-124540000D02*
X38000000Y-125810000D01*
X38000000Y-119460000D02*
X38000000Y-118190000D01*
X40730000Y-124540000D02*
X40730000Y-119460000D01*
X40730000Y-119460000D02*
X43270000Y-119460000D01*
X43270000Y-119460000D02*
X43270000Y-124540000D01*
X43270000Y-124540000D02*
X40730000Y-124540000D01*
X42000000Y-124540000D02*
X42000000Y-125810000D01*
X42000000Y-119460000D02*
X42000000Y-118190000D01*
X44730000Y-124540000D02*
X44730000Y-119460000D01*
X44730000Y-119460000D02*
X47270000Y-119460000D01*
X47270000Y-119460000D02*
X47270000Y-124540000D01*
X47270000Y-124540000D02*
X44730000Y-124540000D01*
X46000000Y-124540000D02*
X46000000Y-125810000D01*
X46000000Y-119460000D02*
X46000000Y-118190000D01*
X141540000Y-131270000D02*
X136460000Y-131270000D01*
X136460000Y-131270000D02*
X136460000Y-128730000D01*
X136460000Y-128730000D02*
X141540000Y-128730000D01*
X141540000Y-128730000D02*
X141540000Y-131270000D01*
X141540000Y-130000000D02*
X142810000Y-130000000D01*
X136460000Y-130000000D02*
X135190000Y-130000000D01*
X115540000Y-129270000D02*
X110460000Y-129270000D01*
X110460000Y-129270000D02*
X110460000Y-126730000D01*
X110460000Y-126730000D02*
X115540000Y-126730000D01*
X115540000Y-126730000D02*
X115540000Y-129270000D01*
X115540000Y-128000000D02*
X116810000Y-128000000D01*
X110460000Y-128000000D02*
X109190000Y-128000000D01*
X58540000Y-125270000D02*
X53460000Y-125270000D01*
X53460000Y-125270000D02*
X53460000Y-122730000D01*
X53460000Y-122730000D02*
X58540000Y-122730000D01*
X58540000Y-122730000D02*
X58540000Y-125270000D01*
X58540000Y-124000000D02*
X59810000Y-124000000D01*
X53460000Y-124000000D02*
X52190000Y-124000000D01*
X62270000Y-67460000D02*
X62270000Y-72540000D01*
X62270000Y-72540000D02*
X59730000Y-72540000D01*
X59730000Y-72540000D02*
X59730000Y-67460000D01*
X59730000Y-67460000D02*
X62270000Y-67460000D01*
X61000000Y-67460000D02*
X61000000Y-66190000D01*
X61000000Y-72540000D02*
X61000000Y-73810000D01*
X97540000Y-71270000D02*
X92460000Y-71270000D01*
X92460000Y-71270000D02*
X92460000Y-68730000D01*
X92460000Y-68730000D02*
X97540000Y-68730000D01*
X97540000Y-68730000D02*
X97540000Y-71270000D01*
X97540000Y-70000000D02*
X98810000Y-70000000D01*
X92460000Y-70000000D02*
X91190000Y-70000000D01*
X97540000Y-76270000D02*
X92460000Y-76270000D01*
X92460000Y-76270000D02*
X92460000Y-73730000D01*
X92460000Y-73730000D02*
X97540000Y-73730000D01*
X97540000Y-73730000D02*
X97540000Y-76270000D01*
X97540000Y-75000000D02*
X98810000Y-75000000D01*
X92460000Y-75000000D02*
X91190000Y-75000000D01*
X84540000Y-79270000D02*
X79460000Y-79270000D01*
X79460000Y-79270000D02*
X79460000Y-76730000D01*
X79460000Y-76730000D02*
X84540000Y-76730000D01*
X84540000Y-76730000D02*
X84540000Y-79270000D01*
X84540000Y-78000000D02*
X85810000Y-78000000D01*
X79460000Y-78000000D02*
X78190000Y-78000000D01*
X97540000Y-82270000D02*
X92460000Y-82270000D01*
X92460000Y-82270000D02*
X92460000Y-79730000D01*
X92460000Y-79730000D02*
X97540000Y-79730000D01*
X97540000Y-79730000D02*
X97540000Y-82270000D01*
X97540000Y-81000000D02*
X98810000Y-81000000D01*
X92460000Y-81000000D02*
X91190000Y-81000000D01*
X97540000Y-86270000D02*
X92460000Y-86270000D01*
X92460000Y-86270000D02*
X92460000Y-83730000D01*
X92460000Y-83730000D02*
X97540000Y-83730000D01*
X97540000Y-83730000D02*
X97540000Y-86270000D01*
X97540000Y-85000000D02*
X98810000Y-85000000D01*
X92460000Y-85000000D02*
X91190000Y-85000000D01*
X84540000Y-89270000D02*
X79460000Y-89270000D01*
X79460000Y-89270000D02*
X79460000Y-86730000D01*
X79460000Y-86730000D02*
X84540000Y-86730000D01*
X84540000Y-86730000D02*
X84540000Y-89270000D01*
X84540000Y-88000000D02*
X85810000Y-88000000D01*
X79460000Y-88000000D02*
X78190000Y-88000000D01*
X97540000Y-95270000D02*
X92460000Y-95270000D01*
X92460000Y-95270000D02*
X92460000Y-92730000D01*
X92460000Y-92730000D02*
X97540000Y-92730000D01*
X97540000Y-92730000D02*
X97540000Y-95270000D01*
X97540000Y-94000000D02*
X98810000Y-94000000D01*
X92460000Y-94000000D02*
X91190000Y-94000000D01*
X97540000Y-99270000D02*
X92460000Y-99270000D01*
X92460000Y-99270000D02*
X92460000Y-96730000D01*
X92460000Y-96730000D02*
X97540000Y-96730000D01*
X97540000Y-96730000D02*
X97540000Y-99270000D01*
X97540000Y-98000000D02*
X98810000Y-98000000D01*
X92460000Y-98000000D02*
X91190000Y-98000000D01*
X84540000Y-103270000D02*
X79460000Y-103270000D01*
X79460000Y-103270000D02*
X79460000Y-100730000D01*
X79460000Y-100730000D02*
X84540000Y-100730000D01*
X84540000Y-100730000D02*
X84540000Y-103270000D01*
X84540000Y-102000000D02*
X85810000Y-102000000D01*
X79460000Y-102000000D02*
X78190000Y-102000000D01*
X97540000Y-106270000D02*
X92460000Y-106270000D01*
X92460000Y-106270000D02*
X92460000Y-103730000D01*
X92460000Y-103730000D02*
X97540000Y-103730000D01*
X97540000Y-103730000D02*
X97540000Y-106270000D01*
X97540000Y-105000000D02*
X98810000Y-105000000D01*
X92460000Y-105000000D02*
X91190000Y-105000000D01*
X97540000Y-110270000D02*
X92460000Y-110270000D01*
X92460000Y-110270000D02*
X92460000Y-107730000D01*
X92460000Y-107730000D02*
X97540000Y-107730000D01*
X97540000Y-107730000D02*
X97540000Y-110270000D01*
X97540000Y-109000000D02*
X98810000Y-109000000D01*
X92460000Y-109000000D02*
X91190000Y-109000000D01*
X84540000Y-114270000D02*
X79460000Y-114270000D01*
X79460000Y-114270000D02*
X79460000Y-111730000D01*
X79460000Y-111730000D02*
X84540000Y-111730000D01*
X84540000Y-111730000D02*
X84540000Y-114270000D01*
X84540000Y-113000000D02*
X85810000Y-113000000D01*
X79460000Y-113000000D02*
X78190000Y-113000000D01*
X125540000Y-71270000D02*
X120460000Y-71270000D01*
X120460000Y-71270000D02*
X120460000Y-68730000D01*
X120460000Y-68730000D02*
X125540000Y-68730000D01*
X125540000Y-68730000D02*
X125540000Y-71270000D01*
X125540000Y-70000000D02*
X126810000Y-70000000D01*
X120460000Y-70000000D02*
X119190000Y-70000000D01*
X125540000Y-76270000D02*
X120460000Y-76270000D01*
X120460000Y-76270000D02*
X120460000Y-73730000D01*
X120460000Y-73730000D02*
X125540000Y-73730000D01*
X125540000Y-73730000D02*
X125540000Y-76270000D01*
X125540000Y-75000000D02*
X126810000Y-75000000D01*
X120460000Y-75000000D02*
X119190000Y-75000000D01*
X138540000Y-79270000D02*
X133460000Y-79270000D01*
X133460000Y-79270000D02*
X133460000Y-76730000D01*
X133460000Y-76730000D02*
X138540000Y-76730000D01*
X138540000Y-76730000D02*
X138540000Y-79270000D01*
X138540000Y-78000000D02*
X139810000Y-78000000D01*
X133460000Y-78000000D02*
X132190000Y-78000000D01*
X125540000Y-82270000D02*
X120460000Y-82270000D01*
X120460000Y-82270000D02*
X120460000Y-79730000D01*
X120460000Y-79730000D02*
X125540000Y-79730000D01*
X125540000Y-79730000D02*
X125540000Y-82270000D01*
X125540000Y-81000000D02*
X126810000Y-81000000D01*
X120460000Y-81000000D02*
X119190000Y-81000000D01*
X125540000Y-86270000D02*
X120460000Y-86270000D01*
X120460000Y-86270000D02*
X120460000Y-83730000D01*
X120460000Y-83730000D02*
X125540000Y-83730000D01*
X125540000Y-83730000D02*
X125540000Y-86270000D01*
X125540000Y-85000000D02*
X126810000Y-85000000D01*
X120460000Y-85000000D02*
X119190000Y-85000000D01*
X138540000Y-88270000D02*
X133460000Y-88270000D01*
X133460000Y-88270000D02*
X133460000Y-85730000D01*
X133460000Y-85730000D02*
X138540000Y-85730000D01*
X138540000Y-85730000D02*
X138540000Y-88270000D01*
X138540000Y-87000000D02*
X139810000Y-87000000D01*
X133460000Y-87000000D02*
X132190000Y-87000000D01*
X125540000Y-95270000D02*
X120460000Y-95270000D01*
X120460000Y-95270000D02*
X120460000Y-92730000D01*
X120460000Y-92730000D02*
X125540000Y-92730000D01*
X125540000Y-92730000D02*
X125540000Y-95270000D01*
X125540000Y-94000000D02*
X126810000Y-94000000D01*
X120460000Y-94000000D02*
X119190000Y-94000000D01*
X125540000Y-99270000D02*
X120460000Y-99270000D01*
X120460000Y-99270000D02*
X120460000Y-96730000D01*
X120460000Y-96730000D02*
X125540000Y-96730000D01*
X125540000Y-96730000D02*
X125540000Y-99270000D01*
X125540000Y-98000000D02*
X126810000Y-98000000D01*
X120460000Y-98000000D02*
X119190000Y-98000000D01*
X138540000Y-102270000D02*
X133460000Y-102270000D01*
X133460000Y-102270000D02*
X133460000Y-99730000D01*
X133460000Y-99730000D02*
X138540000Y-99730000D01*
X138540000Y-99730000D02*
X138540000Y-102270000D01*
X138540000Y-101000000D02*
X139810000Y-101000000D01*
X133460000Y-101000000D02*
X132190000Y-101000000D01*
X125540000Y-106270000D02*
X120460000Y-106270000D01*
X120460000Y-106270000D02*
X120460000Y-103730000D01*
X120460000Y-103730000D02*
X125540000Y-103730000D01*
X125540000Y-103730000D02*
X125540000Y-106270000D01*
X125540000Y-105000000D02*
X126810000Y-105000000D01*
X120460000Y-105000000D02*
X119190000Y-105000000D01*
X125540000Y-111270000D02*
X120460000Y-111270000D01*
X120460000Y-111270000D02*
X120460000Y-108730000D01*
X120460000Y-108730000D02*
X125540000Y-108730000D01*
X125540000Y-108730000D02*
X125540000Y-111270000D01*
X125540000Y-110000000D02*
X126810000Y-110000000D01*
X120460000Y-110000000D02*
X119190000Y-110000000D01*
X138540000Y-114270000D02*
X133460000Y-114270000D01*
X133460000Y-114270000D02*
X133460000Y-111730000D01*
X133460000Y-111730000D02*
X138540000Y-111730000D01*
X138540000Y-111730000D02*
X138540000Y-114270000D01*
X138540000Y-113000000D02*
X139810000Y-113000000D01*
X133460000Y-113000000D02*
X132190000Y-113000000D01*
X47261905Y-93452381D02*
X47261905Y-92452381D01*
X47642858Y-92452381D01*
X47738096Y-92500000D01*
X47785715Y-92547619D01*
X47833334Y-92642857D01*
X47833334Y-92785714D01*
X47785715Y-92880952D01*
X47738096Y-92928571D01*
X47642858Y-92976190D01*
X47261905Y-92976190D01*
X48785715Y-93452381D02*
X48214286Y-93452381D01*
X48500000Y-93452381D02*
X48500000Y-92452381D01*
X48404762Y-92595238D01*
X48309524Y-92690476D01*
X48214286Y-92738095D01*
X42261905Y-82372381D02*
X42261905Y-81372381D01*
X42642858Y-81372381D01*
X42738096Y-81420000D01*
X42785715Y-81467619D01*
X42833334Y-81562857D01*
X42833334Y-81705714D01*
X42785715Y-81800952D01*
X42738096Y-81848571D01*
X42642858Y-81896190D01*
X42261905Y-81896190D01*
X43214286Y-81467619D02*
X43261905Y-81420000D01*
X43357143Y-81372381D01*
X43595239Y-81372381D01*
X43690477Y-81420000D01*
X43738096Y-81467619D01*
X43785715Y-81562857D01*
X43785715Y-81658095D01*
X43738096Y-81800952D01*
X43166667Y-82372381D01*
X43785715Y-82372381D01*
X109261905Y-68952381D02*
X109261905Y-67952381D01*
X109642858Y-67952381D01*
X109738096Y-68000000D01*
X109785715Y-68047619D01*
X109833334Y-68142857D01*
X109833334Y-68285714D01*
X109785715Y-68380952D01*
X109738096Y-68428571D01*
X109642858Y-68476190D01*
X109261905Y-68476190D01*
X110166667Y-67952381D02*
X110785715Y-67952381D01*
X110452381Y-68333333D01*
X110595239Y-68333333D01*
X110690477Y-68380952D01*
X110738096Y-68428571D01*
X110785715Y-68523810D01*
X110785715Y-68761905D01*
X110738096Y-68857143D01*
X110690477Y-68904762D01*
X110595239Y-68952381D01*
X110309524Y-68952381D01*
X110214286Y-68904762D01*
X110166667Y-68857143D01*
X109261905Y-92952381D02*
X109261905Y-91952381D01*
X109642858Y-91952381D01*
X109738096Y-92000000D01*
X109785715Y-92047619D01*
X109833334Y-92142857D01*
X109833334Y-92285714D01*
X109785715Y-92380952D01*
X109738096Y-92428571D01*
X109642858Y-92476190D01*
X109261905Y-92476190D01*
X110690477Y-92285714D02*
X110690477Y-92952381D01*
X110452381Y-91904762D02*
X110214286Y-92619048D01*
X110833334Y-92619048D01*
X44261905Y-111452381D02*
X44261905Y-110452381D01*
X44642858Y-110452381D01*
X44738096Y-110500000D01*
X44785715Y-110547619D01*
X44833334Y-110642857D01*
X44833334Y-110785714D01*
X44785715Y-110880952D01*
X44738096Y-110928571D01*
X44642858Y-110976190D01*
X44261905Y-110976190D01*
X45738096Y-110452381D02*
X45261905Y-110452381D01*
X45214286Y-110928571D01*
X45261905Y-110880952D01*
X45357143Y-110833333D01*
X45595239Y-110833333D01*
X45690477Y-110880952D01*
X45738096Y-110928571D01*
X45785715Y-111023810D01*
X45785715Y-111261905D01*
X45738096Y-111357143D01*
X45690477Y-111404762D01*
X45595239Y-111452381D01*
X45357143Y-111452381D01*
X45261905Y-111404762D01*
X45214286Y-111357143D01*
X81904762Y-118547619D02*
X81809524Y-118500000D01*
X81714286Y-118404762D01*
X81571429Y-118261905D01*
X81476190Y-118214286D01*
X81380952Y-118214286D01*
X81428571Y-118452381D02*
X81333333Y-118404762D01*
X81238095Y-118309524D01*
X81190476Y-118119048D01*
X81190476Y-117785714D01*
X81238095Y-117595238D01*
X81333333Y-117500000D01*
X81428571Y-117452381D01*
X81619048Y-117452381D01*
X81714286Y-117500000D01*
X81809524Y-117595238D01*
X81857143Y-117785714D01*
X81857143Y-118119048D01*
X81809524Y-118309524D01*
X81714286Y-118404762D01*
X81619048Y-118452381D01*
X81428571Y-118452381D01*
X82809524Y-118452381D02*
X82238095Y-118452381D01*
X82523809Y-118452381D02*
X82523809Y-117452381D01*
X82428571Y-117595238D01*
X82333333Y-117690476D01*
X82238095Y-117738095D01*
X106904762Y-118547619D02*
X106809524Y-118500000D01*
X106714286Y-118404762D01*
X106571429Y-118261905D01*
X106476190Y-118214286D01*
X106380952Y-118214286D01*
X106428571Y-118452381D02*
X106333333Y-118404762D01*
X106238095Y-118309524D01*
X106190476Y-118119048D01*
X106190476Y-117785714D01*
X106238095Y-117595238D01*
X106333333Y-117500000D01*
X106428571Y-117452381D01*
X106619048Y-117452381D01*
X106714286Y-117500000D01*
X106809524Y-117595238D01*
X106857143Y-117785714D01*
X106857143Y-118119048D01*
X106809524Y-118309524D01*
X106714286Y-118404762D01*
X106619048Y-118452381D01*
X106428571Y-118452381D01*
X107238095Y-117547619D02*
X107285714Y-117500000D01*
X107380952Y-117452381D01*
X107619048Y-117452381D01*
X107714286Y-117500000D01*
X107761905Y-117547619D01*
X107809524Y-117642857D01*
X107809524Y-117738095D01*
X107761905Y-117880952D01*
X107190476Y-118452381D01*
X107809524Y-118452381D01*
X140904762Y-118547619D02*
X140809524Y-118500000D01*
X140714286Y-118404762D01*
X140571429Y-118261905D01*
X140476190Y-118214286D01*
X140380952Y-118214286D01*
X140428571Y-118452381D02*
X140333333Y-118404762D01*
X140238095Y-118309524D01*
X140190476Y-118119048D01*
X140190476Y-117785714D01*
X140238095Y-117595238D01*
X140333333Y-117500000D01*
X140428571Y-117452381D01*
X140619048Y-117452381D01*
X140714286Y-117500000D01*
X140809524Y-117595238D01*
X140857143Y-117785714D01*
X140857143Y-118119048D01*
X140809524Y-118309524D01*
X140714286Y-118404762D01*
X140619048Y-118452381D01*
X140428571Y-118452381D01*
X141190476Y-117452381D02*
X141809524Y-117452381D01*
X141476190Y-117833333D01*
X141619048Y-117833333D01*
X141714286Y-117880952D01*
X141761905Y-117928571D01*
X141809524Y-118023810D01*
X141809524Y-118261905D01*
X141761905Y-118357143D01*
X141714286Y-118404762D01*
X141619048Y-118452381D01*
X141333333Y-118452381D01*
X141238095Y-118404762D01*
X141190476Y-118357143D01*
X85904762Y-68547619D02*
X85809524Y-68500000D01*
X85714286Y-68404762D01*
X85571429Y-68261905D01*
X85476190Y-68214286D01*
X85380952Y-68214286D01*
X85428571Y-68452381D02*
X85333333Y-68404762D01*
X85238095Y-68309524D01*
X85190476Y-68119048D01*
X85190476Y-67785714D01*
X85238095Y-67595238D01*
X85333333Y-67500000D01*
X85428571Y-67452381D01*
X85619048Y-67452381D01*
X85714286Y-67500000D01*
X85809524Y-67595238D01*
X85857143Y-67785714D01*
X85857143Y-68119048D01*
X85809524Y-68309524D01*
X85714286Y-68404762D01*
X85619048Y-68452381D01*
X85428571Y-68452381D01*
X86714286Y-67785714D02*
X86714286Y-68452381D01*
X86476190Y-67404762D02*
X86238095Y-68119048D01*
X86857143Y-68119048D01*
X38452381Y-114166666D02*
X37976190Y-114500000D01*
X38452381Y-114738095D02*
X37452381Y-114738095D01*
X37452381Y-114357142D01*
X37500000Y-114261904D01*
X37547619Y-114214285D01*
X37642857Y-114166666D01*
X37785714Y-114166666D01*
X37880952Y-114214285D01*
X37928571Y-114261904D01*
X37976190Y-114357142D01*
X37976190Y-114738095D01*
X38452381Y-113214285D02*
X38452381Y-113785714D01*
X38452381Y-113500000D02*
X37452381Y-113500000D01*
X37595238Y-113595238D01*
X37690476Y-113690476D01*
X37738095Y-113785714D01*
X42452381Y-114166666D02*
X41976190Y-114500000D01*
X42452381Y-114738095D02*
X41452381Y-114738095D01*
X41452381Y-114357142D01*
X41500000Y-114261904D01*
X41547619Y-114214285D01*
X41642857Y-114166666D01*
X41785714Y-114166666D01*
X41880952Y-114214285D01*
X41928571Y-114261904D01*
X41976190Y-114357142D01*
X41976190Y-114738095D01*
X41547619Y-113785714D02*
X41500000Y-113738095D01*
X41452381Y-113642857D01*
X41452381Y-113404761D01*
X41500000Y-113309523D01*
X41547619Y-113261904D01*
X41642857Y-113214285D01*
X41738095Y-113214285D01*
X41880952Y-113261904D01*
X42452381Y-113833333D01*
X42452381Y-113214285D01*
X46452381Y-114166666D02*
X45976190Y-114500000D01*
X46452381Y-114738095D02*
X45452381Y-114738095D01*
X45452381Y-114357142D01*
X45500000Y-114261904D01*
X45547619Y-114214285D01*
X45642857Y-114166666D01*
X45785714Y-114166666D01*
X45880952Y-114214285D01*
X45928571Y-114261904D01*
X45976190Y-114357142D01*
X45976190Y-114738095D01*
X45452381Y-113833333D02*
X45452381Y-113214285D01*
X45833333Y-113547619D01*
X45833333Y-113404761D01*
X45880952Y-113309523D01*
X45928571Y-113261904D01*
X46023810Y-113214285D01*
X46261905Y-113214285D01*
X46357143Y-113261904D01*
X46404762Y-113309523D01*
X46452381Y-113404761D01*
X46452381Y-113690476D01*
X46404762Y-113785714D01*
X46357143Y-113833333D01*
X130833334Y-130452381D02*
X130500000Y-129976190D01*
X130261905Y-130452381D02*
X130261905Y-129452381D01*
X130642858Y-129452381D01*
X130738096Y-129500000D01*
X130785715Y-129547619D01*
X130833334Y-129642857D01*
X130833334Y-129785714D01*
X130785715Y-129880952D01*
X130738096Y-129928571D01*
X130642858Y-129976190D01*
X130261905Y-129976190D01*
X131690477Y-129785714D02*
X131690477Y-130452381D01*
X131452381Y-129404762D02*
X131214286Y-130119048D01*
X131833334Y-130119048D01*
X120833334Y-128452381D02*
X120500000Y-127976190D01*
X120261905Y-128452381D02*
X120261905Y-127452381D01*
X120642858Y-127452381D01*
X120738096Y-127500000D01*
X120785715Y-127547619D01*
X120833334Y-127642857D01*
X120833334Y-127785714D01*
X120785715Y-127880952D01*
X120738096Y-127928571D01*
X120642858Y-127976190D01*
X120261905Y-127976190D01*
X121738096Y-127452381D02*
X121261905Y-127452381D01*
X121214286Y-127928571D01*
X121261905Y-127880952D01*
X121357143Y-127833333D01*
X121595239Y-127833333D01*
X121690477Y-127880952D01*
X121738096Y-127928571D01*
X121785715Y-128023810D01*
X121785715Y-128261905D01*
X121738096Y-128357143D01*
X121690477Y-128404762D01*
X121595239Y-128452381D01*
X121357143Y-128452381D01*
X121261905Y-128404762D01*
X121214286Y-128357143D01*
X63833334Y-124452381D02*
X63500000Y-123976190D01*
X63261905Y-124452381D02*
X63261905Y-123452381D01*
X63642858Y-123452381D01*
X63738096Y-123500000D01*
X63785715Y-123547619D01*
X63833334Y-123642857D01*
X63833334Y-123785714D01*
X63785715Y-123880952D01*
X63738096Y-123928571D01*
X63642858Y-123976190D01*
X63261905Y-123976190D01*
X64690477Y-123452381D02*
X64500000Y-123452381D01*
X64404762Y-123500000D01*
X64357143Y-123547619D01*
X64261905Y-123690476D01*
X64214286Y-123880952D01*
X64214286Y-124261905D01*
X64261905Y-124357143D01*
X64309524Y-124404762D01*
X64404762Y-124452381D01*
X64595239Y-124452381D01*
X64690477Y-124404762D01*
X64738096Y-124357143D01*
X64785715Y-124261905D01*
X64785715Y-124023810D01*
X64738096Y-123928571D01*
X64690477Y-123880952D01*
X64595239Y-123833333D01*
X64404762Y-123833333D01*
X64309524Y-123880952D01*
X64261905Y-123928571D01*
X64214286Y-124023810D01*
X64452381Y-70166666D02*
X63976190Y-70500000D01*
X64452381Y-70738095D02*
X63452381Y-70738095D01*
X63452381Y-70357142D01*
X63500000Y-70261904D01*
X63547619Y-70214285D01*
X63642857Y-70166666D01*
X63785714Y-70166666D01*
X63880952Y-70214285D01*
X63928571Y-70261904D01*
X63976190Y-70357142D01*
X63976190Y-70738095D01*
X63452381Y-69833333D02*
X63452381Y-69166666D01*
X64452381Y-69595238D01*
X102833334Y-70452381D02*
X102500000Y-69976190D01*
X102261905Y-70452381D02*
X102261905Y-69452381D01*
X102642858Y-69452381D01*
X102738096Y-69500000D01*
X102785715Y-69547619D01*
X102833334Y-69642857D01*
X102833334Y-69785714D01*
X102785715Y-69880952D01*
X102738096Y-69928571D01*
X102642858Y-69976190D01*
X102261905Y-69976190D01*
X103404762Y-69880952D02*
X103309524Y-69833333D01*
X103261905Y-69785714D01*
X103214286Y-69690476D01*
X103214286Y-69642857D01*
X103261905Y-69547619D01*
X103309524Y-69500000D01*
X103404762Y-69452381D01*
X103595239Y-69452381D01*
X103690477Y-69500000D01*
X103738096Y-69547619D01*
X103785715Y-69642857D01*
X103785715Y-69690476D01*
X103738096Y-69785714D01*
X103690477Y-69833333D01*
X103595239Y-69880952D01*
X103404762Y-69880952D01*
X103309524Y-69928571D01*
X103261905Y-69976190D01*
X103214286Y-70071429D01*
X103214286Y-70261905D01*
X103261905Y-70357143D01*
X103309524Y-70404762D01*
X103404762Y-70452381D01*
X103595239Y-70452381D01*
X103690477Y-70404762D01*
X103738096Y-70357143D01*
X103785715Y-70261905D01*
X103785715Y-70071429D01*
X103738096Y-69976190D01*
X103690477Y-69928571D01*
X103595239Y-69880952D01*
X102833334Y-75452381D02*
X102500000Y-74976190D01*
X102261905Y-75452381D02*
X102261905Y-74452381D01*
X102642858Y-74452381D01*
X102738096Y-74500000D01*
X102785715Y-74547619D01*
X102833334Y-74642857D01*
X102833334Y-74785714D01*
X102785715Y-74880952D01*
X102738096Y-74928571D01*
X102642858Y-74976190D01*
X102261905Y-74976190D01*
X103309524Y-75452381D02*
X103500000Y-75452381D01*
X103595239Y-75404762D01*
X103642858Y-75357143D01*
X103738096Y-75214286D01*
X103785715Y-75023810D01*
X103785715Y-74642857D01*
X103738096Y-74547619D01*
X103690477Y-74500000D01*
X103595239Y-74452381D01*
X103404762Y-74452381D01*
X103309524Y-74500000D01*
X103261905Y-74547619D01*
X103214286Y-74642857D01*
X103214286Y-74880952D01*
X103261905Y-74976190D01*
X103309524Y-75023810D01*
X103404762Y-75071429D01*
X103595239Y-75071429D01*
X103690477Y-75023810D01*
X103738096Y-74976190D01*
X103785715Y-74880952D01*
X89357143Y-78452381D02*
X89023809Y-77976190D01*
X88785714Y-78452381D02*
X88785714Y-77452381D01*
X89166667Y-77452381D01*
X89261905Y-77500000D01*
X89309524Y-77547619D01*
X89357143Y-77642857D01*
X89357143Y-77785714D01*
X89309524Y-77880952D01*
X89261905Y-77928571D01*
X89166667Y-77976190D01*
X88785714Y-77976190D01*
X90309524Y-78452381D02*
X89738095Y-78452381D01*
X90023809Y-78452381D02*
X90023809Y-77452381D01*
X89928571Y-77595238D01*
X89833333Y-77690476D01*
X89738095Y-77738095D01*
X90928571Y-77452381D02*
X91023810Y-77452381D01*
X91119048Y-77500000D01*
X91166667Y-77547619D01*
X91214286Y-77642857D01*
X91261905Y-77833333D01*
X91261905Y-78071429D01*
X91214286Y-78261905D01*
X91166667Y-78357143D01*
X91119048Y-78404762D01*
X91023810Y-78452381D01*
X90928571Y-78452381D01*
X90833333Y-78404762D01*
X90785714Y-78357143D01*
X90738095Y-78261905D01*
X90690476Y-78071429D01*
X90690476Y-77833333D01*
X90738095Y-77642857D01*
X90785714Y-77547619D01*
X90833333Y-77500000D01*
X90928571Y-77452381D01*
X102357143Y-81452381D02*
X102023809Y-80976190D01*
X101785714Y-81452381D02*
X101785714Y-80452381D01*
X102166667Y-80452381D01*
X102261905Y-80500000D01*
X102309524Y-80547619D01*
X102357143Y-80642857D01*
X102357143Y-80785714D01*
X102309524Y-80880952D01*
X102261905Y-80928571D01*
X102166667Y-80976190D01*
X101785714Y-80976190D01*
X103309524Y-81452381D02*
X102738095Y-81452381D01*
X103023809Y-81452381D02*
X103023809Y-80452381D01*
X102928571Y-80595238D01*
X102833333Y-80690476D01*
X102738095Y-80738095D01*
X104261905Y-81452381D02*
X103690476Y-81452381D01*
X103976190Y-81452381D02*
X103976190Y-80452381D01*
X103880952Y-80595238D01*
X103785714Y-80690476D01*
X103690476Y-80738095D01*
X102357143Y-85452381D02*
X102023809Y-84976190D01*
X101785714Y-85452381D02*
X101785714Y-84452381D01*
X102166667Y-84452381D01*
X102261905Y-84500000D01*
X102309524Y-84547619D01*
X102357143Y-84642857D01*
X102357143Y-84785714D01*
X102309524Y-84880952D01*
X102261905Y-84928571D01*
X102166667Y-84976190D01*
X101785714Y-84976190D01*
X103309524Y-85452381D02*
X102738095Y-85452381D01*
X103023809Y-85452381D02*
X103023809Y-84452381D01*
X102928571Y-84595238D01*
X102833333Y-84690476D01*
X102738095Y-84738095D01*
X103690476Y-84547619D02*
X103738095Y-84500000D01*
X103833333Y-84452381D01*
X104071429Y-84452381D01*
X104166667Y-84500000D01*
X104214286Y-84547619D01*
X104261905Y-84642857D01*
X104261905Y-84738095D01*
X104214286Y-84880952D01*
X103642857Y-85452381D01*
X104261905Y-85452381D01*
X89357143Y-88452381D02*
X89023809Y-87976190D01*
X88785714Y-88452381D02*
X88785714Y-87452381D01*
X89166667Y-87452381D01*
X89261905Y-87500000D01*
X89309524Y-87547619D01*
X89357143Y-87642857D01*
X89357143Y-87785714D01*
X89309524Y-87880952D01*
X89261905Y-87928571D01*
X89166667Y-87976190D01*
X88785714Y-87976190D01*
X90309524Y-88452381D02*
X89738095Y-88452381D01*
X90023809Y-88452381D02*
X90023809Y-87452381D01*
X89928571Y-87595238D01*
X89833333Y-87690476D01*
X89738095Y-87738095D01*
X90642857Y-87452381D02*
X91261905Y-87452381D01*
X90928571Y-87833333D01*
X91071429Y-87833333D01*
X91166667Y-87880952D01*
X91214286Y-87928571D01*
X91261905Y-88023810D01*
X91261905Y-88261905D01*
X91214286Y-88357143D01*
X91166667Y-88404762D01*
X91071429Y-88452381D01*
X90785714Y-88452381D01*
X90690476Y-88404762D01*
X90642857Y-88357143D01*
X102357143Y-94452381D02*
X102023809Y-93976190D01*
X101785714Y-94452381D02*
X101785714Y-93452381D01*
X102166667Y-93452381D01*
X102261905Y-93500000D01*
X102309524Y-93547619D01*
X102357143Y-93642857D01*
X102357143Y-93785714D01*
X102309524Y-93880952D01*
X102261905Y-93928571D01*
X102166667Y-93976190D01*
X101785714Y-93976190D01*
X103309524Y-94452381D02*
X102738095Y-94452381D01*
X103023809Y-94452381D02*
X103023809Y-93452381D01*
X102928571Y-93595238D01*
X102833333Y-93690476D01*
X102738095Y-93738095D01*
X104166667Y-93785714D02*
X104166667Y-94452381D01*
X103928571Y-93404762D02*
X103690476Y-94119048D01*
X104309524Y-94119048D01*
X102357143Y-98452381D02*
X102023809Y-97976190D01*
X101785714Y-98452381D02*
X101785714Y-97452381D01*
X102166667Y-97452381D01*
X102261905Y-97500000D01*
X102309524Y-97547619D01*
X102357143Y-97642857D01*
X102357143Y-97785714D01*
X102309524Y-97880952D01*
X102261905Y-97928571D01*
X102166667Y-97976190D01*
X101785714Y-97976190D01*
X103309524Y-98452381D02*
X102738095Y-98452381D01*
X103023809Y-98452381D02*
X103023809Y-97452381D01*
X102928571Y-97595238D01*
X102833333Y-97690476D01*
X102738095Y-97738095D01*
X104214286Y-97452381D02*
X103738095Y-97452381D01*
X103690476Y-97928571D01*
X103738095Y-97880952D01*
X103833333Y-97833333D01*
X104071429Y-97833333D01*
X104166667Y-97880952D01*
X104214286Y-97928571D01*
X104261905Y-98023810D01*
X104261905Y-98261905D01*
X104214286Y-98357143D01*
X104166667Y-98404762D01*
X104071429Y-98452381D01*
X103833333Y-98452381D01*
X103738095Y-98404762D01*
X103690476Y-98357143D01*
X89357143Y-102452381D02*
X89023809Y-101976190D01*
X88785714Y-102452381D02*
X88785714Y-101452381D01*
X89166667Y-101452381D01*
X89261905Y-101500000D01*
X89309524Y-101547619D01*
X89357143Y-101642857D01*
X89357143Y-101785714D01*
X89309524Y-101880952D01*
X89261905Y-101928571D01*
X89166667Y-101976190D01*
X88785714Y-101976190D01*
X90309524Y-102452381D02*
X89738095Y-102452381D01*
X90023809Y-102452381D02*
X90023809Y-101452381D01*
X89928571Y-101595238D01*
X89833333Y-101690476D01*
X89738095Y-101738095D01*
X91166667Y-101452381D02*
X90976190Y-101452381D01*
X90880952Y-101500000D01*
X90833333Y-101547619D01*
X90738095Y-101690476D01*
X90690476Y-101880952D01*
X90690476Y-102261905D01*
X90738095Y-102357143D01*
X90785714Y-102404762D01*
X90880952Y-102452381D01*
X91071429Y-102452381D01*
X91166667Y-102404762D01*
X91214286Y-102357143D01*
X91261905Y-102261905D01*
X91261905Y-102023810D01*
X91214286Y-101928571D01*
X91166667Y-101880952D01*
X91071429Y-101833333D01*
X90880952Y-101833333D01*
X90785714Y-101880952D01*
X90738095Y-101928571D01*
X90690476Y-102023810D01*
X102357143Y-105452381D02*
X102023809Y-104976190D01*
X101785714Y-105452381D02*
X101785714Y-104452381D01*
X102166667Y-104452381D01*
X102261905Y-104500000D01*
X102309524Y-104547619D01*
X102357143Y-104642857D01*
X102357143Y-104785714D01*
X102309524Y-104880952D01*
X102261905Y-104928571D01*
X102166667Y-104976190D01*
X101785714Y-104976190D01*
X103309524Y-105452381D02*
X102738095Y-105452381D01*
X103023809Y-105452381D02*
X103023809Y-104452381D01*
X102928571Y-104595238D01*
X102833333Y-104690476D01*
X102738095Y-104738095D01*
X103642857Y-104452381D02*
X104309524Y-104452381D01*
X103880952Y-105452381D01*
X102357143Y-109452381D02*
X102023809Y-108976190D01*
X101785714Y-109452381D02*
X101785714Y-108452381D01*
X102166667Y-108452381D01*
X102261905Y-108500000D01*
X102309524Y-108547619D01*
X102357143Y-108642857D01*
X102357143Y-108785714D01*
X102309524Y-108880952D01*
X102261905Y-108928571D01*
X102166667Y-108976190D01*
X101785714Y-108976190D01*
X103309524Y-109452381D02*
X102738095Y-109452381D01*
X103023809Y-109452381D02*
X103023809Y-108452381D01*
X102928571Y-108595238D01*
X102833333Y-108690476D01*
X102738095Y-108738095D01*
X103880952Y-108880952D02*
X103785714Y-108833333D01*
X103738095Y-108785714D01*
X103690476Y-108690476D01*
X103690476Y-108642857D01*
X103738095Y-108547619D01*
X103785714Y-108500000D01*
X103880952Y-108452381D01*
X104071429Y-108452381D01*
X104166667Y-108500000D01*
X104214286Y-108547619D01*
X104261905Y-108642857D01*
X104261905Y-108690476D01*
X104214286Y-108785714D01*
X104166667Y-108833333D01*
X104071429Y-108880952D01*
X103880952Y-108880952D01*
X103785714Y-108928571D01*
X103738095Y-108976190D01*
X103690476Y-109071429D01*
X103690476Y-109261905D01*
X103738095Y-109357143D01*
X103785714Y-109404762D01*
X103880952Y-109452381D01*
X104071429Y-109452381D01*
X104166667Y-109404762D01*
X104214286Y-109357143D01*
X104261905Y-109261905D01*
X104261905Y-109071429D01*
X104214286Y-108976190D01*
X104166667Y-108928571D01*
X104071429Y-108880952D01*
X89357143Y-113452381D02*
X89023809Y-112976190D01*
X88785714Y-113452381D02*
X88785714Y-112452381D01*
X89166667Y-112452381D01*
X89261905Y-112500000D01*
X89309524Y-112547619D01*
X89357143Y-112642857D01*
X89357143Y-112785714D01*
X89309524Y-112880952D01*
X89261905Y-112928571D01*
X89166667Y-112976190D01*
X88785714Y-112976190D01*
X90309524Y-113452381D02*
X89738095Y-113452381D01*
X90023809Y-113452381D02*
X90023809Y-112452381D01*
X89928571Y-112595238D01*
X89833333Y-112690476D01*
X89738095Y-112738095D01*
X90785714Y-113452381D02*
X90976190Y-113452381D01*
X91071429Y-113404762D01*
X91119048Y-113357143D01*
X91214286Y-113214286D01*
X91261905Y-113023810D01*
X91261905Y-112642857D01*
X91214286Y-112547619D01*
X91166667Y-112500000D01*
X91071429Y-112452381D01*
X90880952Y-112452381D01*
X90785714Y-112500000D01*
X90738095Y-112547619D01*
X90690476Y-112642857D01*
X90690476Y-112880952D01*
X90738095Y-112976190D01*
X90785714Y-113023810D01*
X90880952Y-113071429D01*
X91071429Y-113071429D01*
X91166667Y-113023810D01*
X91214286Y-112976190D01*
X91261905Y-112880952D01*
X114357143Y-70452381D02*
X114023809Y-69976190D01*
X113785714Y-70452381D02*
X113785714Y-69452381D01*
X114166667Y-69452381D01*
X114261905Y-69500000D01*
X114309524Y-69547619D01*
X114357143Y-69642857D01*
X114357143Y-69785714D01*
X114309524Y-69880952D01*
X114261905Y-69928571D01*
X114166667Y-69976190D01*
X113785714Y-69976190D01*
X114738095Y-69547619D02*
X114785714Y-69500000D01*
X114880952Y-69452381D01*
X115119048Y-69452381D01*
X115214286Y-69500000D01*
X115261905Y-69547619D01*
X115309524Y-69642857D01*
X115309524Y-69738095D01*
X115261905Y-69880952D01*
X114690476Y-70452381D01*
X115309524Y-70452381D01*
X115928571Y-69452381D02*
X116023810Y-69452381D01*
X116119048Y-69500000D01*
X116166667Y-69547619D01*
X116214286Y-69642857D01*
X116261905Y-69833333D01*
X116261905Y-70071429D01*
X116214286Y-70261905D01*
X116166667Y-70357143D01*
X116119048Y-70404762D01*
X116023810Y-70452381D01*
X115928571Y-70452381D01*
X115833333Y-70404762D01*
X115785714Y-70357143D01*
X115738095Y-70261905D01*
X115690476Y-70071429D01*
X115690476Y-69833333D01*
X115738095Y-69642857D01*
X115785714Y-69547619D01*
X115833333Y-69500000D01*
X115928571Y-69452381D01*
X114357143Y-75452381D02*
X114023809Y-74976190D01*
X113785714Y-75452381D02*
X113785714Y-74452381D01*
X114166667Y-74452381D01*
X114261905Y-74500000D01*
X114309524Y-74547619D01*
X114357143Y-74642857D01*
X114357143Y-74785714D01*
X114309524Y-74880952D01*
X114261905Y-74928571D01*
X114166667Y-74976190D01*
X113785714Y-74976190D01*
X114738095Y-74547619D02*
X114785714Y-74500000D01*
X114880952Y-74452381D01*
X115119048Y-74452381D01*
X115214286Y-74500000D01*
X115261905Y-74547619D01*
X115309524Y-74642857D01*
X115309524Y-74738095D01*
X115261905Y-74880952D01*
X114690476Y-75452381D01*
X115309524Y-75452381D01*
X116261905Y-75452381D02*
X115690476Y-75452381D01*
X115976190Y-75452381D02*
X115976190Y-74452381D01*
X115880952Y-74595238D01*
X115785714Y-74690476D01*
X115690476Y-74738095D01*
X127357143Y-78452381D02*
X127023809Y-77976190D01*
X126785714Y-78452381D02*
X126785714Y-77452381D01*
X127166667Y-77452381D01*
X127261905Y-77500000D01*
X127309524Y-77547619D01*
X127357143Y-77642857D01*
X127357143Y-77785714D01*
X127309524Y-77880952D01*
X127261905Y-77928571D01*
X127166667Y-77976190D01*
X126785714Y-77976190D01*
X127738095Y-77547619D02*
X127785714Y-77500000D01*
X127880952Y-77452381D01*
X128119048Y-77452381D01*
X128214286Y-77500000D01*
X128261905Y-77547619D01*
X128309524Y-77642857D01*
X128309524Y-77738095D01*
X128261905Y-77880952D01*
X127690476Y-78452381D01*
X128309524Y-78452381D01*
X128690476Y-77547619D02*
X128738095Y-77500000D01*
X128833333Y-77452381D01*
X129071429Y-77452381D01*
X129166667Y-77500000D01*
X129214286Y-77547619D01*
X129261905Y-77642857D01*
X129261905Y-77738095D01*
X129214286Y-77880952D01*
X128642857Y-78452381D01*
X129261905Y-78452381D01*
X114357143Y-81452381D02*
X114023809Y-80976190D01*
X113785714Y-81452381D02*
X113785714Y-80452381D01*
X114166667Y-80452381D01*
X114261905Y-80500000D01*
X114309524Y-80547619D01*
X114357143Y-80642857D01*
X114357143Y-80785714D01*
X114309524Y-80880952D01*
X114261905Y-80928571D01*
X114166667Y-80976190D01*
X113785714Y-80976190D01*
X114738095Y-80547619D02*
X114785714Y-80500000D01*
X114880952Y-80452381D01*
X115119048Y-80452381D01*
X115214286Y-80500000D01*
X115261905Y-80547619D01*
X115309524Y-80642857D01*
X115309524Y-80738095D01*
X115261905Y-80880952D01*
X114690476Y-81452381D01*
X115309524Y-81452381D01*
X115642857Y-80452381D02*
X116261905Y-80452381D01*
X115928571Y-80833333D01*
X116071429Y-80833333D01*
X116166667Y-80880952D01*
X116214286Y-80928571D01*
X116261905Y-81023810D01*
X116261905Y-81261905D01*
X116214286Y-81357143D01*
X116166667Y-81404762D01*
X116071429Y-81452381D01*
X115785714Y-81452381D01*
X115690476Y-81404762D01*
X115642857Y-81357143D01*
X114357143Y-85452381D02*
X114023809Y-84976190D01*
X113785714Y-85452381D02*
X113785714Y-84452381D01*
X114166667Y-84452381D01*
X114261905Y-84500000D01*
X114309524Y-84547619D01*
X114357143Y-84642857D01*
X114357143Y-84785714D01*
X114309524Y-84880952D01*
X114261905Y-84928571D01*
X114166667Y-84976190D01*
X113785714Y-84976190D01*
X114738095Y-84547619D02*
X114785714Y-84500000D01*
X114880952Y-84452381D01*
X115119048Y-84452381D01*
X115214286Y-84500000D01*
X115261905Y-84547619D01*
X115309524Y-84642857D01*
X115309524Y-84738095D01*
X115261905Y-84880952D01*
X114690476Y-85452381D01*
X115309524Y-85452381D01*
X116166667Y-84785714D02*
X116166667Y-85452381D01*
X115928571Y-84404762D02*
X115690476Y-85119048D01*
X116309524Y-85119048D01*
X127357143Y-87452381D02*
X127023809Y-86976190D01*
X126785714Y-87452381D02*
X126785714Y-86452381D01*
X127166667Y-86452381D01*
X127261905Y-86500000D01*
X127309524Y-86547619D01*
X127357143Y-86642857D01*
X127357143Y-86785714D01*
X127309524Y-86880952D01*
X127261905Y-86928571D01*
X127166667Y-86976190D01*
X126785714Y-86976190D01*
X127738095Y-86547619D02*
X127785714Y-86500000D01*
X127880952Y-86452381D01*
X128119048Y-86452381D01*
X128214286Y-86500000D01*
X128261905Y-86547619D01*
X128309524Y-86642857D01*
X128309524Y-86738095D01*
X128261905Y-86880952D01*
X127690476Y-87452381D01*
X128309524Y-87452381D01*
X129214286Y-86452381D02*
X128738095Y-86452381D01*
X128690476Y-86928571D01*
X128738095Y-86880952D01*
X128833333Y-86833333D01*
X129071429Y-86833333D01*
X129166667Y-86880952D01*
X129214286Y-86928571D01*
X129261905Y-87023810D01*
X129261905Y-87261905D01*
X129214286Y-87357143D01*
X129166667Y-87404762D01*
X129071429Y-87452381D01*
X128833333Y-87452381D01*
X128738095Y-87404762D01*
X128690476Y-87357143D01*
X114357143Y-94452381D02*
X114023809Y-93976190D01*
X113785714Y-94452381D02*
X113785714Y-93452381D01*
X114166667Y-93452381D01*
X114261905Y-93500000D01*
X114309524Y-93547619D01*
X114357143Y-93642857D01*
X114357143Y-93785714D01*
X114309524Y-93880952D01*
X114261905Y-93928571D01*
X114166667Y-93976190D01*
X113785714Y-93976190D01*
X114738095Y-93547619D02*
X114785714Y-93500000D01*
X114880952Y-93452381D01*
X115119048Y-93452381D01*
X115214286Y-93500000D01*
X115261905Y-93547619D01*
X115309524Y-93642857D01*
X115309524Y-93738095D01*
X115261905Y-93880952D01*
X114690476Y-94452381D01*
X115309524Y-94452381D01*
X116166667Y-93452381D02*
X115976190Y-93452381D01*
X115880952Y-93500000D01*
X115833333Y-93547619D01*
X115738095Y-93690476D01*
X115690476Y-93880952D01*
X115690476Y-94261905D01*
X115738095Y-94357143D01*
X115785714Y-94404762D01*
X115880952Y-94452381D01*
X116071429Y-94452381D01*
X116166667Y-94404762D01*
X116214286Y-94357143D01*
X116261905Y-94261905D01*
X116261905Y-94023810D01*
X116214286Y-93928571D01*
X116166667Y-93880952D01*
X116071429Y-93833333D01*
X115880952Y-93833333D01*
X115785714Y-93880952D01*
X115738095Y-93928571D01*
X115690476Y-94023810D01*
X114357143Y-98452381D02*
X114023809Y-97976190D01*
X113785714Y-98452381D02*
X113785714Y-97452381D01*
X114166667Y-97452381D01*
X114261905Y-97500000D01*
X114309524Y-97547619D01*
X114357143Y-97642857D01*
X114357143Y-97785714D01*
X114309524Y-97880952D01*
X114261905Y-97928571D01*
X114166667Y-97976190D01*
X113785714Y-97976190D01*
X114738095Y-97547619D02*
X114785714Y-97500000D01*
X114880952Y-97452381D01*
X115119048Y-97452381D01*
X115214286Y-97500000D01*
X115261905Y-97547619D01*
X115309524Y-97642857D01*
X115309524Y-97738095D01*
X115261905Y-97880952D01*
X114690476Y-98452381D01*
X115309524Y-98452381D01*
X115642857Y-97452381D02*
X116309524Y-97452381D01*
X115880952Y-98452381D01*
X127357143Y-101452381D02*
X127023809Y-100976190D01*
X126785714Y-101452381D02*
X126785714Y-100452381D01*
X127166667Y-100452381D01*
X127261905Y-100500000D01*
X127309524Y-100547619D01*
X127357143Y-100642857D01*
X127357143Y-100785714D01*
X127309524Y-100880952D01*
X127261905Y-100928571D01*
X127166667Y-100976190D01*
X126785714Y-100976190D01*
X127738095Y-100547619D02*
X127785714Y-100500000D01*
X127880952Y-100452381D01*
X128119048Y-100452381D01*
X128214286Y-100500000D01*
X128261905Y-100547619D01*
X128309524Y-100642857D01*
X128309524Y-100738095D01*
X128261905Y-100880952D01*
X127690476Y-101452381D01*
X128309524Y-101452381D01*
X128880952Y-100880952D02*
X128785714Y-100833333D01*
X128738095Y-100785714D01*
X128690476Y-100690476D01*
X128690476Y-100642857D01*
X128738095Y-100547619D01*
X128785714Y-100500000D01*
X128880952Y-100452381D01*
X129071429Y-100452381D01*
X129166667Y-100500000D01*
X129214286Y-100547619D01*
X129261905Y-100642857D01*
X129261905Y-100690476D01*
X129214286Y-100785714D01*
X129166667Y-100833333D01*
X129071429Y-100880952D01*
X128880952Y-100880952D01*
X128785714Y-100928571D01*
X128738095Y-100976190D01*
X128690476Y-101071429D01*
X128690476Y-101261905D01*
X128738095Y-101357143D01*
X128785714Y-101404762D01*
X128880952Y-101452381D01*
X129071429Y-101452381D01*
X129166667Y-101404762D01*
X129214286Y-101357143D01*
X129261905Y-101261905D01*
X129261905Y-101071429D01*
X129214286Y-100976190D01*
X129166667Y-100928571D01*
X129071429Y-100880952D01*
X114357143Y-105452381D02*
X114023809Y-104976190D01*
X113785714Y-105452381D02*
X113785714Y-104452381D01*
X114166667Y-104452381D01*
X114261905Y-104500000D01*
X114309524Y-104547619D01*
X114357143Y-104642857D01*
X114357143Y-104785714D01*
X114309524Y-104880952D01*
X114261905Y-104928571D01*
X114166667Y-104976190D01*
X113785714Y-104976190D01*
X114738095Y-104547619D02*
X114785714Y-104500000D01*
X114880952Y-104452381D01*
X115119048Y-104452381D01*
X115214286Y-104500000D01*
X115261905Y-104547619D01*
X115309524Y-104642857D01*
X115309524Y-104738095D01*
X115261905Y-104880952D01*
X114690476Y-105452381D01*
X115309524Y-105452381D01*
X115785714Y-105452381D02*
X115976190Y-105452381D01*
X116071429Y-105404762D01*
X116119048Y-105357143D01*
X116214286Y-105214286D01*
X116261905Y-105023810D01*
X116261905Y-104642857D01*
X116214286Y-104547619D01*
X116166667Y-104500000D01*
X116071429Y-104452381D01*
X115880952Y-104452381D01*
X115785714Y-104500000D01*
X115738095Y-104547619D01*
X115690476Y-104642857D01*
X115690476Y-104880952D01*
X115738095Y-104976190D01*
X115785714Y-105023810D01*
X115880952Y-105071429D01*
X116071429Y-105071429D01*
X116166667Y-105023810D01*
X116214286Y-104976190D01*
X116261905Y-104880952D01*
X114357143Y-110452381D02*
X114023809Y-109976190D01*
X113785714Y-110452381D02*
X113785714Y-109452381D01*
X114166667Y-109452381D01*
X114261905Y-109500000D01*
X114309524Y-109547619D01*
X114357143Y-109642857D01*
X114357143Y-109785714D01*
X114309524Y-109880952D01*
X114261905Y-109928571D01*
X114166667Y-109976190D01*
X113785714Y-109976190D01*
X114690476Y-109452381D02*
X115309524Y-109452381D01*
X114976190Y-109833333D01*
X115119048Y-109833333D01*
X115214286Y-109880952D01*
X115261905Y-109928571D01*
X115309524Y-110023810D01*
X115309524Y-110261905D01*
X115261905Y-110357143D01*
X115214286Y-110404762D01*
X115119048Y-110452381D01*
X114833333Y-110452381D01*
X114738095Y-110404762D01*
X114690476Y-110357143D01*
X115928571Y-109452381D02*
X116023810Y-109452381D01*
X116119048Y-109500000D01*
X116166667Y-109547619D01*
X116214286Y-109642857D01*
X116261905Y-109833333D01*
X116261905Y-110071429D01*
X116214286Y-110261905D01*
X116166667Y-110357143D01*
X116119048Y-110404762D01*
X116023810Y-110452381D01*
X115928571Y-110452381D01*
X115833333Y-110404762D01*
X115785714Y-110357143D01*
X115738095Y-110261905D01*
X115690476Y-110071429D01*
X115690476Y-109833333D01*
X115738095Y-109642857D01*
X115785714Y-109547619D01*
X115833333Y-109500000D01*
X115928571Y-109452381D01*
X127357143Y-113452381D02*
X127023809Y-112976190D01*
X126785714Y-113452381D02*
X126785714Y-112452381D01*
X127166667Y-112452381D01*
X127261905Y-112500000D01*
X127309524Y-112547619D01*
X127357143Y-112642857D01*
X127357143Y-112785714D01*
X127309524Y-112880952D01*
X127261905Y-112928571D01*
X127166667Y-112976190D01*
X126785714Y-112976190D01*
X127690476Y-112452381D02*
X128309524Y-112452381D01*
X127976190Y-112833333D01*
X128119048Y-112833333D01*
X128214286Y-112880952D01*
X128261905Y-112928571D01*
X128309524Y-113023810D01*
X128309524Y-113261905D01*
X128261905Y-113357143D01*
X128214286Y-113404762D01*
X128119048Y-113452381D01*
X127833333Y-113452381D01*
X127738095Y-113404762D01*
X127690476Y-113357143D01*
X129261905Y-113452381D02*
X128690476Y-113452381D01*
X128976190Y-113452381D02*
X128976190Y-112452381D01*
X128880952Y-112595238D01*
X128785714Y-112690476D01*
X128690476Y-112738095D01*
X60398095Y-74912381D02*
X60398095Y-75721905D01*
X60445714Y-75817143D01*
X60493333Y-75864762D01*
X60588571Y-75912381D01*
X60779048Y-75912381D01*
X60874286Y-75864762D01*
X60921905Y-75817143D01*
X60969524Y-75721905D01*
X60969524Y-74912381D01*
X61969524Y-75912381D02*
X61398095Y-75912381D01*
X61683809Y-75912381D02*
X61683809Y-74912381D01*
X61588571Y-75055238D01*
X61493333Y-75150476D01*
X61398095Y-75198095D01*
M02*
