M48
;DRILL file {KiCad 4.0.1-3.201512221402+6198~38~ubuntu15.04.1-stable} date Mon 11 Jan 2016 13:06:35 CET
;FORMAT={-:-/ absolute / inch / decimal}
FMAT,2
INCH,TZ
T1C0.016
T2C0.030
T3C0.039
T4C0.059
T5C0.060
%
G90
G05
M72
T1
X2.874Y-3.3071
X2.874Y-3.8189
X2.874Y-4.2126
X3.9764Y-5.0787
X4.4882Y-2.5984
X5.0787Y-5.1181
X5.7087Y-3.1102
X5.7087Y-3.5039
X5.7087Y-3.9764
T2
X2.1079Y-3.0709
X2.1079Y-3.1709
X2.1079Y-3.2709
X2.1079Y-3.3709
X2.1079Y-3.4709
X2.1079Y-3.5709
X2.1079Y-3.6709
X2.1079Y-3.7709
X2.1079Y-3.8709
X2.1079Y-3.9709
X2.1079Y-4.0709
X2.1079Y-4.1709
X2.1079Y-4.2709
X2.1079Y-4.3709
X2.1079Y-4.4709
X2.1079Y-4.5709
X2.1079Y-4.6709
X2.7079Y-3.0709
X2.7079Y-3.1709
X2.7079Y-3.2709
X2.7079Y-3.3709
X2.7079Y-3.4709
X2.7079Y-3.5709
X2.7079Y-3.6709
X2.7079Y-3.7709
X2.7079Y-3.8709
X2.7079Y-3.9709
X2.7079Y-4.0709
X2.7079Y-4.1709
X2.7079Y-4.2709
X2.7079Y-4.3709
X2.7079Y-4.4709
X2.7079Y-4.5709
X2.7079Y-4.6709
X4.2307Y-2.7772
X4.2307Y-2.8772
X4.2307Y-2.9772
X4.2307Y-3.0772
X4.2307Y-3.1772
X4.2307Y-3.2772
X4.2307Y-3.3772
X4.2307Y-3.4772
X4.2307Y-3.722
X4.2307Y-3.822
X4.2307Y-3.922
X4.2307Y-4.022
X4.2307Y-4.122
X4.2307Y-4.222
X4.2307Y-4.322
X4.2307Y-4.422
X4.3307Y-2.7772
X4.3307Y-2.8772
X4.3307Y-2.9772
X4.3307Y-3.0772
X4.3307Y-3.1772
X4.3307Y-3.2772
X4.3307Y-3.3772
X4.3307Y-3.4772
X4.3307Y-3.722
X4.3307Y-3.822
X4.3307Y-3.922
X4.3307Y-4.022
X4.3307Y-4.122
X4.3307Y-4.222
X4.3307Y-4.322
X4.3307Y-4.422
T3
X1.4961Y-4.6031
X1.4961Y-5.0031
X1.6535Y-4.6031
X1.6535Y-5.0031
X1.811Y-4.6031
X1.811Y-5.0031
X2.0047Y-4.8819
X2.4016Y-2.5559
X2.4016Y-2.9559
X2.4047Y-4.8819
X3.0283Y-3.0709
X3.0283Y-3.4646
X3.0283Y-4.0157
X3.0283Y-4.4488
X3.4283Y-3.0709
X3.4283Y-3.4646
X3.4283Y-4.0157
X3.4283Y-4.4488
X3.5402Y-2.7559
X3.5402Y-2.9528
X3.5402Y-3.189
X3.5402Y-3.3465
X3.5402Y-3.7008
X3.5402Y-3.8583
X3.5402Y-4.1339
X3.5402Y-4.2913
X3.9402Y-2.7559
X3.9402Y-2.9528
X3.9402Y-3.189
X3.9402Y-3.3465
X3.9402Y-3.7008
X3.9402Y-3.8583
X3.9402Y-4.1339
X3.9402Y-4.2913
X4.2488Y-5.0394
X4.6425Y-2.7559
X4.6425Y-2.9528
X4.6425Y-3.189
X4.6425Y-3.3465
X4.6425Y-3.7008
X4.6425Y-3.8583
X4.6425Y-4.1339
X4.6425Y-4.3307
X4.6488Y-5.0394
X5.0425Y-2.7559
X5.0425Y-2.9528
X5.0425Y-3.189
X5.0425Y-3.3465
X5.0425Y-3.7008
X5.0425Y-3.8583
X5.0425Y-4.1339
X5.0425Y-4.3307
X5.1543Y-3.0709
X5.1543Y-3.4252
X5.1543Y-3.9764
X5.1543Y-4.4488
X5.2724Y-5.1181
X5.5543Y-3.0709
X5.5543Y-3.4252
X5.5543Y-3.9764
X5.5543Y-4.4488
X5.6724Y-5.1181
T4
X2.8115Y-2.5984
X3.0083Y-4.8031
X3.0315Y-2.5984
X3.2283Y-4.8031
X3.2515Y-2.5984
X3.4483Y-4.8031
X4.032Y-4.8031
X4.252Y-4.8031
X4.472Y-4.8031
X5.1343Y-4.8031
X5.3543Y-4.8031
X5.5743Y-4.8031
T5
X1.5929Y-3.4252
X1.5929Y-3.8583
X1.5929Y-4.1732
X1.7929Y-3.4252
X1.7929Y-3.8583
X1.7929Y-4.1732
T0
M30
